<?xml version="1.0" encoding="UTF-8" standalone="no"?>
<!DOCTYPE svg PUBLIC "-//W3C//DTD SVG 1.1//EN"
 "http://www.w3.org/Graphics/SVG/1.1/DTD/svg11.dtd">
<!-- Generated by graphviz version 3.0.0 (20220226.1711)
 -->
<!-- Title: dependency&#45;cruiser output Pages: 1 -->
<svg width="710pt" height="456pt"
 viewBox="0.00 0.00 710.00 456.00" xmlns="http://www.w3.org/2000/svg" xmlns:xlink="http://www.w3.org/1999/xlink">
<g id="graph0" class="graph" transform="scale(1 1) rotate(0) translate(4 452)">
<title>dependency&#45;cruiser output</title>
<polygon fill="white" stroke="transparent" points="-4,4 -4,-452 706,-452 706,4 -4,4"/>
<g id="clust1" class="cluster">
<title>cluster_node_modules</title>
<path fill="#ffffff" stroke="black" stroke-width="2" d="M579,-211C579,-211 682,-211 682,-211 688,-211 694,-217 694,-223 694,-223 694,-251 694,-251 694,-257 688,-263 682,-263 682,-263 579,-263 579,-263 573,-263 567,-257 567,-251 567,-251 567,-223 567,-223 567,-217 573,-211 579,-211"/>
<text text-anchor="middle" x="630.5" y="-251.8" font-family="Helvetica,sans-Serif" font-weight="bold" font-size="9.00">node_modules</text>
</g>
<g id="clust2" class="cluster">
<title>cluster_src</title>
<path fill="#ffffff" stroke="black" stroke-width="2" d="M20,-8C20,-8 547,-8 547,-8 553,-8 559,-14 559,-20 559,-20 559,-428 559,-428 559,-434 553,-440 547,-440 547,-440 20,-440 20,-440 14,-440 8,-434 8,-428 8,-428 8,-20 8,-20 8,-14 14,-8 20,-8"/>
<text text-anchor="middle" x="283.5" y="-428.8" font-family="Helvetica,sans-Serif" font-weight="bold" font-size="9.00">src</text>
</g>
<!-- node_modules/three&#45;spatial&#45;hash&#45;grid -->
<g id="node1" class="node">
<title>node_modules/three&#45;spatial&#45;hash&#45;grid</title>
<g id="a_node1"><a xlink:href="node_modules/three-spatial-hash-grid" xlink:title="three&#45;spatial&#45;hash&#45;grid">
<polygon fill="#c40b0a" fill-opacity="0.101961" stroke="black" points="686,-237 577,-237 575,-235 575,-219 684,-219 686,-221 686,-237"/>
<polyline fill="none" stroke="black" points="684,-235 575,-235 "/>
<polyline fill="none" stroke="black" points="684,-235 684,-219 "/>
<polyline fill="none" stroke="black" points="684,-235 686,-237 "/>
<text text-anchor="start" x="583" y="-225.8" font-family="Helvetica,sans-Serif" font-size="9.00" fill="#c40b0a">three&#45;spatial&#45;hash&#45;grid</text>
</a>
</g>
</g>
<!-- src/Sej.ts -->
<g id="node2" class="node">
<title>src/Sej.ts</title>
<g id="a_node2"><a xlink:href="src/Sej.ts" xlink:title="Sej.ts">
<path fill="#ddfeff" stroke="black" d="M64,-254C64,-254 22,-254 22,-254 19,-254 16,-251 16,-248 16,-248 16,-242 16,-242 16,-239 19,-236 22,-236 22,-236 64,-236 64,-236 67,-236 70,-239 70,-242 70,-242 70,-248 70,-248 70,-251 67,-254 64,-254"/>
<text text-anchor="start" x="31" y="-242.8" font-family="Helvetica,sans-Serif" font-size="9.00">Sej.ts</text>
</a>
</g>
</g>
<!-- src/commands/ -->
<g id="node3" class="node">
<title>src/commands/</title>
<g id="a_node3"><a xlink:href="src/commands/" xlink:title="commands">
<polygon fill="#ffffcc" stroke="black" points="147,-104 85,-104 83,-102 83,-86 145,-86 147,-88 147,-104"/>
<polyline fill="none" stroke="black" points="145,-102 83,-102 "/>
<polyline fill="none" stroke="black" points="145,-102 145,-86 "/>
<polyline fill="none" stroke="black" points="145,-102 147,-104 "/>
<text text-anchor="start" x="91" y="-92.8" font-family="Helvetica,sans-Serif" font-size="9.00">commands</text>
</a>
</g>
</g>
<!-- src/Sej.ts&#45;&gt;src/commands/ -->
<g id="edge1" class="edge">
<title>src/Sej.ts&#45;&gt;src/commands/</title>
<path fill="none" stroke="#000000" stroke-width="2" stroke-opacity="0.200000" d="M44.42,-235.96C45.93,-212.99 52.73,-151.52 83,-113 84.56,-111.02 86.4,-109.21 88.39,-107.58"/>
<polygon fill="#000000" fill-opacity="0.200000" stroke="#000000" stroke-width="2" stroke-opacity="0.200000" points="89.62,-109.28 93.27,-104.07 87.17,-105.87 89.62,-109.28"/>
</g>
<!-- src/controls/ -->
<g id="node4" class="node">
<title>src/controls/</title>
<g id="a_node4"><a xlink:href="src/controls/" xlink:title="controls">
<polygon fill="#ffffcc" stroke="black" points="348,-244 296,-244 294,-242 294,-226 346,-226 348,-228 348,-244"/>
<polyline fill="none" stroke="black" points="346,-242 294,-242 "/>
<polyline fill="none" stroke="black" points="346,-242 346,-226 "/>
<polyline fill="none" stroke="black" points="346,-242 348,-244 "/>
<text text-anchor="start" x="304" y="-232.8" font-family="Helvetica,sans-Serif" font-size="9.00">controls</text>
</a>
</g>
</g>
<!-- src/Sej.ts&#45;&gt;src/controls/ -->
<g id="edge2" class="edge">
<title>src/Sej.ts&#45;&gt;src/controls/</title>
<path fill="none" stroke="#000000" stroke-width="2" stroke-opacity="0.200000" d="M70.32,-244.63C114.08,-243.92 204.54,-242.07 281,-238 283.23,-237.88 285.54,-237.74 287.86,-237.59"/>
<polygon fill="#000000" fill-opacity="0.200000" stroke="#000000" stroke-width="2" stroke-opacity="0.200000" points="288.16,-239.68 294,-237.17 287.87,-235.49 288.16,-239.68"/>
</g>
<!-- src/core/ -->
<g id="node5" class="node">
<title>src/core/</title>
<g id="a_node5"><a xlink:href="src/core/" xlink:title="core">
<polygon fill="#ffffcc" stroke="black" points="214,-182 162,-182 160,-180 160,-164 212,-164 214,-166 214,-182"/>
<polyline fill="none" stroke="black" points="212,-180 160,-180 "/>
<polyline fill="none" stroke="black" points="212,-180 212,-164 "/>
<polyline fill="none" stroke="black" points="212,-180 214,-182 "/>
<text text-anchor="start" x="177.5" y="-170.8" font-family="Helvetica,sans-Serif" font-size="9.00">core</text>
</a>
</g>
</g>
<!-- src/Sej.ts&#45;&gt;src/core/ -->
<g id="edge3" class="edge">
<title>src/Sej.ts&#45;&gt;src/core/</title>
<path fill="none" stroke="#000000" stroke-width="2" stroke-opacity="0.200000" d="M53.3,-235.93C60.83,-228.95 71.96,-219.45 83,-213 105.56,-199.82 133.27,-189.34 154.26,-182.42"/>
<polygon fill="#000000" fill-opacity="0.200000" stroke="#000000" stroke-width="2" stroke-opacity="0.200000" points="154.93,-184.41 159.99,-180.57 153.64,-180.42 154.93,-184.41"/>
</g>
<!-- src/debugger/ -->
<g id="node6" class="node">
<title>src/debugger/</title>
<g id="a_node6"><a xlink:href="src/debugger/" xlink:title="debugger">
<polygon fill="#ffffcc" stroke="black" points="417,-237 363,-237 361,-235 361,-219 415,-219 417,-221 417,-237"/>
<polyline fill="none" stroke="black" points="415,-235 361,-235 "/>
<polyline fill="none" stroke="black" points="415,-235 415,-219 "/>
<polyline fill="none" stroke="black" points="415,-235 417,-237 "/>
<text text-anchor="start" x="369" y="-225.8" font-family="Helvetica,sans-Serif" font-size="9.00">debugger</text>
</a>
</g>
</g>
<!-- src/Sej.ts&#45;&gt;src/debugger/ -->
<g id="edge4" class="edge">
<title>src/Sej.ts&#45;&gt;src/debugger/</title>
<path fill="none" stroke="#000000" stroke-width="2" stroke-opacity="0.200000" d="M47.73,-254.32C53.37,-267.16 65.31,-290.05 83,-302 131.65,-334.86 155.65,-325.45 214,-319 274.66,-312.29 297.81,-323.73 348,-289 364.58,-277.52 376.01,-256.72 382.28,-242.64"/>
<polygon fill="#000000" fill-opacity="0.200000" stroke="#000000" stroke-width="2" stroke-opacity="0.200000" points="384.24,-243.4 384.66,-237.06 380.38,-241.76 384.24,-243.4"/>
</g>
<!-- src/editor/ -->
<g id="node7" class="node">
<title>src/editor/</title>
<g id="a_node7"><a xlink:href="src/editor/" xlink:title="editor">
<polygon fill="#ffffcc" stroke="black" points="484,-174 432,-174 430,-172 430,-156 482,-156 484,-158 484,-174"/>
<polyline fill="none" stroke="black" points="482,-172 430,-172 "/>
<polyline fill="none" stroke="black" points="482,-172 482,-156 "/>
<polyline fill="none" stroke="black" points="482,-172 484,-174 "/>
<text text-anchor="start" x="445" y="-162.8" font-family="Helvetica,sans-Serif" font-size="9.00">editor</text>
</a>
</g>
</g>
<!-- src/Sej.ts&#45;&gt;src/editor/ -->
<g id="edge5" class="edge">
<title>src/Sej.ts&#45;&gt;src/editor/</title>
<path fill="none" stroke="#000000" stroke-width="2" stroke-opacity="0.200000" d="M47.59,-235.58C53.2,-222 65.29,-196.91 83,-182 135.78,-137.57 159.26,-137.13 227,-124 299.9,-109.87 386.2,-137.18 429.06,-153.7"/>
<polygon fill="#000000" fill-opacity="0.200000" stroke="#000000" stroke-width="2" stroke-opacity="0.200000" points="428.46,-155.72 434.81,-155.95 429.99,-151.81 428.46,-155.72"/>
</g>
<!-- src/factory/ -->
<g id="node8" class="node">
<title>src/factory/</title>
<g id="a_node8"><a xlink:href="src/factory/" xlink:title="factory">
<polygon fill="#ffffcc" stroke="black" points="142,-296 90,-296 88,-294 88,-278 140,-278 142,-280 142,-296"/>
<polyline fill="none" stroke="black" points="140,-294 88,-294 "/>
<polyline fill="none" stroke="black" points="140,-294 140,-278 "/>
<polyline fill="none" stroke="black" points="140,-294 142,-296 "/>
<text text-anchor="start" x="101.5" y="-284.8" font-family="Helvetica,sans-Serif" font-size="9.00">factory</text>
</a>
</g>
</g>
<!-- src/Sej.ts&#45;&gt;src/factory/ -->
<g id="edge6" class="edge">
<title>src/Sej.ts&#45;&gt;src/factory/</title>
<path fill="none" stroke="#000000" stroke-width="2" stroke-opacity="0.200000" d="M59.19,-254.11C69.28,-260.17 82.64,-268.19 93.65,-274.79"/>
<polygon fill="#000000" fill-opacity="0.200000" stroke="#000000" stroke-width="2" stroke-opacity="0.200000" points="92.62,-276.62 98.84,-277.9 94.78,-273.02 92.62,-276.62"/>
</g>
<!-- src/gis/ -->
<g id="node9" class="node">
<title>src/gis/</title>
<g id="a_node9"><a xlink:href="src/gis/" xlink:title="gis">
<polygon fill="#ffffcc" stroke="black" points="551,-384 499,-384 497,-382 497,-366 549,-366 551,-368 551,-384"/>
<polyline fill="none" stroke="black" points="549,-382 497,-382 "/>
<polyline fill="none" stroke="black" points="549,-382 549,-366 "/>
<polyline fill="none" stroke="black" points="549,-382 551,-384 "/>
<text text-anchor="start" x="517.5" y="-372.8" font-family="Helvetica,sans-Serif" font-size="9.00">gis</text>
</a>
</g>
</g>
<!-- src/Sej.ts&#45;&gt;src/gis/ -->
<g id="edge7" class="edge">
<title>src/Sej.ts&#45;&gt;src/gis/</title>
<path fill="none" stroke="#000000" stroke-width="2" stroke-opacity="0.200000" d="M44.19,-254.1C45.15,-276.55 50.79,-335.06 83,-367 117.03,-400.76 138.06,-399 186,-399 186,-399 186,-399 390,-399 432.01,-399 443.05,-398.39 484,-389 487.5,-388.2 491.13,-387.17 494.69,-386.05"/>
<polygon fill="#000000" fill-opacity="0.200000" stroke="#000000" stroke-width="2" stroke-opacity="0.200000" points="495.56,-387.97 500.59,-384.07 494.23,-383.99 495.56,-387.97"/>
</g>
<!-- src/history/ -->
<g id="node10" class="node">
<title>src/history/</title>
<g id="a_node10"><a xlink:href="src/history/" xlink:title="history">
<polygon fill="#ffffcc" stroke="black" points="551,-96 499,-96 497,-94 497,-78 549,-78 551,-80 551,-96"/>
<polyline fill="none" stroke="black" points="549,-94 497,-94 "/>
<polyline fill="none" stroke="black" points="549,-94 549,-78 "/>
<polyline fill="none" stroke="black" points="549,-94 551,-96 "/>
<text text-anchor="start" x="510" y="-84.8" font-family="Helvetica,sans-Serif" font-size="9.00">history</text>
</a>
</g>
</g>
<!-- src/Sej.ts&#45;&gt;src/history/ -->
<g id="edge8" class="edge">
<title>src/Sej.ts&#45;&gt;src/history/</title>
<path fill="none" stroke="#000000" stroke-width="2" stroke-opacity="0.200000" d="M44.42,-235.57C46.26,-198.93 54.77,-66.66 83,-38 115.79,-4.72 139.28,-17 186,-17 186,-17 186,-17 390,-17 431.93,-17 448.19,-3.19 484,-25 501.48,-35.65 512.4,-57.43 518.1,-72.12"/>
<polygon fill="#000000" fill-opacity="0.200000" stroke="#000000" stroke-width="2" stroke-opacity="0.200000" points="516.19,-73.02 520.22,-77.93 520.13,-71.58 516.19,-73.02"/>
</g>
<!-- src/loader/ -->
<g id="node11" class="node">
<title>src/loader/</title>
<g id="a_node11"><a xlink:href="src/loader/" xlink:title="loader">
<polygon fill="#ffffcc" stroke="black" points="551,-131 499,-131 497,-129 497,-113 549,-113 551,-115 551,-131"/>
<polyline fill="none" stroke="black" points="549,-129 497,-129 "/>
<polyline fill="none" stroke="black" points="549,-129 549,-113 "/>
<polyline fill="none" stroke="black" points="549,-129 551,-131 "/>
<text text-anchor="start" x="510.5" y="-119.8" font-family="Helvetica,sans-Serif" font-size="9.00">loader</text>
</a>
</g>
</g>
<!-- src/Sej.ts&#45;&gt;src/loader/ -->
<g id="edge9" class="edge">
<title>src/Sej.ts&#45;&gt;src/loader/</title>
<path fill="none" stroke="#000000" stroke-width="2" stroke-opacity="0.200000" d="M44.61,-235.66C47.05,-201.69 57.15,-85.47 83,-61 116.64,-29.15 139.67,-45 186,-45 186,-45 186,-45 390,-45 433.23,-45 451.57,-41.42 484,-70 495.52,-80.15 487.7,-89.78 497,-102 498.84,-104.42 501.05,-106.7 503.39,-108.8"/>
<polygon fill="#000000" fill-opacity="0.200000" stroke="#000000" stroke-width="2" stroke-opacity="0.200000" points="502.32,-110.64 508.3,-112.82 504.99,-107.4 502.32,-110.64"/>
</g>
<!-- src/optimizer/ -->
<g id="node12" class="node">
<title>src/optimizer/</title>
<g id="a_node12"><a xlink:href="src/optimizer/" xlink:title="optimizer">
<polygon fill="#ffffcc" stroke="black" points="348,-274 296,-274 294,-272 294,-256 346,-256 348,-258 348,-274"/>
<polyline fill="none" stroke="black" points="346,-272 294,-272 "/>
<polyline fill="none" stroke="black" points="346,-272 346,-256 "/>
<polyline fill="none" stroke="black" points="346,-272 348,-274 "/>
<text text-anchor="start" x="302" y="-262.8" font-family="Helvetica,sans-Serif" font-size="9.00">optimizer</text>
</a>
</g>
</g>
<!-- src/Sej.ts&#45;&gt;src/optimizer/ -->
<g id="edge10" class="edge">
<title>src/Sej.ts&#45;&gt;src/optimizer/</title>
<path fill="none" stroke="#000000" stroke-width="2" stroke-opacity="0.200000" d="M70.46,-246.92C121.26,-250.6 232.28,-258.64 287.49,-262.64"/>
<polygon fill="#000000" fill-opacity="0.200000" stroke="#000000" stroke-width="2" stroke-opacity="0.200000" points="287.48,-264.75 293.62,-263.09 287.78,-260.56 287.48,-264.75"/>
</g>
<!-- src/renderer/ -->
<g id="node13" class="node">
<title>src/renderer/</title>
<g id="a_node13"><a xlink:href="src/renderer/" xlink:title="renderer">
<polygon fill="#ffffcc" stroke="black" points="484,-211 432,-211 430,-209 430,-193 482,-193 484,-195 484,-211"/>
<polyline fill="none" stroke="black" points="482,-209 430,-209 "/>
<polyline fill="none" stroke="black" points="482,-209 482,-193 "/>
<polyline fill="none" stroke="black" points="482,-209 484,-211 "/>
<text text-anchor="start" x="439" y="-199.8" font-family="Helvetica,sans-Serif" font-size="9.00">renderer</text>
</a>
</g>
</g>
<!-- src/Sej.ts&#45;&gt;src/renderer/ -->
<g id="edge11" class="edge">
<title>src/Sej.ts&#45;&gt;src/renderer/</title>
<path fill="none" stroke="#000000" stroke-width="2" stroke-opacity="0.200000" d="M46.93,-254.04C52.12,-268.84 64.18,-298.43 83,-317 119.8,-353.3 134.31,-371 186,-371 186,-371 186,-371 255,-371 331.04,-371 363.17,-369.7 417,-316 444.34,-288.72 452.53,-241.49 454.97,-217.28"/>
<polygon fill="#000000" fill-opacity="0.200000" stroke="#000000" stroke-width="2" stroke-opacity="0.200000" points="457.08,-217.26 455.52,-211.09 452.9,-216.89 457.08,-217.26"/>
</g>
<!-- src/selector/ -->
<g id="node14" class="node">
<title>src/selector/</title>
<g id="a_node14"><a xlink:href="src/selector/" xlink:title="selector">
<polygon fill="#ffffcc" stroke="black" points="551,-165 499,-165 497,-163 497,-147 549,-147 551,-149 551,-165"/>
<polyline fill="none" stroke="black" points="549,-163 497,-163 "/>
<polyline fill="none" stroke="black" points="549,-163 549,-147 "/>
<polyline fill="none" stroke="black" points="549,-163 551,-165 "/>
<text text-anchor="start" x="507" y="-153.8" font-family="Helvetica,sans-Serif" font-size="9.00">selector</text>
</a>
</g>
</g>
<!-- src/Sej.ts&#45;&gt;src/selector/ -->
<g id="edge12" class="edge">
<title>src/Sej.ts&#45;&gt;src/selector/</title>
<path fill="none" stroke="#000000" stroke-width="2" stroke-opacity="0.200000" d="M44.78,-235.68C47.66,-203.89 58.75,-100.56 83,-80 118,-50.33 140.12,-73 186,-73 186,-73 186,-73 322,-73 365.24,-73 376.74,-78.23 417,-94 449.98,-106.92 484.8,-129.19 505.18,-143.22"/>
<polygon fill="#000000" fill-opacity="0.200000" stroke="#000000" stroke-width="2" stroke-opacity="0.200000" points="504.16,-145.07 510.29,-146.78 506.56,-141.63 504.16,-145.07"/>
</g>
<!-- src/spatial/ -->
<g id="node15" class="node">
<title>src/spatial/</title>
<g id="a_node15"><a xlink:href="src/spatial/" xlink:title="spatial">
<polygon fill="#ffffcc" stroke="black" points="551,-237 499,-237 497,-235 497,-219 549,-219 551,-221 551,-237"/>
<polyline fill="none" stroke="black" points="549,-235 497,-235 "/>
<polyline fill="none" stroke="black" points="549,-235 549,-219 "/>
<polyline fill="none" stroke="black" points="549,-235 551,-237 "/>
<text text-anchor="start" x="510" y="-225.8" font-family="Helvetica,sans-Serif" font-size="9.00">spatial</text>
</a>
</g>
</g>
<!-- src/Sej.ts&#45;&gt;src/spatial/ -->
<g id="edge13" class="edge">
<title>src/Sej.ts&#45;&gt;src/spatial/</title>
<path fill="none" stroke="#000000" stroke-width="2" stroke-opacity="0.200000" d="M45.08,-254.06C47.84,-273.37 56.89,-318.93 83,-345 117.75,-379.7 136.89,-385 186,-385 186,-385 186,-385 255,-385 329.73,-385 355.82,-382.9 417,-340 457.79,-311.4 495.29,-265.2 512.73,-242.1"/>
<polygon fill="#000000" fill-opacity="0.200000" stroke="#000000" stroke-width="2" stroke-opacity="0.200000" points="514.62,-243.07 516.53,-237.01 511.25,-240.56 514.62,-243.07"/>
</g>
<!-- src/utils/ -->
<g id="node16" class="node">
<title>src/utils/</title>
<g id="a_node16"><a xlink:href="src/utils/" xlink:title="utils">
<polygon fill="#ffffcc" stroke="black" points="551,-414 499,-414 497,-412 497,-396 549,-396 551,-398 551,-414"/>
<polyline fill="none" stroke="black" points="549,-412 497,-412 "/>
<polyline fill="none" stroke="black" points="549,-412 549,-396 "/>
<polyline fill="none" stroke="black" points="549,-412 551,-414 "/>
<text text-anchor="start" x="515" y="-402.8" font-family="Helvetica,sans-Serif" font-size="9.00">utils</text>
</a>
</g>
</g>
<!-- src/Sej.ts&#45;&gt;src/utils/ -->
<g id="edge14" class="edge">
<title>src/Sej.ts&#45;&gt;src/utils/</title>
<path fill="none" stroke="#000000" stroke-width="2" stroke-opacity="0.200000" d="M43.63,-254.1C43.15,-279 45.39,-348.9 83,-386 116.69,-419.24 138.68,-413 186,-413 186,-413 186,-413 390,-413 424.26,-413 463.4,-410.32 490.31,-408.06"/>
<polygon fill="#000000" fill-opacity="0.200000" stroke="#000000" stroke-width="2" stroke-opacity="0.200000" points="490.73,-410.14 496.53,-407.53 490.37,-405.95 490.73,-410.14"/>
</g>
<!-- src/viewport/ -->
<g id="node17" class="node">
<title>src/viewport/</title>
<g id="a_node17"><a xlink:href="src/viewport/" xlink:title="viewport">
<polygon fill="#ffffcc" stroke="black" points="281,-232 229,-232 227,-230 227,-214 279,-214 281,-216 281,-232"/>
<polyline fill="none" stroke="black" points="279,-230 227,-230 "/>
<polyline fill="none" stroke="black" points="279,-230 279,-214 "/>
<polyline fill="none" stroke="black" points="279,-230 281,-232 "/>
<text text-anchor="start" x="237" y="-220.8" font-family="Helvetica,sans-Serif" font-size="9.00">viewport</text>
</a>
</g>
</g>
<!-- src/Sej.ts&#45;&gt;src/viewport/ -->
<g id="edge15" class="edge">
<title>src/Sej.ts&#45;&gt;src/viewport/</title>
<path fill="none" stroke="#000000" stroke-width="2" stroke-opacity="0.200000" d="M70.05,-242.26C108.25,-238.24 179.4,-230.75 220.82,-226.39"/>
<polygon fill="#000000" fill-opacity="0.200000" stroke="#000000" stroke-width="2" stroke-opacity="0.200000" points="221.21,-228.46 226.95,-225.74 220.77,-224.28 221.21,-228.46"/>
</g>
<!-- src/commands/&#45;&gt;src/core/ -->
<g id="edge17" class="edge">
<title>src/commands/&#45;&gt;src/core/</title>
<path fill="none" stroke="#000000" stroke-width="2" stroke-opacity="0.200000" d="M124.3,-104.25C136.51,-117.86 159.39,-143.35 173.6,-159.18"/>
<polygon fill="#000000" fill-opacity="0.200000" stroke="#000000" stroke-width="2" stroke-opacity="0.200000" points="172.14,-160.7 177.71,-163.76 175.26,-157.89 172.14,-160.7"/>
</g>
<!-- src/commands/&#45;&gt;src/editor/ -->
<g id="edge16" class="edge">
<title>src/commands/&#45;&gt;src/editor/</title>
<path fill="none" stroke="#000000" stroke-width="2" stroke-opacity="0.200000" d="M147.27,-92.42C175.03,-92.87 216.69,-95 253,-95 253,-95 253,-95 322,-95 364.46,-95 381.28,-82.05 417,-105 426.56,-111.14 423.51,-117.68 430,-127 435.54,-134.96 442.5,-143.46 447.82,-150.58"/>
<polygon fill="#000000" fill-opacity="0.200000" stroke="#000000" stroke-width="2" stroke-opacity="0.200000" points="446.31,-152.08 451.52,-155.73 449.73,-149.63 446.31,-152.08"/>
</g>
<!-- src/controls/&#45;&gt;src/core/ -->
<g id="edge18" class="edge">
<title>src/controls/&#45;&gt;src/core/</title>
<path fill="none" stroke="#000000" stroke-width="2" stroke-opacity="0.200000" d="M299.19,-225.93C289.93,-220.17 281.07,-214.03 281,-214 258.4,-202.94 250.47,-206.07 227,-197 220.97,-194.67 214.56,-191.86 208.71,-188.92"/>
<polygon fill="#000000" fill-opacity="0.200000" stroke="#000000" stroke-width="2" stroke-opacity="0.200000" points="202.79,-183.15 196.54,-182.02 200.72,-186.8 202.79,-183.15"/>
<polyline fill="none" stroke="#000000" stroke-width="2" stroke-opacity="0.200000" points="201.76,-184.98 204.37,-186.46 "/>
<ellipse fill="none" stroke="#000000" stroke-width="2" stroke-opacity="0.200000" cx="206.45" cy="-187.64" rx="2.4" ry="2.4"/>
</g>
<!-- src/controls/&#45;&gt;src/debugger/ -->
<g id="edge19" class="edge">
<title>src/controls/&#45;&gt;src/debugger/</title>
<path fill="none" stroke="#000000" stroke-width="2" stroke-opacity="0.200000" d="M348.08,-227.82C348.22,-227.81 348.35,-227.79 348.48,-227.77"/>
<polygon fill="#000000" fill-opacity="0.200000" stroke="#000000" stroke-width="2" stroke-opacity="0.200000" points="355.06,-229.18 360.8,-226.45 354.61,-225 355.06,-229.18"/>
<polyline fill="none" stroke="#000000" stroke-width="2" stroke-opacity="0.200000" points="354.84,-227.09 351.86,-227.41 "/>
<ellipse fill="none" stroke="#000000" stroke-width="2" stroke-opacity="0.200000" cx="349.47" cy="-227.66" rx="2.4" ry="2.4"/>
</g>
<!-- src/core/&#45;&gt;src/controls/ -->
<g id="edge20" class="edge">
<title>src/core/&#45;&gt;src/controls/</title>
<path fill="none" stroke="#000000" stroke-width="2" stroke-opacity="0.200000" d="M214.24,-179.74C218.47,-181.54 222.83,-183.39 227,-185 250.47,-194.07 258.4,-190.94 281,-202 281.08,-202.04 291.26,-209.09 301.2,-216.77"/>
<polygon fill="#000000" fill-opacity="0.200000" stroke="#000000" stroke-width="2" stroke-opacity="0.200000" points="306.16,-223.54 312.13,-225.71 308.82,-220.28 306.16,-223.54"/>
<polyline fill="none" stroke="#000000" stroke-width="2" stroke-opacity="0.200000" points="307.49,-221.91 305.16,-220.01 "/>
<ellipse fill="none" stroke="#000000" stroke-width="2" stroke-opacity="0.200000" cx="303.3" cy="-218.49" rx="2.4" ry="2.4"/>
</g>
<!-- src/core/&#45;&gt;src/editor/ -->
<g id="edge21" class="edge">
<title>src/core/&#45;&gt;src/editor/</title>
<path fill="none" stroke="#000000" stroke-width="2" stroke-opacity="0.200000" d="M214.41,-164.06C218.62,-163.59 222.92,-163.24 227,-163 293.12,-159.04 370.14,-158.54 415.89,-160.33"/>
<polygon fill="#000000" fill-opacity="0.200000" stroke="#000000" stroke-width="2" stroke-opacity="0.200000" points="423.78,-162.81 429.87,-161 423.98,-158.61 423.78,-162.81"/>
<polyline fill="none" stroke="#000000" stroke-width="2" stroke-opacity="0.200000" points="423.88,-160.71 420.88,-160.57 "/>
<ellipse fill="none" stroke="#000000" stroke-width="2" stroke-opacity="0.200000" cx="418.48" cy="-160.45" rx="2.4" ry="2.4"/>
</g>
<!-- src/core/&#45;&gt;src/renderer/ -->
<g id="edge22" class="edge">
<title>src/core/&#45;&gt;src/renderer/</title>
<path fill="none" stroke="#000000" stroke-width="2" stroke-opacity="0.200000" d="M214.1,-168.81C232.76,-168.56 258.47,-169.85 281,-172 327.69,-176.45 381.04,-184.15 416.44,-190.9"/>
<polygon fill="#000000" fill-opacity="0.200000" stroke="#000000" stroke-width="2" stroke-opacity="0.200000" points="423.69,-194.51 429.99,-193.63 424.52,-190.39 423.69,-194.51"/>
<polyline fill="none" stroke="#000000" stroke-width="2" stroke-opacity="0.200000" points="424.11,-192.45 421.16,-191.85 "/>
<ellipse fill="none" stroke="#000000" stroke-width="2" stroke-opacity="0.200000" cx="418.81" cy="-191.38" rx="2.4" ry="2.4"/>
</g>
<!-- src/core/&#45;&gt;src/viewport/ -->
<g id="edge23" class="edge">
<title>src/core/&#45;&gt;src/viewport/</title>
<path fill="none" stroke="#000000" stroke-width="2" stroke-opacity="0.200000" d="M205.23,-182.05C211.93,-187.2 219.73,-193.51 227,-199 229.74,-201.06 232.68,-203.19 235.58,-205.32"/>
<polygon fill="#000000" fill-opacity="0.200000" stroke="#000000" stroke-width="2" stroke-opacity="0.200000" points="240.47,-211.82 246.49,-213.86 243.06,-208.51 240.47,-211.82"/>
<polyline fill="none" stroke="#000000" stroke-width="2" stroke-opacity="0.200000" points="241.76,-210.16 239.4,-208.31 "/>
<ellipse fill="none" stroke="#000000" stroke-width="2" stroke-opacity="0.200000" cx="237.51" cy="-206.83" rx="2.4" ry="2.4"/>
</g>
<!-- src/debugger/&#45;&gt;src/controls/ -->
<g id="edge26" class="edge">
<title>src/debugger/&#45;&gt;src/controls/</title>
<path fill="none" stroke="#000000" stroke-width="2" stroke-opacity="0.200000" d="M360.8,-235.32C358.7,-235.59 356.57,-235.84 354.44,-236.06"/>
<polygon fill="#000000" fill-opacity="0.200000" stroke="#000000" stroke-width="2" stroke-opacity="0.200000" points="353.87,-234 348.08,-236.64 354.25,-238.18 353.87,-234"/>
</g>
<!-- src/debugger/&#45;&gt;src/core/ -->
<g id="edge24" class="edge">
<title>src/debugger/&#45;&gt;src/core/</title>
<path fill="none" stroke="#000000" stroke-width="2" stroke-opacity="0.200000" d="M364.04,-218.99C342.52,-211.13 309.96,-199.8 281,-192 263.77,-187.36 244.48,-183.25 227.95,-180.04"/>
<polygon fill="#000000" fill-opacity="0.200000" stroke="#000000" stroke-width="2" stroke-opacity="0.200000" points="220.54,-176.52 214.26,-177.47 219.77,-180.64 220.54,-176.52"/>
<polyline fill="none" stroke="#000000" stroke-width="2" stroke-opacity="0.200000" points="220.15,-178.58 223.1,-179.13 "/>
<ellipse fill="none" stroke="#000000" stroke-width="2" stroke-opacity="0.200000" cx="225.46" cy="-179.58" rx="2.4" ry="2.4"/>
</g>
<!-- src/debugger/&#45;&gt;src/editor/ -->
<g id="edge27" class="edge">
<title>src/debugger/&#45;&gt;src/editor/</title>
<path fill="none" stroke="#000000" stroke-width="2" stroke-opacity="0.200000" d="M394.78,-218.95C402.13,-208.85 416.76,-193.34 430,-181 430.91,-180.15 431.84,-179.3 432.79,-178.44"/>
<polygon fill="#000000" fill-opacity="0.200000" stroke="#000000" stroke-width="2" stroke-opacity="0.200000" points="434.48,-179.76 437.62,-174.23 431.72,-176.59 434.48,-179.76"/>
</g>
<!-- src/debugger/&#45;&gt;src/renderer/ -->
<g id="edge25" class="edge">
<title>src/debugger/&#45;&gt;src/renderer/</title>
<path fill="none" stroke="#000000" stroke-width="2" stroke-opacity="0.200000" d="M413.08,-218.91C415.28,-218.04 417.54,-217.15 419.83,-216.25"/>
<polygon fill="#000000" fill-opacity="0.200000" stroke="#000000" stroke-width="2" stroke-opacity="0.200000" points="428.01,-215.29 432.82,-211.13 426.47,-211.38 428.01,-215.29"/>
<polyline fill="none" stroke="#000000" stroke-width="2" stroke-opacity="0.200000" points="427.24,-213.33 424.44,-214.43 "/>
<ellipse fill="none" stroke="#000000" stroke-width="2" stroke-opacity="0.200000" cx="422.21" cy="-215.31" rx="2.4" ry="2.4"/>
</g>
<!-- src/editor/&#45;&gt;src/commands/ -->
<g id="edge35" class="edge">
<title>src/editor/&#45;&gt;src/commands/</title>
<path fill="none" stroke="#000000" stroke-width="2" stroke-opacity="0.200000" d="M443.09,-155.72C438.76,-150.8 434.01,-144.76 430,-139 423.51,-129.68 426.56,-123.14 417,-117 381.28,-94.05 364.46,-107 322,-107 253,-107 253,-107 253,-107 219.25,-107 180.86,-105.16 153.32,-102.5"/>
<polygon fill="#000000" fill-opacity="0.200000" stroke="#000000" stroke-width="2" stroke-opacity="0.200000" points="153.45,-100.4 147.27,-101.88 153.03,-104.58 153.45,-100.4"/>
</g>
<!-- src/editor/&#45;&gt;src/core/ -->
<g id="edge28" class="edge">
<title>src/editor/&#45;&gt;src/core/</title>
<path fill="none" stroke="#000000" stroke-width="2" stroke-opacity="0.200000" d="M429.87,-168.47C389.61,-170.36 309.64,-170.58 228.27,-175.1"/>
<polygon fill="#000000" fill-opacity="0.200000" stroke="#000000" stroke-width="2" stroke-opacity="0.200000" points="220.28,-173.46 214.41,-175.91 220.52,-177.65 220.28,-173.46"/>
<polyline fill="none" stroke="#000000" stroke-width="2" stroke-opacity="0.200000" points="220.4,-175.56 223.39,-175.38 "/>
<ellipse fill="none" stroke="#000000" stroke-width="2" stroke-opacity="0.200000" cx="225.79" cy="-175.24" rx="2.4" ry="2.4"/>
</g>
<!-- src/editor/&#45;&gt;src/debugger/ -->
<g id="edge29" class="edge">
<title>src/editor/&#45;&gt;src/debugger/</title>
<path fill="none" stroke="#000000" stroke-width="2" stroke-opacity="0.200000" d="M450.29,-174.21C444.93,-179.92 436.75,-186.71 430,-193 424.56,-198.07 418.88,-203.68 413.57,-208.93"/>
<polygon fill="#000000" fill-opacity="0.200000" stroke="#000000" stroke-width="2" stroke-opacity="0.200000" points="406.19,-213.21 403.38,-218.91 409.13,-216.21 406.19,-213.21"/>
<polyline fill="none" stroke="#000000" stroke-width="2" stroke-opacity="0.200000" points="407.66,-214.71 409.81,-212.61 "/>
<ellipse fill="none" stroke="#000000" stroke-width="2" stroke-opacity="0.200000" cx="411.52" cy="-210.93" rx="2.4" ry="2.4"/>
</g>
<!-- src/editor/&#45;&gt;src/gis/ -->
<g id="edge30" class="edge">
<title>src/editor/&#45;&gt;src/gis/</title>
<path fill="none" stroke="#000000" stroke-width="2" stroke-opacity="0.200000" d="M472.1,-174.1C476.53,-177.63 481.04,-182.02 484,-187 486.24,-190.77 511.21,-315.67 519.98,-359.77"/>
<polygon fill="#000000" fill-opacity="0.200000" stroke="#000000" stroke-width="2" stroke-opacity="0.200000" points="517.97,-360.42 521.19,-365.89 522.08,-359.6 517.97,-360.42"/>
</g>
<!-- src/editor/&#45;&gt;src/history/ -->
<g id="edge31" class="edge">
<title>src/editor/&#45;&gt;src/history/</title>
<path fill="none" stroke="#000000" stroke-width="2" stroke-opacity="0.200000" d="M461.1,-155.65C466.16,-144.23 476.89,-125.27 492.72,-106.51"/>
<polygon fill="#000000" fill-opacity="0.200000" stroke="#000000" stroke-width="2" stroke-opacity="0.200000" points="499.58,-102.03 502.03,-96.16 496.46,-99.22 499.58,-102.03"/>
<polyline fill="none" stroke="#000000" stroke-width="2" stroke-opacity="0.200000" points="498.02,-100.62 496.01,-102.85 "/>
<ellipse fill="none" stroke="#000000" stroke-width="2" stroke-opacity="0.200000" cx="494.41" cy="-104.64" rx="2.4" ry="2.4"/>
</g>
<!-- src/editor/&#45;&gt;src/loader/ -->
<g id="edge32" class="edge">
<title>src/editor/&#45;&gt;src/loader/</title>
<path fill="none" stroke="#000000" stroke-width="2" stroke-opacity="0.200000" d="M467.04,-155.79C474.95,-149.47 486.84,-141.22 497.63,-134.38"/>
<polygon fill="#000000" fill-opacity="0.200000" stroke="#000000" stroke-width="2" stroke-opacity="0.200000" points="498.83,-136.11 502.81,-131.16 496.61,-132.54 498.83,-136.11"/>
</g>
<!-- src/editor/&#45;&gt;src/selector/ -->
<g id="edge33" class="edge">
<title>src/editor/&#45;&gt;src/selector/</title>
<path fill="none" stroke="#000000" stroke-width="2" stroke-opacity="0.200000" d="M484.06,-156.97C484.2,-156.95 484.33,-156.93 484.46,-156.91"/>
<polygon fill="#000000" fill-opacity="0.200000" stroke="#000000" stroke-width="2" stroke-opacity="0.200000" points="491.27,-158.09 496.93,-155.19 490.7,-153.93 491.27,-158.09"/>
<polyline fill="none" stroke="#000000" stroke-width="2" stroke-opacity="0.200000" points="490.99,-156.01 488.01,-156.42 "/>
<ellipse fill="none" stroke="#000000" stroke-width="2" stroke-opacity="0.200000" cx="485.64" cy="-156.74" rx="2.4" ry="2.4"/>
</g>
<!-- src/editor/&#45;&gt;src/spatial/ -->
<g id="edge34" class="edge">
<title>src/editor/&#45;&gt;src/spatial/</title>
<path fill="none" stroke="#000000" stroke-width="2" stroke-opacity="0.200000" d="M469.36,-174.16C474,-178.02 479.36,-182.62 484,-187 491.23,-193.82 498.83,-201.65 505.39,-208.63"/>
<polygon fill="#000000" fill-opacity="0.200000" stroke="#000000" stroke-width="2" stroke-opacity="0.200000" points="509.29,-215.95 514.9,-218.93 512.37,-213.1 509.29,-215.95"/>
<polyline fill="none" stroke="#000000" stroke-width="2" stroke-opacity="0.200000" points="510.83,-214.52 508.79,-212.32 "/>
<ellipse fill="none" stroke="#000000" stroke-width="2" stroke-opacity="0.200000" cx="507.17" cy="-210.56" rx="2.4" ry="2.4"/>
</g>
<!-- src/editor/&#45;&gt;src/utils/ -->
<g id="edge36" class="edge">
<title>src/editor/&#45;&gt;src/utils/</title>
<path fill="none" stroke="#000000" stroke-width="2" stroke-opacity="0.200000" d="M472.78,-174.1C477.15,-177.57 481.45,-181.93 484,-187 504.32,-227.38 473.15,-351.6 497,-390 497.36,-390.58 497.75,-391.13 498.16,-391.67"/>
<polygon fill="#000000" fill-opacity="0.200000" stroke="#000000" stroke-width="2" stroke-opacity="0.200000" points="496.77,-393.25 502.51,-395.99 499.73,-390.27 496.77,-393.25"/>
</g>
<!-- src/factory/&#45;&gt;src/controls/ -->
<g id="edge37" class="edge">
<title>src/factory/&#45;&gt;src/controls/</title>
<path fill="none" stroke="#000000" stroke-width="2" stroke-opacity="0.200000" d="M142.25,-281.95C175.02,-275.43 232.63,-263.2 281,-249 284.11,-248.09 287.33,-247.06 290.52,-246"/>
<polygon fill="#000000" fill-opacity="0.200000" stroke="#000000" stroke-width="2" stroke-opacity="0.200000" points="291.23,-247.97 296.22,-244.04 289.87,-244 291.23,-247.97"/>
</g>
<!-- src/factory/&#45;&gt;src/core/ -->
<g id="edge38" class="edge">
<title>src/factory/&#45;&gt;src/core/</title>
<path fill="none" stroke="#000000" stroke-width="2" stroke-opacity="0.200000" d="M121.73,-277.67C133.94,-257.78 162.61,-211.1 177.17,-187.38"/>
<polygon fill="#000000" fill-opacity="0.200000" stroke="#000000" stroke-width="2" stroke-opacity="0.200000" points="179.04,-188.35 180.39,-182.14 175.46,-186.15 179.04,-188.35"/>
</g>
<!-- src/factory/&#45;&gt;src/debugger/ -->
<g id="edge39" class="edge">
<title>src/factory/&#45;&gt;src/debugger/</title>
<path fill="none" stroke="#000000" stroke-width="2" stroke-opacity="0.200000" d="M142.06,-288.96C194.93,-292.5 312.75,-298.02 348,-280 363.34,-272.16 374.52,-255.43 381.09,-243.05"/>
<polygon fill="#000000" fill-opacity="0.200000" stroke="#000000" stroke-width="2" stroke-opacity="0.200000" points="383.13,-243.69 383.95,-237.39 379.37,-241.8 383.13,-243.69"/>
</g>
<!-- src/factory/&#45;&gt;src/editor/ -->
<g id="edge40" class="edge">
<title>src/factory/&#45;&gt;src/editor/</title>
<path fill="none" stroke="#000000" stroke-width="2" stroke-opacity="0.200000" d="M142.45,-292.32C148.22,-293.34 154.3,-294.3 160,-295 201.11,-300.05 211.58,-301 253,-301 253,-301 253,-301 322,-301 349.29,-301 401.31,-265.67 417,-243 431.54,-221.99 416.68,-208.81 430,-187 431.89,-183.91 434.36,-181.04 437.03,-178.46"/>
<polygon fill="#000000" fill-opacity="0.200000" stroke="#000000" stroke-width="2" stroke-opacity="0.200000" points="438.83,-179.67 441.97,-174.15 436.07,-176.51 438.83,-179.67"/>
</g>
<!-- src/factory/&#45;&gt;src/gis/ -->
<g id="edge44" class="edge">
<title>src/factory/&#45;&gt;src/gis/</title>
<path fill="none" stroke="#000000" stroke-width="2" stroke-opacity="0.200000" d="M142.08,-295.97C143.86,-297.16 145.53,-298.5 147,-300 158.02,-311.27 147.5,-323.39 160,-333 259.6,-409.56 422.31,-392.81 490.9,-381.29"/>
<polygon fill="#000000" fill-opacity="0.200000" stroke="#000000" stroke-width="2" stroke-opacity="0.200000" points="491.3,-383.36 496.85,-380.27 490.58,-379.22 491.3,-383.36"/>
</g>
<!-- src/factory/&#45;&gt;src/loader/ -->
<g id="edge41" class="edge">
<title>src/factory/&#45;&gt;src/loader/</title>
<path fill="none" stroke="#000000" stroke-width="2" stroke-opacity="0.200000" d="M140.18,-296.04C142.55,-297.25 144.87,-298.57 147,-300 153.78,-304.55 152.57,-309.59 160,-313 211.92,-336.81 367.14,-343.86 417,-316 463.38,-290.08 464.19,-266.3 484,-217 496.78,-185.2 478.96,-170.13 497,-141 498.25,-138.98 499.8,-137.11 501.52,-135.39"/>
<polygon fill="#000000" fill-opacity="0.200000" stroke="#000000" stroke-width="2" stroke-opacity="0.200000" points="503.2,-136.71 506.37,-131.2 500.46,-133.53 503.2,-136.71"/>
</g>
<!-- src/factory/&#45;&gt;src/renderer/ -->
<g id="edge42" class="edge">
<title>src/factory/&#45;&gt;src/renderer/</title>
<path fill="none" stroke="#000000" stroke-width="2" stroke-opacity="0.200000" d="M137.79,-296.07C148.23,-300.38 158.75,-304.68 160,-305 200.3,-315.19 211.43,-315 253,-315 253,-315 253,-315 322,-315 364.46,-315 383.38,-330.92 417,-305 444.56,-283.75 452.65,-240.64 455.02,-217.5"/>
<polygon fill="#000000" fill-opacity="0.200000" stroke="#000000" stroke-width="2" stroke-opacity="0.200000" points="457.13,-217.44 455.57,-211.28 452.95,-217.07 457.13,-217.44"/>
</g>
<!-- src/factory/&#45;&gt;src/viewport/ -->
<g id="edge43" class="edge">
<title>src/factory/&#45;&gt;src/viewport/</title>
<path fill="none" stroke="#000000" stroke-width="2" stroke-opacity="0.200000" d="M135.34,-277.97C159.58,-266.64 201.17,-247.21 227.86,-234.74"/>
<polygon fill="#000000" fill-opacity="0.200000" stroke="#000000" stroke-width="2" stroke-opacity="0.200000" points="228.77,-236.64 233.32,-232.2 226.99,-232.83 228.77,-236.64"/>
</g>
<!-- src/history/&#45;&gt;src/commands/ -->
<g id="edge45" class="edge">
<title>src/history/&#45;&gt;src/commands/</title>
<path fill="none" stroke="#000000" stroke-width="2" stroke-opacity="0.200000" d="M518.08,-77.73C511.77,-66.88 499.73,-49.33 484,-41 446.87,-21.35 432.01,-31 390,-31 253,-31 253,-31 253,-31 210.31,-31 197.56,-34.72 160,-55 150.11,-60.34 140.68,-68.37 133.1,-75.84"/>
<polygon fill="#000000" fill-opacity="0.200000" stroke="#000000" stroke-width="2" stroke-opacity="0.200000" points="126.09,-80.19 123.49,-86 129.14,-83.08 126.09,-80.19"/>
<polyline fill="none" stroke="#000000" stroke-width="2" stroke-opacity="0.200000" points="127.61,-81.64 129.67,-79.46 "/>
<ellipse fill="none" stroke="#000000" stroke-width="2" stroke-opacity="0.200000" cx="131.32" cy="-77.72" rx="2.4" ry="2.4"/>
</g>
<!-- src/history/&#45;&gt;src/core/ -->
<g id="edge46" class="edge">
<title>src/history/&#45;&gt;src/core/</title>
<path fill="none" stroke="#000000" stroke-width="2" stroke-opacity="0.200000" d="M496.5,-87C469.66,-87 426.94,-87 390,-87 320,-87 320,-87 320,-87 275.52,-87 262.72,-97.48 227,-124 216.8,-131.57 207.78,-142.45 201,-152.03"/>
<polygon fill="#000000" fill-opacity="0.200000" stroke="#000000" stroke-width="2" stroke-opacity="0.200000" points="194.76,-157.69 193.22,-163.86 198.27,-159.99 194.76,-157.69"/>
<polyline fill="none" stroke="#000000" stroke-width="2" stroke-opacity="0.200000" points="196.52,-158.84 198.16,-156.33 "/>
<ellipse fill="none" stroke="#000000" stroke-width="2" stroke-opacity="0.200000" cx="199.48" cy="-154.33" rx="2.4" ry="2.4"/>
</g>
<!-- src/history/&#45;&gt;src/editor/ -->
<g id="edge47" class="edge">
<title>src/history/&#45;&gt;src/editor/</title>
<path fill="none" stroke="#000000" stroke-width="2" stroke-opacity="0.200000" d="M516.1,-96.23C510.56,-101.13 502.77,-106.85 497,-113 488.11,-122.48 479.83,-134.17 473.21,-144.13"/>
<polygon fill="#000000" fill-opacity="0.200000" stroke="#000000" stroke-width="2" stroke-opacity="0.200000" points="467.07,-149.72 465.55,-155.9 470.59,-152.02 467.07,-149.72"/>
<polyline fill="none" stroke="#000000" stroke-width="2" stroke-opacity="0.200000" points="468.83,-150.87 470.46,-148.36 "/>
<ellipse fill="none" stroke="#000000" stroke-width="2" stroke-opacity="0.200000" cx="471.77" cy="-146.35" rx="2.4" ry="2.4"/>
</g>
<!-- src/loader/&#45;&gt;src/commands/ -->
<g id="edge49" class="edge">
<title>src/loader/&#45;&gt;src/commands/</title>
<path fill="none" stroke="#000000" stroke-width="2" stroke-opacity="0.200000" d="M508.93,-112.89C489.25,-100.64 451.96,-79.21 417,-69 376.25,-57.09 364.46,-59 322,-59 253,-59 253,-59 253,-59 213.68,-59 170.02,-73.05 142.8,-83.59"/>
<polygon fill="#000000" fill-opacity="0.200000" stroke="#000000" stroke-width="2" stroke-opacity="0.200000" points="141.72,-81.76 136.91,-85.92 143.26,-85.67 141.72,-81.76"/>
</g>
<!-- src/loader/&#45;&gt;src/core/ -->
<g id="edge48" class="edge">
<title>src/loader/&#45;&gt;src/core/</title>
<path fill="none" stroke="#000000" stroke-width="2" stroke-opacity="0.200000" d="M496.99,-118.97C444.12,-113.84 321.15,-107.21 227,-143 217.4,-146.65 208.21,-153.49 201.17,-159.72"/>
<polygon fill="#000000" fill-opacity="0.200000" stroke="#000000" stroke-width="2" stroke-opacity="0.200000" points="199.64,-158.27 196.66,-163.89 202.49,-161.36 199.64,-158.27"/>
</g>
<!-- src/loader/&#45;&gt;src/editor/ -->
<g id="edge50" class="edge">
<title>src/loader/&#45;&gt;src/editor/</title>
<path fill="none" stroke="#000000" stroke-width="2" stroke-opacity="0.200000" d="M514.2,-131.02C506.31,-137.35 494.32,-145.68 483.44,-152.58"/>
<polygon fill="#000000" fill-opacity="0.200000" stroke="#000000" stroke-width="2" stroke-opacity="0.200000" points="482.19,-150.88 478.21,-155.83 484.41,-154.44 482.19,-150.88"/>
</g>
<!-- src/renderer/&#45;&gt;src/core/ -->
<g id="edge51" class="edge">
<title>src/renderer/&#45;&gt;src/core/</title>
<path fill="none" stroke="#000000" stroke-width="2" stroke-opacity="0.200000" d="M429.99,-201.86C395.87,-198.33 334.12,-189.06 281,-184 263.66,-182.35 244.44,-181.2 228,-179.98"/>
<polygon fill="#000000" fill-opacity="0.200000" stroke="#000000" stroke-width="2" stroke-opacity="0.200000" points="220.25,-177.24 214.1,-178.85 219.91,-181.43 220.25,-177.24"/>
<polyline fill="none" stroke="#000000" stroke-width="2" stroke-opacity="0.200000" points="220.08,-179.33 223.07,-179.58 "/>
<ellipse fill="none" stroke="#000000" stroke-width="2" stroke-opacity="0.200000" cx="225.46" cy="-179.77" rx="2.4" ry="2.4"/>
</g>
<!-- src/selector/&#45;&gt;src/core/ -->
<g id="edge52" class="edge">
<title>src/selector/&#45;&gt;src/core/</title>
<path fill="none" stroke="#000000" stroke-width="2" stroke-opacity="0.200000" d="M496.6,-151.65C492.4,-151.04 488.08,-150.47 484,-150 442.38,-145.26 431.89,-143 390,-143 320,-143 320,-143 320,-143 287.68,-143 251.99,-151.66 225.88,-159.67"/>
<polygon fill="#000000" fill-opacity="0.200000" stroke="#000000" stroke-width="2" stroke-opacity="0.200000" points="217.51,-160.16 212.44,-164 218.79,-164.16 217.51,-160.16"/>
<polyline fill="none" stroke="#000000" stroke-width="2" stroke-opacity="0.200000" points="218.15,-162.16 221,-161.24 "/>
<ellipse fill="none" stroke="#000000" stroke-width="2" stroke-opacity="0.200000" cx="223.29" cy="-160.51" rx="2.4" ry="2.4"/>
</g>
<!-- src/selector/&#45;&gt;src/editor/ -->
<g id="edge53" class="edge">
<title>src/selector/&#45;&gt;src/editor/</title>
<path fill="none" stroke="#000000" stroke-width="2" stroke-opacity="0.200000" d="M496.93,-164.03C496.8,-164.05 496.67,-164.07 496.53,-164.1"/>
<polygon fill="#000000" fill-opacity="0.200000" stroke="#000000" stroke-width="2" stroke-opacity="0.200000" points="489.72,-162.91 484.06,-165.81 490.29,-167.07 489.72,-162.91"/>
<polyline fill="none" stroke="#000000" stroke-width="2" stroke-opacity="0.200000" points="490.01,-164.99 492.98,-164.58 "/>
<ellipse fill="none" stroke="#000000" stroke-width="2" stroke-opacity="0.200000" cx="495.36" cy="-164.26" rx="2.4" ry="2.4"/>
</g>
<!-- src/spatial/&#45;&gt;node_modules/three&#45;spatial&#45;hash&#45;grid -->
<g id="edge55" class="edge">
<title>src/spatial/&#45;&gt;node_modules/three&#45;spatial&#45;hash&#45;grid</title>
<path fill="none" stroke="#000000" stroke-opacity="0.200000" d="M551.1,-228C556.54,-228 562.49,-228 568.6,-228"/>
<polygon fill="#000000" fill-opacity="0.200000" stroke="#000000" stroke-opacity="0.200000" points="568.76,-230.1 574.76,-228 568.76,-225.9 568.76,-230.1"/>
</g>
<!-- src/spatial/&#45;&gt;src/debugger/ -->
<g id="edge54" class="edge">
<title>src/spatial/&#45;&gt;src/debugger/</title>
<path fill="none" stroke="#000000" stroke-width="2" stroke-opacity="0.200000" d="M496.71,-228C478.04,-228 452.59,-228 431.24,-228"/>
<polygon fill="#000000" fill-opacity="0.200000" stroke="#000000" stroke-width="2" stroke-opacity="0.200000" points="423.24,-225.9 417.24,-228 423.24,-230.1 423.24,-225.9"/>
<polyline fill="none" stroke="#000000" stroke-width="2" stroke-opacity="0.200000" points="423.24,-228 426.24,-228 "/>
<ellipse fill="none" stroke="#000000" stroke-width="2" stroke-opacity="0.200000" cx="428.64" cy="-228" rx="2.4" ry="2.4"/>
</g>
<!-- src/viewport/&#45;&gt;src/controls/ -->
<g id="edge60" class="edge">
<title>src/viewport/&#45;&gt;src/controls/</title>
<path fill="none" stroke="#000000" stroke-width="2" stroke-opacity="0.200000" d="M281.06,-227.81C283.32,-228.23 285.61,-228.65 287.9,-229.07"/>
<polygon fill="#000000" fill-opacity="0.200000" stroke="#000000" stroke-width="2" stroke-opacity="0.200000" points="287.65,-231.16 293.93,-230.19 288.41,-227.03 287.65,-231.16"/>
</g>
<!-- src/viewport/&#45;&gt;src/core/ -->
<g id="edge56" class="edge">
<title>src/viewport/&#45;&gt;src/core/</title>
<path fill="none" stroke="#000000" stroke-width="2" stroke-opacity="0.200000" d="M231.06,-213.99C229.68,-213 228.31,-211.99 227,-211 219.11,-205.05 210.6,-198.13 203.55,-191.73"/>
<polygon fill="#000000" fill-opacity="0.200000" stroke="#000000" stroke-width="2" stroke-opacity="0.200000" points="199.45,-184.75 193.7,-182.04 196.5,-187.74 199.45,-184.75"/>
<polyline fill="none" stroke="#000000" stroke-width="2" stroke-opacity="0.200000" points="197.97,-186.25 200.11,-188.35 "/>
<ellipse fill="none" stroke="#000000" stroke-width="2" stroke-opacity="0.200000" cx="201.82" cy="-190.03" rx="2.4" ry="2.4"/>
</g>
<!-- src/viewport/&#45;&gt;src/editor/ -->
<g id="edge57" class="edge">
<title>src/viewport/&#45;&gt;src/editor/</title>
<path fill="none" stroke="#000000" stroke-width="2" stroke-opacity="0.200000" d="M281.37,-214.01C285.59,-212.63 289.9,-211.25 294,-210 335.46,-197.34 383.34,-184.22 416.24,-175.44"/>
<polygon fill="#000000" fill-opacity="0.200000" stroke="#000000" stroke-width="2" stroke-opacity="0.200000" points="424.53,-175.41 429.79,-171.84 423.45,-171.35 424.53,-175.41"/>
<polyline fill="none" stroke="#000000" stroke-width="2" stroke-opacity="0.200000" points="423.99,-173.38 421.09,-174.15 "/>
<ellipse fill="none" stroke="#000000" stroke-width="2" stroke-opacity="0.200000" cx="418.77" cy="-174.77" rx="2.4" ry="2.4"/>
</g>
<!-- src/viewport/&#45;&gt;src/optimizer/ -->
<g id="edge58" class="edge">
<title>src/viewport/&#45;&gt;src/optimizer/</title>
<path fill="none" stroke="#000000" stroke-width="2" stroke-opacity="0.200000" d="M267.47,-232.02C275.04,-237.4 284.95,-244.27 294,-250 295.44,-250.91 296.95,-251.84 298.47,-252.76"/>
<polygon fill="#000000" fill-opacity="0.200000" stroke="#000000" stroke-width="2" stroke-opacity="0.200000" points="297.42,-254.58 303.65,-255.84 299.56,-250.97 297.42,-254.58"/>
</g>
<!-- src/viewport/&#45;&gt;src/renderer/ -->
<g id="edge59" class="edge">
<title>src/viewport/&#45;&gt;src/renderer/</title>
<path fill="none" stroke="#000000" stroke-width="2" stroke-opacity="0.200000" d="M281.28,-220.25C315.59,-216.67 375.97,-210.36 415.98,-206.18"/>
<polygon fill="#000000" fill-opacity="0.200000" stroke="#000000" stroke-width="2" stroke-opacity="0.200000" points="423.97,-207.46 429.72,-204.75 423.53,-203.28 423.97,-207.46"/>
<polyline fill="none" stroke="#000000" stroke-width="2" stroke-opacity="0.200000" points="423.75,-205.37 420.77,-205.68 "/>
<ellipse fill="none" stroke="#000000" stroke-width="2" stroke-opacity="0.200000" cx="418.38" cy="-205.93" rx="2.4" ry="2.4"/>
</g>
</g>
</svg>
