<?xml version="1.0" encoding="UTF-8" standalone="no"?>
<!DOCTYPE svg PUBLIC "-//W3C//DTD SVG 1.1//EN"
 "http://www.w3.org/Graphics/SVG/1.1/DTD/svg11.dtd">
<!-- Generated by graphviz version 2.50.0 (20211204.2007)
 -->
<!-- Title: dependency&#45;cruiser output Pages: 1 -->
<svg width="573pt" height="456pt"
 viewBox="0.00 0.00 573.00 456.00" xmlns="http://www.w3.org/2000/svg" xmlns:xlink="http://www.w3.org/1999/xlink">
<g id="graph0" class="graph" transform="scale(1 1) rotate(0) translate(4 452)">
<title>dependency&#45;cruiser output</title>
<polygon fill="white" stroke="transparent" points="-4,4 -4,-452 569,-452 569,4 -4,4"/>
<g id="clust1" class="cluster">
<title>cluster_src</title>
<path fill="#ffffff" stroke="black" stroke-width="2" d="M20,-8C20,-8 545,-8 545,-8 551,-8 557,-14 557,-20 557,-20 557,-428 557,-428 557,-434 551,-440 545,-440 545,-440 20,-440 20,-440 14,-440 8,-434 8,-428 8,-428 8,-20 8,-20 8,-14 14,-8 20,-8"/>
<text text-anchor="middle" x="282.5" y="-428.8" font-family="Helvetica,sans-Serif" font-weight="bold" font-size="9.00">src</text>
</g>
<!-- src/Sej.ts -->
<g id="node1" class="node">
<title>src/Sej.ts</title>
<g id="a_node1"><a xlink:href="src/Sej.ts" xlink:title="Sej.ts">
<path fill="#ddfeff" stroke="black" d="M64,-254C64,-254 22,-254 22,-254 19,-254 16,-251 16,-248 16,-248 16,-242 16,-242 16,-239 19,-236 22,-236 22,-236 64,-236 64,-236 67,-236 70,-239 70,-242 70,-242 70,-248 70,-248 70,-251 67,-254 64,-254"/>
<text text-anchor="start" x="31.5" y="-242.8" font-family="Helvetica,sans-Serif" font-size="9.00">Sej.ts</text>
</a>
</g>
</g>
<!-- src/commands/ -->
<g id="node2" class="node">
<title>src/commands/</title>
<g id="a_node2"><a xlink:href="src/commands/" xlink:title="commands">
<polygon fill="#ffffcc" stroke="black" points="145,-104 85,-104 83,-102 83,-86 143,-86 145,-88 145,-104"/>
<polyline fill="none" stroke="black" points="143,-102 83,-102 "/>
<polyline fill="none" stroke="black" points="143,-102 143,-86 "/>
<polyline fill="none" stroke="black" points="143,-102 145,-104 "/>
<text text-anchor="start" x="91" y="-92.8" font-family="Helvetica,sans-Serif" font-size="9.00">commands</text>
</a>
</g>
</g>
<!-- src/Sej.ts&#45;&gt;src/commands/ -->
<g id="edge1" class="edge">
<title>src/Sej.ts&#45;&gt;src/commands/</title>
<path fill="none" stroke="#000000" stroke-width="2" stroke-opacity="0.200000" d="M44.46,-235.98C46.04,-213.08 53.01,-151.73 83,-113 84.42,-111.16 86.09,-109.47 87.9,-107.93"/>
<polygon fill="#000000" fill-opacity="0.200000" stroke="#000000" stroke-width="2" stroke-opacity="0.200000" points="89.38,-109.44 92.93,-104.17 86.87,-106.07 89.38,-109.44"/>
</g>
<!-- src/controls/ -->
<g id="node3" class="node">
<title>src/controls/</title>
<g id="a_node3"><a xlink:href="src/controls/" xlink:title="controls">
<polygon fill="#ffffcc" stroke="black" points="346,-244 294,-244 292,-242 292,-226 344,-226 346,-228 346,-244"/>
<polyline fill="none" stroke="black" points="344,-242 292,-242 "/>
<polyline fill="none" stroke="black" points="344,-242 344,-226 "/>
<polyline fill="none" stroke="black" points="344,-242 346,-244 "/>
<text text-anchor="start" x="302.5" y="-232.8" font-family="Helvetica,sans-Serif" font-size="9.00">controls</text>
</a>
</g>
</g>
<!-- src/Sej.ts&#45;&gt;src/controls/ -->
<g id="edge2" class="edge">
<title>src/Sej.ts&#45;&gt;src/controls/</title>
<path fill="none" stroke="#000000" stroke-width="2" stroke-opacity="0.200000" d="M70.1,-244.62C113.49,-243.91 203.19,-242.04 279,-238 281.23,-237.88 283.54,-237.74 285.86,-237.59"/>
<polygon fill="#000000" fill-opacity="0.200000" stroke="#000000" stroke-width="2" stroke-opacity="0.200000" points="286.16,-239.68 292,-237.17 285.87,-235.49 286.16,-239.68"/>
</g>
<!-- src/core/ -->
<g id="node4" class="node">
<title>src/core/</title>
<g id="a_node4"><a xlink:href="src/core/" xlink:title="core">
<polygon fill="#ffffcc" stroke="black" points="212,-182 160,-182 158,-180 158,-164 210,-164 212,-166 212,-182"/>
<polyline fill="none" stroke="black" points="210,-180 158,-180 "/>
<polyline fill="none" stroke="black" points="210,-180 210,-164 "/>
<polyline fill="none" stroke="black" points="210,-180 212,-182 "/>
<text text-anchor="start" x="175.5" y="-170.8" font-family="Helvetica,sans-Serif" font-size="9.00">core</text>
</a>
</g>
</g>
<!-- src/Sej.ts&#45;&gt;src/core/ -->
<g id="edge3" class="edge">
<title>src/Sej.ts&#45;&gt;src/core/</title>
<path fill="none" stroke="#000000" stroke-width="2" stroke-opacity="0.200000" d="M53.31,-235.95C60.85,-228.98 71.98,-219.49 83,-213 104.74,-200.2 131.35,-189.85 151.79,-182.89"/>
<polygon fill="#000000" fill-opacity="0.200000" stroke="#000000" stroke-width="2" stroke-opacity="0.200000" points="152.63,-184.82 157.66,-180.93 151.3,-180.84 152.63,-184.82"/>
</g>
<!-- src/debugger/ -->
<g id="node5" class="node">
<title>src/debugger/</title>
<g id="a_node5"><a xlink:href="src/debugger/" xlink:title="debugger">
<polygon fill="#ffffcc" stroke="black" points="415,-237 361,-237 359,-235 359,-219 413,-219 415,-221 415,-237"/>
<polyline fill="none" stroke="black" points="413,-235 359,-235 "/>
<polyline fill="none" stroke="black" points="413,-235 413,-219 "/>
<polyline fill="none" stroke="black" points="413,-235 415,-237 "/>
<text text-anchor="start" x="367" y="-225.8" font-family="Helvetica,sans-Serif" font-size="9.00">debugger</text>
</a>
</g>
</g>
<!-- src/Sej.ts&#45;&gt;src/debugger/ -->
<g id="edge4" class="edge">
<title>src/Sej.ts&#45;&gt;src/debugger/</title>
<path fill="none" stroke="#000000" stroke-width="2" stroke-opacity="0.200000" d="M47.74,-254.31C53.39,-267.13 65.35,-290 83,-302 130.83,-334.5 154.52,-325.36 212,-319 272.66,-312.29 295.81,-323.73 346,-289 362.58,-277.52 374.01,-256.72 380.28,-242.64"/>
<polygon fill="#000000" fill-opacity="0.200000" stroke="#000000" stroke-width="2" stroke-opacity="0.200000" points="382.24,-243.4 382.66,-237.06 378.38,-241.76 382.24,-243.4"/>
</g>
<!-- src/editor/ -->
<g id="node6" class="node">
<title>src/editor/</title>
<g id="a_node6"><a xlink:href="src/editor/" xlink:title="editor">
<polygon fill="#ffffcc" stroke="black" points="482,-174 430,-174 428,-172 428,-156 480,-156 482,-158 482,-174"/>
<polyline fill="none" stroke="black" points="480,-172 428,-172 "/>
<polyline fill="none" stroke="black" points="480,-172 480,-156 "/>
<polyline fill="none" stroke="black" points="480,-172 482,-174 "/>
<text text-anchor="start" x="443" y="-162.8" font-family="Helvetica,sans-Serif" font-size="9.00">editor</text>
</a>
</g>
</g>
<!-- src/Sej.ts&#45;&gt;src/editor/ -->
<g id="edge5" class="edge">
<title>src/Sej.ts&#45;&gt;src/editor/</title>
<path fill="none" stroke="#000000" stroke-width="2" stroke-opacity="0.200000" d="M47.6,-235.59C53.22,-222.03 65.32,-196.95 83,-182 135.05,-137.97 158.1,-137.13 225,-124 297.87,-109.69 384.18,-137.08 427.05,-153.66"/>
<polygon fill="#000000" fill-opacity="0.200000" stroke="#000000" stroke-width="2" stroke-opacity="0.200000" points="426.45,-155.68 432.8,-155.92 427.99,-151.77 426.45,-155.68"/>
</g>
<!-- src/factory/ -->
<g id="node7" class="node">
<title>src/factory/</title>
<g id="a_node7"><a xlink:href="src/factory/" xlink:title="factory">
<polygon fill="#ffffcc" stroke="black" points="141,-296 89,-296 87,-294 87,-278 139,-278 141,-280 141,-296"/>
<polyline fill="none" stroke="black" points="139,-294 87,-294 "/>
<polyline fill="none" stroke="black" points="139,-294 139,-278 "/>
<polyline fill="none" stroke="black" points="139,-294 141,-296 "/>
<text text-anchor="start" x="100" y="-284.8" font-family="Helvetica,sans-Serif" font-size="9.00">factory</text>
</a>
</g>
</g>
<!-- src/Sej.ts&#45;&gt;src/factory/ -->
<g id="edge6" class="edge">
<title>src/Sej.ts&#45;&gt;src/factory/</title>
<path fill="none" stroke="#000000" stroke-width="2" stroke-opacity="0.200000" d="M58.97,-254.11C68.83,-260.11 81.85,-268.04 92.65,-274.61"/>
<polygon fill="#000000" fill-opacity="0.200000" stroke="#000000" stroke-width="2" stroke-opacity="0.200000" points="91.84,-276.58 98.06,-277.9 94.02,-272.99 91.84,-276.58"/>
</g>
<!-- src/gis/ -->
<g id="node8" class="node">
<title>src/gis/</title>
<g id="a_node8"><a xlink:href="src/gis/" xlink:title="gis">
<polygon fill="#ffffcc" stroke="black" points="549,-384 497,-384 495,-382 495,-366 547,-366 549,-368 549,-384"/>
<polyline fill="none" stroke="black" points="547,-382 495,-382 "/>
<polyline fill="none" stroke="black" points="547,-382 547,-366 "/>
<polyline fill="none" stroke="black" points="547,-382 549,-384 "/>
<text text-anchor="start" x="515.5" y="-372.8" font-family="Helvetica,sans-Serif" font-size="9.00">gis</text>
</a>
</g>
</g>
<!-- src/Sej.ts&#45;&gt;src/gis/ -->
<g id="edge7" class="edge">
<title>src/Sej.ts&#45;&gt;src/gis/</title>
<path fill="none" stroke="#000000" stroke-width="2" stroke-opacity="0.200000" d="M44.2,-254.09C45.19,-276.51 50.88,-334.97 83,-367 116.34,-400.25 136.91,-399 184,-399 184,-399 184,-399 388,-399 430.01,-399 441.05,-398.39 482,-389 485.5,-388.2 489.13,-387.17 492.69,-386.05"/>
<polygon fill="#000000" fill-opacity="0.200000" stroke="#000000" stroke-width="2" stroke-opacity="0.200000" points="493.56,-387.97 498.59,-384.07 492.23,-383.99 493.56,-387.97"/>
</g>
<!-- src/history/ -->
<g id="node9" class="node">
<title>src/history/</title>
<g id="a_node9"><a xlink:href="src/history/" xlink:title="history">
<polygon fill="#ffffcc" stroke="black" points="549,-96 497,-96 495,-94 495,-78 547,-78 549,-80 549,-96"/>
<polyline fill="none" stroke="black" points="547,-94 495,-94 "/>
<polyline fill="none" stroke="black" points="547,-94 547,-78 "/>
<polyline fill="none" stroke="black" points="547,-94 549,-96 "/>
<text text-anchor="start" x="508" y="-84.8" font-family="Helvetica,sans-Serif" font-size="9.00">history</text>
</a>
</g>
</g>
<!-- src/Sej.ts&#45;&gt;src/history/ -->
<g id="edge8" class="edge">
<title>src/Sej.ts&#45;&gt;src/history/</title>
<path fill="none" stroke="#000000" stroke-width="2" stroke-opacity="0.200000" d="M44.43,-235.57C46.27,-198.95 54.82,-66.71 83,-38 115.11,-5.28 138.15,-17 184,-17 184,-17 184,-17 388,-17 429.93,-17 446.19,-3.19 482,-25 499.48,-35.65 510.4,-57.43 516.1,-72.12"/>
<polygon fill="#000000" fill-opacity="0.200000" stroke="#000000" stroke-width="2" stroke-opacity="0.200000" points="514.19,-73.02 518.22,-77.93 518.13,-71.58 514.19,-73.02"/>
</g>
<!-- src/loader/ -->
<g id="node10" class="node">
<title>src/loader/</title>
<g id="a_node10"><a xlink:href="src/loader/" xlink:title="loader">
<polygon fill="#ffffcc" stroke="black" points="549,-131 497,-131 495,-129 495,-113 547,-113 549,-115 549,-131"/>
<polyline fill="none" stroke="black" points="547,-129 495,-129 "/>
<polyline fill="none" stroke="black" points="547,-129 547,-113 "/>
<polyline fill="none" stroke="black" points="547,-129 549,-131 "/>
<text text-anchor="start" x="508.5" y="-119.8" font-family="Helvetica,sans-Serif" font-size="9.00">loader</text>
</a>
</g>
</g>
<!-- src/Sej.ts&#45;&gt;src/loader/ -->
<g id="edge9" class="edge">
<title>src/Sej.ts&#45;&gt;src/loader/</title>
<path fill="none" stroke="#000000" stroke-width="2" stroke-opacity="0.200000" d="M44.62,-235.66C47.06,-201.71 57.19,-85.51 83,-61 115.96,-29.71 138.55,-45 184,-45 184,-45 184,-45 388,-45 431.23,-45 449.57,-41.42 482,-70 493.52,-80.15 485.7,-89.78 495,-102 496.84,-104.42 499.05,-106.7 501.39,-108.8"/>
<polygon fill="#000000" fill-opacity="0.200000" stroke="#000000" stroke-width="2" stroke-opacity="0.200000" points="500.32,-110.64 506.3,-112.82 502.99,-107.4 500.32,-110.64"/>
</g>
<!-- src/optimizer/ -->
<g id="node11" class="node">
<title>src/optimizer/</title>
<g id="a_node11"><a xlink:href="src/optimizer/" xlink:title="optimizer">
<polygon fill="#ffffcc" stroke="black" points="346,-274 294,-274 292,-272 292,-256 344,-256 346,-258 346,-274"/>
<polyline fill="none" stroke="black" points="344,-272 292,-272 "/>
<polyline fill="none" stroke="black" points="344,-272 344,-256 "/>
<polyline fill="none" stroke="black" points="344,-272 346,-274 "/>
<text text-anchor="start" x="300" y="-262.8" font-family="Helvetica,sans-Serif" font-size="9.00">optimizer</text>
</a>
</g>
</g>
<!-- src/Sej.ts&#45;&gt;src/optimizer/ -->
<g id="edge10" class="edge">
<title>src/Sej.ts&#45;&gt;src/optimizer/</title>
<path fill="none" stroke="#000000" stroke-width="2" stroke-opacity="0.200000" d="M70.27,-246.92C120.7,-250.6 230.92,-258.64 285.72,-262.64"/>
<polygon fill="#000000" fill-opacity="0.200000" stroke="#000000" stroke-width="2" stroke-opacity="0.200000" points="285.67,-264.75 291.81,-263.09 285.98,-260.56 285.67,-264.75"/>
</g>
<!-- src/renderer/ -->
<g id="node12" class="node">
<title>src/renderer/</title>
<g id="a_node12"><a xlink:href="src/renderer/" xlink:title="renderer">
<polygon fill="#ffffcc" stroke="black" points="482,-211 430,-211 428,-209 428,-193 480,-193 482,-195 482,-211"/>
<polyline fill="none" stroke="black" points="480,-209 428,-209 "/>
<polyline fill="none" stroke="black" points="480,-209 480,-193 "/>
<polyline fill="none" stroke="black" points="480,-209 482,-211 "/>
<text text-anchor="start" x="437" y="-199.8" font-family="Helvetica,sans-Serif" font-size="9.00">renderer</text>
</a>
</g>
</g>
<!-- src/Sej.ts&#45;&gt;src/renderer/ -->
<g id="edge11" class="edge">
<title>src/Sej.ts&#45;&gt;src/renderer/</title>
<path fill="none" stroke="#000000" stroke-width="2" stroke-opacity="0.200000" d="M46.95,-254.02C52.16,-268.79 64.25,-298.35 83,-317 119.09,-352.9 133.1,-371 184,-371 184,-371 184,-371 253,-371 329.04,-371 361.17,-369.7 415,-316 442.34,-288.72 450.53,-241.49 452.97,-217.28"/>
<polygon fill="#000000" fill-opacity="0.200000" stroke="#000000" stroke-width="2" stroke-opacity="0.200000" points="455.08,-217.26 453.52,-211.09 450.9,-216.89 455.08,-217.26"/>
</g>
<!-- src/selector/ -->
<g id="node13" class="node">
<title>src/selector/</title>
<g id="a_node13"><a xlink:href="src/selector/" xlink:title="selector">
<polygon fill="#ffffcc" stroke="black" points="549,-165 497,-165 495,-163 495,-147 547,-147 549,-149 549,-165"/>
<polyline fill="none" stroke="black" points="547,-163 495,-163 "/>
<polyline fill="none" stroke="black" points="547,-163 547,-147 "/>
<polyline fill="none" stroke="black" points="547,-163 549,-165 "/>
<text text-anchor="start" x="505.5" y="-153.8" font-family="Helvetica,sans-Serif" font-size="9.00">selector</text>
</a>
</g>
</g>
<!-- src/Sej.ts&#45;&gt;src/selector/ -->
<g id="edge12" class="edge">
<title>src/Sej.ts&#45;&gt;src/selector/</title>
<path fill="none" stroke="#000000" stroke-width="2" stroke-opacity="0.200000" d="M44.78,-235.68C47.66,-203.9 58.77,-100.58 83,-80 117.3,-50.88 139,-73 184,-73 184,-73 184,-73 320,-73 363.24,-73 374.74,-78.23 415,-94 447.98,-106.92 482.8,-129.19 503.18,-143.22"/>
<polygon fill="#000000" fill-opacity="0.200000" stroke="#000000" stroke-width="2" stroke-opacity="0.200000" points="502.16,-145.07 508.29,-146.78 504.56,-141.63 502.16,-145.07"/>
</g>
<!-- src/spatial/ -->
<g id="node14" class="node">
<title>src/spatial/</title>
<g id="a_node14"><a xlink:href="src/spatial/" xlink:title="spatial">
<polygon fill="#ffffcc" stroke="black" points="549,-237 497,-237 495,-235 495,-219 547,-219 549,-221 549,-237"/>
<polyline fill="none" stroke="black" points="547,-235 495,-235 "/>
<polyline fill="none" stroke="black" points="547,-235 547,-219 "/>
<polyline fill="none" stroke="black" points="547,-235 549,-237 "/>
<text text-anchor="start" x="508" y="-225.8" font-family="Helvetica,sans-Serif" font-size="9.00">spatial</text>
</a>
</g>
</g>
<!-- src/Sej.ts&#45;&gt;src/spatial/ -->
<g id="edge13" class="edge">
<title>src/Sej.ts&#45;&gt;src/spatial/</title>
<path fill="none" stroke="#000000" stroke-width="2" stroke-opacity="0.200000" d="M45.09,-254.05C47.88,-273.33 56.98,-318.84 83,-345 117.05,-379.23 135.72,-385 184,-385 184,-385 184,-385 253,-385 327.73,-385 353.82,-382.9 415,-340 455.79,-311.4 493.29,-265.2 510.73,-242.1"/>
<polygon fill="#000000" fill-opacity="0.200000" stroke="#000000" stroke-width="2" stroke-opacity="0.200000" points="512.62,-243.07 514.53,-237.01 509.25,-240.56 512.62,-243.07"/>
</g>
<!-- src/utils/ -->
<g id="node15" class="node">
<title>src/utils/</title>
<g id="a_node15"><a xlink:href="src/utils/" xlink:title="utils">
<polygon fill="#ffffcc" stroke="black" points="549,-414 497,-414 495,-412 495,-396 547,-396 549,-398 549,-414"/>
<polyline fill="none" stroke="black" points="547,-412 495,-412 "/>
<polyline fill="none" stroke="black" points="547,-412 547,-396 "/>
<polyline fill="none" stroke="black" points="547,-412 549,-414 "/>
<text text-anchor="start" x="513.5" y="-402.8" font-family="Helvetica,sans-Serif" font-size="9.00">utils</text>
</a>
</g>
</g>
<!-- src/Sej.ts&#45;&gt;src/utils/ -->
<g id="edge14" class="edge">
<title>src/Sej.ts&#45;&gt;src/utils/</title>
<path fill="none" stroke="#000000" stroke-width="2" stroke-opacity="0.200000" d="M43.64,-254.09C43.19,-278.97 45.48,-348.81 83,-386 116,-418.71 137.53,-413 184,-413 184,-413 184,-413 388,-413 422.26,-413 461.4,-410.32 488.31,-408.06"/>
<polygon fill="#000000" fill-opacity="0.200000" stroke="#000000" stroke-width="2" stroke-opacity="0.200000" points="488.73,-410.14 494.53,-407.53 488.37,-405.95 488.73,-410.14"/>
</g>
<!-- src/viewport/ -->
<g id="node16" class="node">
<title>src/viewport/</title>
<g id="a_node16"><a xlink:href="src/viewport/" xlink:title="viewport">
<polygon fill="#ffffcc" stroke="black" points="279,-232 227,-232 225,-230 225,-214 277,-214 279,-216 279,-232"/>
<polyline fill="none" stroke="black" points="277,-230 225,-230 "/>
<polyline fill="none" stroke="black" points="277,-230 277,-214 "/>
<polyline fill="none" stroke="black" points="277,-230 279,-232 "/>
<text text-anchor="start" x="234.5" y="-220.8" font-family="Helvetica,sans-Serif" font-size="9.00">viewport</text>
</a>
</g>
</g>
<!-- src/Sej.ts&#45;&gt;src/viewport/ -->
<g id="edge15" class="edge">
<title>src/Sej.ts&#45;&gt;src/viewport/</title>
<path fill="none" stroke="#000000" stroke-width="2" stroke-opacity="0.200000" d="M70.22,-242.21C108.09,-238.19 178.04,-230.75 218.94,-226.41"/>
<polygon fill="#000000" fill-opacity="0.200000" stroke="#000000" stroke-width="2" stroke-opacity="0.200000" points="219.25,-228.49 225,-225.76 218.81,-224.31 219.25,-228.49"/>
</g>
<!-- src/commands/&#45;&gt;src/core/ -->
<g id="edge17" class="edge">
<title>src/commands/&#45;&gt;src/core/</title>
<path fill="none" stroke="#000000" stroke-width="2" stroke-opacity="0.200000" d="M123.19,-104.25C135.22,-117.86 157.77,-143.35 171.77,-159.18"/>
<polygon fill="#000000" fill-opacity="0.200000" stroke="#000000" stroke-width="2" stroke-opacity="0.200000" points="170.28,-160.66 175.82,-163.76 173.42,-157.87 170.28,-160.66"/>
</g>
<!-- src/commands/&#45;&gt;src/editor/ -->
<g id="edge16" class="edge">
<title>src/commands/&#45;&gt;src/editor/</title>
<path fill="none" stroke="#000000" stroke-width="2" stroke-opacity="0.200000" d="M145.23,-92.4C172.78,-92.83 214.6,-95 251,-95 251,-95 251,-95 320,-95 362.46,-95 379.28,-82.05 415,-105 424.56,-111.14 421.51,-117.68 428,-127 433.54,-134.96 440.5,-143.46 445.82,-150.58"/>
<polygon fill="#000000" fill-opacity="0.200000" stroke="#000000" stroke-width="2" stroke-opacity="0.200000" points="444.31,-152.08 449.52,-155.73 447.73,-149.63 444.31,-152.08"/>
</g>
<!-- src/controls/&#45;&gt;src/core/ -->
<g id="edge18" class="edge">
<title>src/controls/&#45;&gt;src/core/</title>
<path fill="none" stroke="#000000" stroke-width="2" stroke-opacity="0.200000" d="M297.19,-225.93C287.93,-220.17 279.07,-214.03 279,-214 256.4,-202.94 248.47,-206.07 225,-197 218.97,-194.67 212.56,-191.86 206.71,-188.92"/>
<polygon fill="#000000" fill-opacity="0.200000" stroke="#000000" stroke-width="2" stroke-opacity="0.200000" points="200.79,-183.15 194.54,-182.02 198.72,-186.8 200.79,-183.15"/>
<polyline fill="none" stroke="#000000" stroke-width="2" stroke-opacity="0.200000" points="199.76,-184.98 202.37,-186.46 "/>
<ellipse fill="none" stroke="#000000" stroke-width="2" stroke-opacity="0.200000" cx="204.45" cy="-187.64" rx="2.4" ry="2.4"/>
</g>
<!-- src/controls/&#45;&gt;src/debugger/ -->
<g id="edge19" class="edge">
<title>src/controls/&#45;&gt;src/debugger/</title>
<path fill="none" stroke="#000000" stroke-width="2" stroke-opacity="0.200000" d="M346.08,-227.82C346.22,-227.81 346.35,-227.79 346.48,-227.77"/>
<polygon fill="#000000" fill-opacity="0.200000" stroke="#000000" stroke-width="2" stroke-opacity="0.200000" points="353.06,-229.18 358.8,-226.45 352.61,-225 353.06,-229.18"/>
<polyline fill="none" stroke="#000000" stroke-width="2" stroke-opacity="0.200000" points="352.84,-227.09 349.86,-227.41 "/>
<ellipse fill="none" stroke="#000000" stroke-width="2" stroke-opacity="0.200000" cx="347.47" cy="-227.66" rx="2.4" ry="2.4"/>
</g>
<!-- src/core/&#45;&gt;src/controls/ -->
<g id="edge20" class="edge">
<title>src/core/&#45;&gt;src/controls/</title>
<path fill="none" stroke="#000000" stroke-width="2" stroke-opacity="0.200000" d="M212.24,-179.74C216.47,-181.54 220.83,-183.39 225,-185 248.47,-194.07 256.4,-190.94 279,-202 279.08,-202.04 289.26,-209.09 299.2,-216.77"/>
<polygon fill="#000000" fill-opacity="0.200000" stroke="#000000" stroke-width="2" stroke-opacity="0.200000" points="304.16,-223.54 310.13,-225.71 306.82,-220.28 304.16,-223.54"/>
<polyline fill="none" stroke="#000000" stroke-width="2" stroke-opacity="0.200000" points="305.49,-221.91 303.16,-220.01 "/>
<ellipse fill="none" stroke="#000000" stroke-width="2" stroke-opacity="0.200000" cx="301.3" cy="-218.49" rx="2.4" ry="2.4"/>
</g>
<!-- src/core/&#45;&gt;src/editor/ -->
<g id="edge21" class="edge">
<title>src/core/&#45;&gt;src/editor/</title>
<path fill="none" stroke="#000000" stroke-width="2" stroke-opacity="0.200000" d="M212.41,-164.06C216.62,-163.59 220.92,-163.24 225,-163 291.12,-159.04 368.14,-158.54 413.89,-160.33"/>
<polygon fill="#000000" fill-opacity="0.200000" stroke="#000000" stroke-width="2" stroke-opacity="0.200000" points="421.78,-162.81 427.87,-161 421.98,-158.61 421.78,-162.81"/>
<polyline fill="none" stroke="#000000" stroke-width="2" stroke-opacity="0.200000" points="421.88,-160.71 418.88,-160.57 "/>
<ellipse fill="none" stroke="#000000" stroke-width="2" stroke-opacity="0.200000" cx="416.48" cy="-160.45" rx="2.4" ry="2.4"/>
</g>
<!-- src/core/&#45;&gt;src/renderer/ -->
<g id="edge22" class="edge">
<title>src/core/&#45;&gt;src/renderer/</title>
<path fill="none" stroke="#000000" stroke-width="2" stroke-opacity="0.200000" d="M212.1,-168.81C230.76,-168.56 256.47,-169.85 279,-172 325.69,-176.45 379.04,-184.15 414.44,-190.9"/>
<polygon fill="#000000" fill-opacity="0.200000" stroke="#000000" stroke-width="2" stroke-opacity="0.200000" points="421.69,-194.51 427.99,-193.63 422.52,-190.39 421.69,-194.51"/>
<polyline fill="none" stroke="#000000" stroke-width="2" stroke-opacity="0.200000" points="422.11,-192.45 419.16,-191.85 "/>
<ellipse fill="none" stroke="#000000" stroke-width="2" stroke-opacity="0.200000" cx="416.81" cy="-191.38" rx="2.4" ry="2.4"/>
</g>
<!-- src/core/&#45;&gt;src/viewport/ -->
<g id="edge23" class="edge">
<title>src/core/&#45;&gt;src/viewport/</title>
<path fill="none" stroke="#000000" stroke-width="2" stroke-opacity="0.200000" d="M203.23,-182.05C209.93,-187.2 217.73,-193.51 225,-199 227.74,-201.06 230.68,-203.19 233.58,-205.32"/>
<polygon fill="#000000" fill-opacity="0.200000" stroke="#000000" stroke-width="2" stroke-opacity="0.200000" points="238.47,-211.82 244.49,-213.86 241.06,-208.51 238.47,-211.82"/>
<polyline fill="none" stroke="#000000" stroke-width="2" stroke-opacity="0.200000" points="239.76,-210.16 237.4,-208.31 "/>
<ellipse fill="none" stroke="#000000" stroke-width="2" stroke-opacity="0.200000" cx="235.51" cy="-206.83" rx="2.4" ry="2.4"/>
</g>
<!-- src/debugger/&#45;&gt;src/controls/ -->
<g id="edge26" class="edge">
<title>src/debugger/&#45;&gt;src/controls/</title>
<path fill="none" stroke="#000000" stroke-width="2" stroke-opacity="0.200000" d="M358.8,-235.32C356.7,-235.59 354.57,-235.84 352.44,-236.06"/>
<polygon fill="#000000" fill-opacity="0.200000" stroke="#000000" stroke-width="2" stroke-opacity="0.200000" points="351.87,-234 346.08,-236.64 352.25,-238.18 351.87,-234"/>
</g>
<!-- src/debugger/&#45;&gt;src/core/ -->
<g id="edge24" class="edge">
<title>src/debugger/&#45;&gt;src/core/</title>
<path fill="none" stroke="#000000" stroke-width="2" stroke-opacity="0.200000" d="M362.04,-218.99C340.52,-211.13 307.96,-199.8 279,-192 261.77,-187.36 242.48,-183.25 225.95,-180.04"/>
<polygon fill="#000000" fill-opacity="0.200000" stroke="#000000" stroke-width="2" stroke-opacity="0.200000" points="218.54,-176.52 212.26,-177.47 217.77,-180.64 218.54,-176.52"/>
<polyline fill="none" stroke="#000000" stroke-width="2" stroke-opacity="0.200000" points="218.15,-178.58 221.1,-179.13 "/>
<ellipse fill="none" stroke="#000000" stroke-width="2" stroke-opacity="0.200000" cx="223.46" cy="-179.58" rx="2.4" ry="2.4"/>
</g>
<!-- src/debugger/&#45;&gt;src/editor/ -->
<g id="edge27" class="edge">
<title>src/debugger/&#45;&gt;src/editor/</title>
<path fill="none" stroke="#000000" stroke-width="2" stroke-opacity="0.200000" d="M392.78,-218.95C400.13,-208.85 414.76,-193.34 428,-181 428.91,-180.15 429.84,-179.3 430.79,-178.44"/>
<polygon fill="#000000" fill-opacity="0.200000" stroke="#000000" stroke-width="2" stroke-opacity="0.200000" points="432.48,-179.76 435.62,-174.23 429.72,-176.59 432.48,-179.76"/>
</g>
<!-- src/debugger/&#45;&gt;src/renderer/ -->
<g id="edge25" class="edge">
<title>src/debugger/&#45;&gt;src/renderer/</title>
<path fill="none" stroke="#000000" stroke-width="2" stroke-opacity="0.200000" d="M411.08,-218.91C413.28,-218.04 415.54,-217.15 417.83,-216.25"/>
<polygon fill="#000000" fill-opacity="0.200000" stroke="#000000" stroke-width="2" stroke-opacity="0.200000" points="426.01,-215.29 430.82,-211.13 424.47,-211.38 426.01,-215.29"/>
<polyline fill="none" stroke="#000000" stroke-width="2" stroke-opacity="0.200000" points="425.24,-213.33 422.44,-214.43 "/>
<ellipse fill="none" stroke="#000000" stroke-width="2" stroke-opacity="0.200000" cx="420.21" cy="-215.31" rx="2.4" ry="2.4"/>
</g>
<!-- src/editor/&#45;&gt;src/commands/ -->
<g id="edge35" class="edge">
<title>src/editor/&#45;&gt;src/commands/</title>
<path fill="none" stroke="#000000" stroke-width="2" stroke-opacity="0.200000" d="M441.09,-155.72C436.76,-150.8 432.01,-144.76 428,-139 421.51,-129.68 424.56,-123.14 415,-117 379.28,-94.05 362.46,-107 320,-107 251,-107 251,-107 251,-107 217.16,-107 178.64,-105.12 151.25,-102.42"/>
<polygon fill="#000000" fill-opacity="0.200000" stroke="#000000" stroke-width="2" stroke-opacity="0.200000" points="151.42,-100.33 145.23,-101.79 150.98,-104.5 151.42,-100.33"/>
</g>
<!-- src/editor/&#45;&gt;src/core/ -->
<g id="edge28" class="edge">
<title>src/editor/&#45;&gt;src/core/</title>
<path fill="none" stroke="#000000" stroke-width="2" stroke-opacity="0.200000" d="M427.87,-168.47C387.61,-170.36 307.64,-170.58 226.27,-175.1"/>
<polygon fill="#000000" fill-opacity="0.200000" stroke="#000000" stroke-width="2" stroke-opacity="0.200000" points="218.28,-173.46 212.41,-175.91 218.52,-177.65 218.28,-173.46"/>
<polyline fill="none" stroke="#000000" stroke-width="2" stroke-opacity="0.200000" points="218.4,-175.56 221.39,-175.38 "/>
<ellipse fill="none" stroke="#000000" stroke-width="2" stroke-opacity="0.200000" cx="223.79" cy="-175.24" rx="2.4" ry="2.4"/>
</g>
<!-- src/editor/&#45;&gt;src/debugger/ -->
<g id="edge29" class="edge">
<title>src/editor/&#45;&gt;src/debugger/</title>
<path fill="none" stroke="#000000" stroke-width="2" stroke-opacity="0.200000" d="M448.29,-174.21C442.93,-179.92 434.75,-186.71 428,-193 422.56,-198.07 416.88,-203.68 411.57,-208.93"/>
<polygon fill="#000000" fill-opacity="0.200000" stroke="#000000" stroke-width="2" stroke-opacity="0.200000" points="404.19,-213.21 401.38,-218.91 407.13,-216.21 404.19,-213.21"/>
<polyline fill="none" stroke="#000000" stroke-width="2" stroke-opacity="0.200000" points="405.66,-214.71 407.81,-212.61 "/>
<ellipse fill="none" stroke="#000000" stroke-width="2" stroke-opacity="0.200000" cx="409.52" cy="-210.93" rx="2.4" ry="2.4"/>
</g>
<!-- src/editor/&#45;&gt;src/gis/ -->
<g id="edge30" class="edge">
<title>src/editor/&#45;&gt;src/gis/</title>
<path fill="none" stroke="#000000" stroke-width="2" stroke-opacity="0.200000" d="M470.1,-174.1C474.53,-177.63 479.04,-182.02 482,-187 484.24,-190.77 509.21,-315.67 517.98,-359.77"/>
<polygon fill="#000000" fill-opacity="0.200000" stroke="#000000" stroke-width="2" stroke-opacity="0.200000" points="515.97,-360.42 519.19,-365.89 520.08,-359.6 515.97,-360.42"/>
</g>
<!-- src/editor/&#45;&gt;src/history/ -->
<g id="edge31" class="edge">
<title>src/editor/&#45;&gt;src/history/</title>
<path fill="none" stroke="#000000" stroke-width="2" stroke-opacity="0.200000" d="M459.1,-155.65C464.16,-144.23 474.89,-125.27 490.72,-106.51"/>
<polygon fill="#000000" fill-opacity="0.200000" stroke="#000000" stroke-width="2" stroke-opacity="0.200000" points="497.58,-102.03 500.03,-96.16 494.46,-99.22 497.58,-102.03"/>
<polyline fill="none" stroke="#000000" stroke-width="2" stroke-opacity="0.200000" points="496.02,-100.62 494.01,-102.85 "/>
<ellipse fill="none" stroke="#000000" stroke-width="2" stroke-opacity="0.200000" cx="492.41" cy="-104.64" rx="2.4" ry="2.4"/>
</g>
<!-- src/editor/&#45;&gt;src/loader/ -->
<g id="edge32" class="edge">
<title>src/editor/&#45;&gt;src/loader/</title>
<path fill="none" stroke="#000000" stroke-width="2" stroke-opacity="0.200000" d="M465.04,-155.79C472.95,-149.47 484.84,-141.22 495.63,-134.38"/>
<polygon fill="#000000" fill-opacity="0.200000" stroke="#000000" stroke-width="2" stroke-opacity="0.200000" points="496.83,-136.11 500.81,-131.16 494.61,-132.54 496.83,-136.11"/>
</g>
<!-- src/editor/&#45;&gt;src/selector/ -->
<g id="edge33" class="edge">
<title>src/editor/&#45;&gt;src/selector/</title>
<path fill="none" stroke="#000000" stroke-width="2" stroke-opacity="0.200000" d="M482.06,-156.97C482.2,-156.95 482.33,-156.93 482.46,-156.91"/>
<polygon fill="#000000" fill-opacity="0.200000" stroke="#000000" stroke-width="2" stroke-opacity="0.200000" points="489.27,-158.09 494.93,-155.19 488.7,-153.93 489.27,-158.09"/>
<polyline fill="none" stroke="#000000" stroke-width="2" stroke-opacity="0.200000" points="488.99,-156.01 486.01,-156.42 "/>
<ellipse fill="none" stroke="#000000" stroke-width="2" stroke-opacity="0.200000" cx="483.64" cy="-156.74" rx="2.4" ry="2.4"/>
</g>
<!-- src/editor/&#45;&gt;src/spatial/ -->
<g id="edge34" class="edge">
<title>src/editor/&#45;&gt;src/spatial/</title>
<path fill="none" stroke="#000000" stroke-width="2" stroke-opacity="0.200000" d="M467.36,-174.16C472,-178.02 477.36,-182.62 482,-187 489.23,-193.82 496.83,-201.65 503.39,-208.63"/>
<polygon fill="#000000" fill-opacity="0.200000" stroke="#000000" stroke-width="2" stroke-opacity="0.200000" points="507.29,-215.95 512.9,-218.93 510.37,-213.1 507.29,-215.95"/>
<polyline fill="none" stroke="#000000" stroke-width="2" stroke-opacity="0.200000" points="508.83,-214.52 506.79,-212.32 "/>
<ellipse fill="none" stroke="#000000" stroke-width="2" stroke-opacity="0.200000" cx="505.17" cy="-210.56" rx="2.4" ry="2.4"/>
</g>
<!-- src/editor/&#45;&gt;src/utils/ -->
<g id="edge36" class="edge">
<title>src/editor/&#45;&gt;src/utils/</title>
<path fill="none" stroke="#000000" stroke-width="2" stroke-opacity="0.200000" d="M470.78,-174.1C475.15,-177.57 479.45,-181.93 482,-187 502.32,-227.38 471.15,-351.6 495,-390 495.36,-390.58 495.75,-391.13 496.16,-391.67"/>
<polygon fill="#000000" fill-opacity="0.200000" stroke="#000000" stroke-width="2" stroke-opacity="0.200000" points="494.77,-393.25 500.51,-395.99 497.73,-390.27 494.77,-393.25"/>
</g>
<!-- src/factory/&#45;&gt;src/controls/ -->
<g id="edge37" class="edge">
<title>src/factory/&#45;&gt;src/controls/</title>
<path fill="none" stroke="#000000" stroke-width="2" stroke-opacity="0.200000" d="M141.09,-281.94C173.65,-275.39 230.91,-263.15 279,-249 282.11,-248.09 285.32,-247.06 288.52,-245.99"/>
<polygon fill="#000000" fill-opacity="0.200000" stroke="#000000" stroke-width="2" stroke-opacity="0.200000" points="289.23,-247.97 294.22,-244.03 287.86,-244 289.23,-247.97"/>
</g>
<!-- src/factory/&#45;&gt;src/core/ -->
<g id="edge38" class="edge">
<title>src/factory/&#45;&gt;src/core/</title>
<path fill="none" stroke="#000000" stroke-width="2" stroke-opacity="0.200000" d="M120.65,-277.67C132.68,-257.78 160.94,-211.1 175.3,-187.38"/>
<polygon fill="#000000" fill-opacity="0.200000" stroke="#000000" stroke-width="2" stroke-opacity="0.200000" points="177.16,-188.36 178.47,-182.14 173.56,-186.19 177.16,-188.36"/>
</g>
<!-- src/factory/&#45;&gt;src/debugger/ -->
<g id="edge39" class="edge">
<title>src/factory/&#45;&gt;src/debugger/</title>
<path fill="none" stroke="#000000" stroke-width="2" stroke-opacity="0.200000" d="M141.35,-288.98C194.18,-292.49 310.99,-297.9 346,-280 361.34,-272.16 372.51,-255.43 379.09,-243.05"/>
<polygon fill="#000000" fill-opacity="0.200000" stroke="#000000" stroke-width="2" stroke-opacity="0.200000" points="381.12,-243.69 381.95,-237.39 377.37,-241.8 381.12,-243.69"/>
</g>
<!-- src/factory/&#45;&gt;src/editor/ -->
<g id="edge40" class="edge">
<title>src/factory/&#45;&gt;src/editor/</title>
<path fill="none" stroke="#000000" stroke-width="2" stroke-opacity="0.200000" d="M141.3,-292.41C146.8,-293.39 152.57,-294.32 158,-295 199.1,-300.13 209.58,-301 251,-301 251,-301 251,-301 320,-301 347.29,-301 399.31,-265.67 415,-243 429.54,-221.99 414.68,-208.81 428,-187 429.89,-183.91 432.36,-181.04 435.03,-178.46"/>
<polygon fill="#000000" fill-opacity="0.200000" stroke="#000000" stroke-width="2" stroke-opacity="0.200000" points="436.83,-179.67 439.97,-174.15 434.07,-176.51 436.83,-179.67"/>
</g>
<!-- src/factory/&#45;&gt;src/gis/ -->
<g id="edge44" class="edge">
<title>src/factory/&#45;&gt;src/gis/</title>
<path fill="none" stroke="#000000" stroke-width="2" stroke-opacity="0.200000" d="M140.24,-296.05C141.97,-297.22 143.58,-298.53 145,-300 155.96,-311.33 145.5,-323.39 158,-333 257.6,-409.56 420.31,-392.81 488.9,-381.29"/>
<polygon fill="#000000" fill-opacity="0.200000" stroke="#000000" stroke-width="2" stroke-opacity="0.200000" points="489.3,-383.36 494.85,-380.27 488.58,-379.22 489.3,-383.36"/>
</g>
<!-- src/factory/&#45;&gt;src/loader/ -->
<g id="edge41" class="edge">
<title>src/factory/&#45;&gt;src/loader/</title>
<path fill="none" stroke="#000000" stroke-width="2" stroke-opacity="0.200000" d="M138.4,-296.09C140.69,-297.29 142.93,-298.6 145,-300 151.76,-304.59 150.57,-309.59 158,-313 209.92,-336.81 365.14,-343.86 415,-316 461.38,-290.08 462.19,-266.3 482,-217 494.78,-185.2 476.96,-170.13 495,-141 496.25,-138.98 497.8,-137.11 499.52,-135.39"/>
<polygon fill="#000000" fill-opacity="0.200000" stroke="#000000" stroke-width="2" stroke-opacity="0.200000" points="501.2,-136.71 504.37,-131.2 498.46,-133.53 501.2,-136.71"/>
</g>
<!-- src/factory/&#45;&gt;src/renderer/ -->
<g id="edge42" class="edge">
<title>src/factory/&#45;&gt;src/renderer/</title>
<path fill="none" stroke="#000000" stroke-width="2" stroke-opacity="0.200000" d="M136.05,-296.13C145.73,-300.27 155.61,-304.39 158,-305 198.26,-315.36 209.43,-315 251,-315 251,-315 251,-315 320,-315 362.46,-315 381.38,-330.92 415,-305 442.56,-283.75 450.65,-240.64 453.02,-217.5"/>
<polygon fill="#000000" fill-opacity="0.200000" stroke="#000000" stroke-width="2" stroke-opacity="0.200000" points="455.13,-217.44 453.57,-211.28 450.95,-217.07 455.13,-217.44"/>
</g>
<!-- src/factory/&#45;&gt;src/viewport/ -->
<g id="edge43" class="edge">
<title>src/factory/&#45;&gt;src/viewport/</title>
<path fill="none" stroke="#000000" stroke-width="2" stroke-opacity="0.200000" d="M134.2,-277.97C158.16,-266.69 199.21,-247.37 225.71,-234.9"/>
<polygon fill="#000000" fill-opacity="0.200000" stroke="#000000" stroke-width="2" stroke-opacity="0.200000" points="226.93,-236.65 231.46,-232.2 225.14,-232.85 226.93,-236.65"/>
</g>
<!-- src/history/&#45;&gt;src/commands/ -->
<g id="edge45" class="edge">
<title>src/history/&#45;&gt;src/commands/</title>
<path fill="none" stroke="#000000" stroke-width="2" stroke-opacity="0.200000" d="M516.08,-77.73C509.77,-66.88 497.73,-49.33 482,-41 444.87,-21.35 430.01,-31 388,-31 251,-31 251,-31 251,-31 208.31,-31 195.44,-34.5 158,-55 148.27,-60.33 139.04,-68.36 131.64,-75.83"/>
<polygon fill="#000000" fill-opacity="0.200000" stroke="#000000" stroke-width="2" stroke-opacity="0.200000" points="124.8,-80.15 122.27,-85.99 127.89,-83 124.8,-80.15"/>
<polyline fill="none" stroke="#000000" stroke-width="2" stroke-opacity="0.200000" points="126.34,-81.58 128.37,-79.37 "/>
<ellipse fill="none" stroke="#000000" stroke-width="2" stroke-opacity="0.200000" cx="130" cy="-77.61" rx="2.4" ry="2.4"/>
</g>
<!-- src/history/&#45;&gt;src/core/ -->
<g id="edge46" class="edge">
<title>src/history/&#45;&gt;src/core/</title>
<path fill="none" stroke="#000000" stroke-width="2" stroke-opacity="0.200000" d="M494.5,-87C467.66,-87 424.94,-87 388,-87 318,-87 318,-87 318,-87 273.52,-87 260.72,-97.48 225,-124 214.8,-131.57 205.78,-142.45 199,-152.03"/>
<polygon fill="#000000" fill-opacity="0.200000" stroke="#000000" stroke-width="2" stroke-opacity="0.200000" points="192.76,-157.69 191.22,-163.86 196.27,-159.99 192.76,-157.69"/>
<polyline fill="none" stroke="#000000" stroke-width="2" stroke-opacity="0.200000" points="194.52,-158.84 196.16,-156.33 "/>
<ellipse fill="none" stroke="#000000" stroke-width="2" stroke-opacity="0.200000" cx="197.48" cy="-154.33" rx="2.4" ry="2.4"/>
</g>
<!-- src/history/&#45;&gt;src/editor/ -->
<g id="edge47" class="edge">
<title>src/history/&#45;&gt;src/editor/</title>
<path fill="none" stroke="#000000" stroke-width="2" stroke-opacity="0.200000" d="M514.1,-96.23C508.56,-101.13 500.77,-106.85 495,-113 486.11,-122.48 477.83,-134.17 471.21,-144.13"/>
<polygon fill="#000000" fill-opacity="0.200000" stroke="#000000" stroke-width="2" stroke-opacity="0.200000" points="465.07,-149.72 463.55,-155.9 468.59,-152.02 465.07,-149.72"/>
<polyline fill="none" stroke="#000000" stroke-width="2" stroke-opacity="0.200000" points="466.83,-150.87 468.46,-148.36 "/>
<ellipse fill="none" stroke="#000000" stroke-width="2" stroke-opacity="0.200000" cx="469.77" cy="-146.35" rx="2.4" ry="2.4"/>
</g>
<!-- src/loader/&#45;&gt;src/commands/ -->
<g id="edge49" class="edge">
<title>src/loader/&#45;&gt;src/commands/</title>
<path fill="none" stroke="#000000" stroke-width="2" stroke-opacity="0.200000" d="M506.93,-112.89C487.25,-100.64 449.96,-79.21 415,-69 374.25,-57.09 362.46,-59 320,-59 251,-59 251,-59 251,-59 211.94,-59 168.62,-73.05 141.59,-83.59"/>
<polygon fill="#000000" fill-opacity="0.200000" stroke="#000000" stroke-width="2" stroke-opacity="0.200000" points="140.55,-81.75 135.75,-85.92 142.1,-85.65 140.55,-81.75"/>
</g>
<!-- src/loader/&#45;&gt;src/core/ -->
<g id="edge48" class="edge">
<title>src/loader/&#45;&gt;src/core/</title>
<path fill="none" stroke="#000000" stroke-width="2" stroke-opacity="0.200000" d="M494.99,-118.97C442.12,-113.84 319.15,-107.21 225,-143 215.4,-146.65 206.21,-153.49 199.17,-159.72"/>
<polygon fill="#000000" fill-opacity="0.200000" stroke="#000000" stroke-width="2" stroke-opacity="0.200000" points="197.64,-158.27 194.66,-163.89 200.49,-161.36 197.64,-158.27"/>
</g>
<!-- src/loader/&#45;&gt;src/editor/ -->
<g id="edge50" class="edge">
<title>src/loader/&#45;&gt;src/editor/</title>
<path fill="none" stroke="#000000" stroke-width="2" stroke-opacity="0.200000" d="M512.2,-131.02C504.31,-137.35 492.32,-145.68 481.44,-152.58"/>
<polygon fill="#000000" fill-opacity="0.200000" stroke="#000000" stroke-width="2" stroke-opacity="0.200000" points="480.19,-150.88 476.21,-155.83 482.41,-154.44 480.19,-150.88"/>
</g>
<!-- src/renderer/&#45;&gt;src/core/ -->
<g id="edge51" class="edge">
<title>src/renderer/&#45;&gt;src/core/</title>
<path fill="none" stroke="#000000" stroke-width="2" stroke-opacity="0.200000" d="M427.99,-201.86C393.87,-198.33 332.12,-189.06 279,-184 261.66,-182.35 242.44,-181.2 226,-179.98"/>
<polygon fill="#000000" fill-opacity="0.200000" stroke="#000000" stroke-width="2" stroke-opacity="0.200000" points="218.25,-177.24 212.1,-178.85 217.91,-181.43 218.25,-177.24"/>
<polyline fill="none" stroke="#000000" stroke-width="2" stroke-opacity="0.200000" points="218.08,-179.33 221.07,-179.58 "/>
<ellipse fill="none" stroke="#000000" stroke-width="2" stroke-opacity="0.200000" cx="223.46" cy="-179.77" rx="2.4" ry="2.4"/>
</g>
<!-- src/selector/&#45;&gt;src/core/ -->
<g id="edge52" class="edge">
<title>src/selector/&#45;&gt;src/core/</title>
<path fill="none" stroke="#000000" stroke-width="2" stroke-opacity="0.200000" d="M494.6,-151.65C490.4,-151.04 486.08,-150.47 482,-150 440.38,-145.26 429.89,-143 388,-143 318,-143 318,-143 318,-143 285.68,-143 249.99,-151.66 223.88,-159.67"/>
<polygon fill="#000000" fill-opacity="0.200000" stroke="#000000" stroke-width="2" stroke-opacity="0.200000" points="215.51,-160.16 210.44,-164 216.79,-164.16 215.51,-160.16"/>
<polyline fill="none" stroke="#000000" stroke-width="2" stroke-opacity="0.200000" points="216.15,-162.16 219,-161.24 "/>
<ellipse fill="none" stroke="#000000" stroke-width="2" stroke-opacity="0.200000" cx="221.29" cy="-160.51" rx="2.4" ry="2.4"/>
</g>
<!-- src/selector/&#45;&gt;src/editor/ -->
<g id="edge53" class="edge">
<title>src/selector/&#45;&gt;src/editor/</title>
<path fill="none" stroke="#000000" stroke-width="2" stroke-opacity="0.200000" d="M494.93,-164.03C494.8,-164.05 494.67,-164.07 494.53,-164.1"/>
<polygon fill="#000000" fill-opacity="0.200000" stroke="#000000" stroke-width="2" stroke-opacity="0.200000" points="487.72,-162.91 482.06,-165.81 488.29,-167.07 487.72,-162.91"/>
<polyline fill="none" stroke="#000000" stroke-width="2" stroke-opacity="0.200000" points="488.01,-164.99 490.98,-164.58 "/>
<ellipse fill="none" stroke="#000000" stroke-width="2" stroke-opacity="0.200000" cx="493.36" cy="-164.26" rx="2.4" ry="2.4"/>
</g>
<!-- src/spatial/&#45;&gt;src/debugger/ -->
<g id="edge54" class="edge">
<title>src/spatial/&#45;&gt;src/debugger/</title>
<path fill="none" stroke="#000000" stroke-width="2" stroke-opacity="0.200000" d="M494.71,-228C476.04,-228 450.59,-228 429.24,-228"/>
<polygon fill="#000000" fill-opacity="0.200000" stroke="#000000" stroke-width="2" stroke-opacity="0.200000" points="421.24,-225.9 415.24,-228 421.24,-230.1 421.24,-225.9"/>
<polyline fill="none" stroke="#000000" stroke-width="2" stroke-opacity="0.200000" points="421.24,-228 424.24,-228 "/>
<ellipse fill="none" stroke="#000000" stroke-width="2" stroke-opacity="0.200000" cx="426.64" cy="-228" rx="2.4" ry="2.4"/>
</g>
<!-- src/viewport/&#45;&gt;src/controls/ -->
<g id="edge59" class="edge">
<title>src/viewport/&#45;&gt;src/controls/</title>
<path fill="none" stroke="#000000" stroke-width="2" stroke-opacity="0.200000" d="M279.06,-227.81C281.32,-228.23 283.61,-228.65 285.9,-229.07"/>
<polygon fill="#000000" fill-opacity="0.200000" stroke="#000000" stroke-width="2" stroke-opacity="0.200000" points="285.65,-231.16 291.93,-230.19 286.41,-227.03 285.65,-231.16"/>
</g>
<!-- src/viewport/&#45;&gt;src/core/ -->
<g id="edge55" class="edge">
<title>src/viewport/&#45;&gt;src/core/</title>
<path fill="none" stroke="#000000" stroke-width="2" stroke-opacity="0.200000" d="M229.06,-213.99C227.68,-213 226.31,-211.99 225,-211 217.11,-205.05 208.6,-198.13 201.55,-191.73"/>
<polygon fill="#000000" fill-opacity="0.200000" stroke="#000000" stroke-width="2" stroke-opacity="0.200000" points="197.45,-184.75 191.7,-182.04 194.5,-187.74 197.45,-184.75"/>
<polyline fill="none" stroke="#000000" stroke-width="2" stroke-opacity="0.200000" points="195.97,-186.25 198.11,-188.35 "/>
<ellipse fill="none" stroke="#000000" stroke-width="2" stroke-opacity="0.200000" cx="199.82" cy="-190.03" rx="2.4" ry="2.4"/>
</g>
<!-- src/viewport/&#45;&gt;src/editor/ -->
<g id="edge56" class="edge">
<title>src/viewport/&#45;&gt;src/editor/</title>
<path fill="none" stroke="#000000" stroke-width="2" stroke-opacity="0.200000" d="M279.37,-214.01C283.59,-212.63 287.9,-211.25 292,-210 333.46,-197.34 381.34,-184.22 414.24,-175.44"/>
<polygon fill="#000000" fill-opacity="0.200000" stroke="#000000" stroke-width="2" stroke-opacity="0.200000" points="422.53,-175.41 427.79,-171.84 421.45,-171.35 422.53,-175.41"/>
<polyline fill="none" stroke="#000000" stroke-width="2" stroke-opacity="0.200000" points="421.99,-173.38 419.09,-174.15 "/>
<ellipse fill="none" stroke="#000000" stroke-width="2" stroke-opacity="0.200000" cx="416.77" cy="-174.77" rx="2.4" ry="2.4"/>
</g>
<!-- src/viewport/&#45;&gt;src/optimizer/ -->
<g id="edge57" class="edge">
<title>src/viewport/&#45;&gt;src/optimizer/</title>
<path fill="none" stroke="#000000" stroke-width="2" stroke-opacity="0.200000" d="M265.47,-232.02C273.04,-237.4 282.95,-244.27 292,-250 293.44,-250.91 294.95,-251.84 296.47,-252.76"/>
<polygon fill="#000000" fill-opacity="0.200000" stroke="#000000" stroke-width="2" stroke-opacity="0.200000" points="295.42,-254.58 301.65,-255.84 297.56,-250.97 295.42,-254.58"/>
</g>
<!-- src/viewport/&#45;&gt;src/renderer/ -->
<g id="edge58" class="edge">
<title>src/viewport/&#45;&gt;src/renderer/</title>
<path fill="none" stroke="#000000" stroke-width="2" stroke-opacity="0.200000" d="M279.28,-220.25C313.59,-216.67 373.97,-210.36 413.98,-206.18"/>
<polygon fill="#000000" fill-opacity="0.200000" stroke="#000000" stroke-width="2" stroke-opacity="0.200000" points="421.97,-207.46 427.72,-204.75 421.53,-203.28 421.97,-207.46"/>
<polyline fill="none" stroke="#000000" stroke-width="2" stroke-opacity="0.200000" points="421.75,-205.37 418.77,-205.68 "/>
<ellipse fill="none" stroke="#000000" stroke-width="2" stroke-opacity="0.200000" cx="416.38" cy="-205.93" rx="2.4" ry="2.4"/>
</g>
</g>
</svg>
