<?xml version="1.0" encoding="UTF-8" standalone="no"?>
<!DOCTYPE svg PUBLIC "-//W3C//DTD SVG 1.1//EN"
 "http://www.w3.org/Graphics/SVG/1.1/DTD/svg11.dtd">
<!-- Generated by graphviz version 2.50.0 (20211204.2007)
 -->
<!-- Title: dependency&#45;cruiser output Pages: 1 -->
<svg width="506pt" height="370pt"
 viewBox="0.00 0.00 506.00 370.00" xmlns="http://www.w3.org/2000/svg" xmlns:xlink="http://www.w3.org/1999/xlink">
<g id="graph0" class="graph" transform="scale(1 1) rotate(0) translate(4 366)">
<title>dependency&#45;cruiser output</title>
<polygon fill="white" stroke="transparent" points="-4,4 -4,-366 502,-366 502,4 -4,4"/>
<g id="clust1" class="cluster">
<title>cluster_src</title>
<path fill="#ffffff" stroke="black" stroke-width="2" d="M20,-8C20,-8 478,-8 478,-8 484,-8 490,-14 490,-20 490,-20 490,-342 490,-342 490,-348 484,-354 478,-354 478,-354 20,-354 20,-354 14,-354 8,-348 8,-342 8,-342 8,-20 8,-20 8,-14 14,-8 20,-8"/>
<text text-anchor="middle" x="249" y="-342.8" font-family="Helvetica,sans-Serif" font-weight="bold" font-size="9.00">src</text>
</g>
<!-- src/Sej.ts -->
<g id="node1" class="node">
<title>src/Sej.ts</title>
<g id="a_node1"><a xlink:href="src/Sej.ts" xlink:title="Sej.ts">
<path fill="#ddfeff" stroke="black" d="M64,-222C64,-222 22,-222 22,-222 19,-222 16,-219 16,-216 16,-216 16,-210 16,-210 16,-207 19,-204 22,-204 22,-204 64,-204 64,-204 67,-204 70,-207 70,-210 70,-210 70,-216 70,-216 70,-219 67,-222 64,-222"/>
<text text-anchor="start" x="31.5" y="-210.8" font-family="Helvetica,sans-Serif" font-size="9.00">Sej.ts</text>
</a>
</g>
</g>
<!-- src/commands/ -->
<g id="node2" class="node">
<title>src/commands/</title>
<g id="a_node2"><a xlink:href="src/commands/" xlink:title="commands">
<polygon fill="#ffffcc" stroke="black" points="145,-138 85,-138 83,-136 83,-120 143,-120 145,-122 145,-138"/>
<polyline fill="none" stroke="black" points="143,-136 83,-136 "/>
<polyline fill="none" stroke="black" points="143,-136 143,-120 "/>
<polyline fill="none" stroke="black" points="143,-136 145,-138 "/>
<text text-anchor="start" x="91" y="-126.8" font-family="Helvetica,sans-Serif" font-size="9.00">commands</text>
</a>
</g>
</g>
<!-- src/Sej.ts&#45;&gt;src/commands/ -->
<g id="edge1" class="edge">
<title>src/Sej.ts&#45;&gt;src/commands/</title>
<path fill="none" stroke="#000000" stroke-width="2" stroke-opacity="0.200000" d="M47.61,-203.95C53.42,-190.29 65.93,-164.19 83,-147 84.88,-145.11 86.99,-143.34 89.21,-141.7"/>
<polygon fill="#000000" fill-opacity="0.200000" stroke="#000000" stroke-width="2" stroke-opacity="0.200000" points="90.7,-143.23 94.5,-138.13 88.35,-139.75 90.7,-143.23"/>
</g>
<!-- src/controls/ -->
<g id="node3" class="node">
<title>src/controls/</title>
<g id="a_node3"><a xlink:href="src/controls/" xlink:title="controls">
<polygon fill="#ffffcc" stroke="black" points="482,-145 430,-145 428,-143 428,-127 480,-127 482,-129 482,-145"/>
<polyline fill="none" stroke="black" points="480,-143 428,-143 "/>
<polyline fill="none" stroke="black" points="480,-143 480,-127 "/>
<polyline fill="none" stroke="black" points="480,-143 482,-145 "/>
<text text-anchor="start" x="438.5" y="-133.8" font-family="Helvetica,sans-Serif" font-size="9.00">controls</text>
</a>
</g>
</g>
<!-- src/Sej.ts&#45;&gt;src/controls/ -->
<g id="edge2" class="edge">
<title>src/Sej.ts&#45;&gt;src/controls/</title>
<path fill="none" stroke="#000000" stroke-width="2" stroke-opacity="0.200000" d="M44.66,-203.92C47.27,-170.91 57.91,-57.92 83,-34 115.95,-2.59 138.48,-17 184,-17 184,-17 184,-17 320,-17 363.06,-17 382.02,-8.32 415,-36 440.85,-57.7 449.65,-98.75 452.58,-120.91"/>
<polygon fill="#000000" fill-opacity="0.200000" stroke="#000000" stroke-width="2" stroke-opacity="0.200000" points="450.49,-121.17 453.29,-126.88 454.66,-120.67 450.49,-121.17"/>
</g>
<!-- src/core/ -->
<g id="node4" class="node">
<title>src/core/</title>
<g id="a_node4"><a xlink:href="src/core/" xlink:title="core">
<polygon fill="#ffffcc" stroke="black" points="212,-116 160,-116 158,-114 158,-98 210,-98 212,-100 212,-116"/>
<polyline fill="none" stroke="black" points="210,-114 158,-114 "/>
<polyline fill="none" stroke="black" points="210,-114 210,-98 "/>
<polyline fill="none" stroke="black" points="210,-114 212,-116 "/>
<text text-anchor="start" x="175.5" y="-104.8" font-family="Helvetica,sans-Serif" font-size="9.00">core</text>
</a>
</g>
</g>
<!-- src/Sej.ts&#45;&gt;src/core/ -->
<g id="edge3" class="edge">
<title>src/Sej.ts&#45;&gt;src/core/</title>
<path fill="none" stroke="#000000" stroke-width="2" stroke-opacity="0.200000" d="M44.5,-204C46.16,-183.98 53.2,-135.84 83,-114 102.49,-99.72 130.16,-98.76 151.61,-100.93"/>
<polygon fill="#000000" fill-opacity="0.200000" stroke="#000000" stroke-width="2" stroke-opacity="0.200000" points="151.57,-103.03 157.77,-101.65 152.06,-98.86 151.57,-103.03"/>
</g>
<!-- src/debugger/ -->
<g id="node5" class="node">
<title>src/debugger/</title>
<g id="a_node5"><a xlink:href="src/debugger/" xlink:title="debugger">
<polygon fill="#ffffcc" stroke="black" points="415,-244 361,-244 359,-242 359,-226 413,-226 415,-228 415,-244"/>
<polyline fill="none" stroke="black" points="413,-242 359,-242 "/>
<polyline fill="none" stroke="black" points="413,-242 413,-226 "/>
<polyline fill="none" stroke="black" points="413,-242 415,-244 "/>
<text text-anchor="start" x="367" y="-232.8" font-family="Helvetica,sans-Serif" font-size="9.00">debugger</text>
</a>
</g>
</g>
<!-- src/Sej.ts&#45;&gt;src/debugger/ -->
<g id="edge4" class="edge">
<title>src/Sej.ts&#45;&gt;src/debugger/</title>
<path fill="none" stroke="#000000" stroke-width="2" stroke-opacity="0.200000" d="M44.98,-222.27C47.5,-241.02 56.04,-283.33 83,-303 119.44,-329.59 138.89,-313 184,-313 184,-313 184,-313 253,-313 294.57,-313 311.07,-325.54 346,-303 364.9,-290.81 376.01,-266.28 381.55,-250.26"/>
<polygon fill="#000000" fill-opacity="0.200000" stroke="#000000" stroke-width="2" stroke-opacity="0.200000" points="383.6,-250.73 383.46,-244.37 379.61,-249.43 383.6,-250.73"/>
</g>
<!-- src/editor/ -->
<g id="node6" class="node">
<title>src/editor/</title>
<g id="a_node6"><a xlink:href="src/editor/" xlink:title="editor">
<polygon fill="#ffffcc" stroke="black" points="346,-138 294,-138 292,-136 292,-120 344,-120 346,-122 346,-138"/>
<polyline fill="none" stroke="black" points="344,-136 292,-136 "/>
<polyline fill="none" stroke="black" points="344,-136 344,-120 "/>
<polyline fill="none" stroke="black" points="344,-136 346,-138 "/>
<text text-anchor="start" x="307" y="-126.8" font-family="Helvetica,sans-Serif" font-size="9.00">editor</text>
</a>
</g>
</g>
<!-- src/Sej.ts&#45;&gt;src/editor/ -->
<g id="edge5" class="edge">
<title>src/Sej.ts&#45;&gt;src/editor/</title>
<path fill="none" stroke="#000000" stroke-width="2" stroke-opacity="0.200000" d="M67.48,-203.88C72.59,-201.92 77.97,-199.87 83,-198 145.71,-174.66 160.45,-165.6 225,-148 245,-142.55 267.8,-137.87 285.81,-134.52"/>
<polygon fill="#000000" fill-opacity="0.200000" stroke="#000000" stroke-width="2" stroke-opacity="0.200000" points="286.21,-136.58 291.73,-133.43 285.45,-132.45 286.21,-136.58"/>
</g>
<!-- src/factory/ -->
<g id="node7" class="node">
<title>src/factory/</title>
<g id="a_node7"><a xlink:href="src/factory/" xlink:title="factory">
<polygon fill="#ffffcc" stroke="black" points="141,-222 89,-222 87,-220 87,-204 139,-204 141,-206 141,-222"/>
<polyline fill="none" stroke="black" points="139,-220 87,-220 "/>
<polyline fill="none" stroke="black" points="139,-220 139,-204 "/>
<polyline fill="none" stroke="black" points="139,-220 141,-222 "/>
<text text-anchor="start" x="100" y="-210.8" font-family="Helvetica,sans-Serif" font-size="9.00">factory</text>
</a>
</g>
</g>
<!-- src/Sej.ts&#45;&gt;src/factory/ -->
<g id="edge6" class="edge">
<title>src/Sej.ts&#45;&gt;src/factory/</title>
<path fill="none" stroke="#000000" stroke-width="2" stroke-opacity="0.200000" d="M70.09,-213C73.61,-213 77.25,-213 80.86,-213"/>
<polygon fill="#000000" fill-opacity="0.200000" stroke="#000000" stroke-width="2" stroke-opacity="0.200000" points="80.88,-215.1 86.88,-213 80.88,-210.9 80.88,-215.1"/>
</g>
<!-- src/history/ -->
<g id="node8" class="node">
<title>src/history/</title>
<g id="a_node8"><a xlink:href="src/history/" xlink:title="history">
<polygon fill="#ffffcc" stroke="black" points="414,-60 362,-60 360,-58 360,-42 412,-42 414,-44 414,-60"/>
<polyline fill="none" stroke="black" points="412,-58 360,-58 "/>
<polyline fill="none" stroke="black" points="412,-58 412,-42 "/>
<polyline fill="none" stroke="black" points="412,-58 414,-60 "/>
<text text-anchor="start" x="373" y="-48.8" font-family="Helvetica,sans-Serif" font-size="9.00">history</text>
</a>
</g>
</g>
<!-- src/Sej.ts&#45;&gt;src/history/ -->
<g id="edge7" class="edge">
<title>src/Sej.ts&#45;&gt;src/history/</title>
<path fill="none" stroke="#000000" stroke-width="2" stroke-opacity="0.200000" d="M45.01,-203.92C47.73,-183.03 56.88,-130.79 83,-97 115.8,-54.58 130.38,-31 184,-31 184,-31 184,-31 253,-31 294.57,-31 305.07,-33.72 346,-41 348.54,-41.45 351.15,-41.97 353.77,-42.54"/>
<polygon fill="#000000" fill-opacity="0.200000" stroke="#000000" stroke-width="2" stroke-opacity="0.200000" points="353.55,-44.64 359.86,-43.92 354.47,-40.54 353.55,-44.64"/>
</g>
<!-- src/loader/ -->
<g id="node9" class="node">
<title>src/loader/</title>
<g id="a_node9"><a xlink:href="src/loader/" xlink:title="loader">
<polygon fill="#ffffcc" stroke="black" points="414,-174 362,-174 360,-172 360,-156 412,-156 414,-158 414,-174"/>
<polyline fill="none" stroke="black" points="412,-172 360,-172 "/>
<polyline fill="none" stroke="black" points="412,-172 412,-156 "/>
<polyline fill="none" stroke="black" points="412,-172 414,-174 "/>
<text text-anchor="start" x="373.5" y="-162.8" font-family="Helvetica,sans-Serif" font-size="9.00">loader</text>
</a>
</g>
</g>
<!-- src/Sej.ts&#45;&gt;src/loader/ -->
<g id="edge8" class="edge">
<title>src/Sej.ts&#45;&gt;src/loader/</title>
<path fill="none" stroke="#000000" stroke-width="2" stroke-opacity="0.200000" d="M51.78,-222.2C71.46,-244.39 125.81,-299 184,-299 184,-299 184,-299 253,-299 295.37,-299 316.06,-307.99 346,-278 364.67,-259.31 350.23,-244.92 359,-220 364.01,-205.78 371.75,-190.44 377.66,-179.59"/>
<polygon fill="#000000" fill-opacity="0.200000" stroke="#000000" stroke-width="2" stroke-opacity="0.200000" points="379.65,-180.32 380.73,-174.05 375.98,-178.28 379.65,-180.32"/>
</g>
<!-- src/optimizer/ -->
<g id="node10" class="node">
<title>src/optimizer/</title>
<g id="a_node10"><a xlink:href="src/optimizer/" xlink:title="optimizer">
<polygon fill="#ffffcc" stroke="black" points="346,-272 294,-272 292,-270 292,-254 344,-254 346,-256 346,-272"/>
<polyline fill="none" stroke="black" points="344,-270 292,-270 "/>
<polyline fill="none" stroke="black" points="344,-270 344,-254 "/>
<polyline fill="none" stroke="black" points="344,-270 346,-272 "/>
<text text-anchor="start" x="300" y="-260.8" font-family="Helvetica,sans-Serif" font-size="9.00">optimizer</text>
</a>
</g>
</g>
<!-- src/Sej.ts&#45;&gt;src/optimizer/ -->
<g id="edge9" class="edge">
<title>src/Sej.ts&#45;&gt;src/optimizer/</title>
<path fill="none" stroke="#000000" stroke-width="2" stroke-opacity="0.200000" d="M57.13,-222.05C64.44,-226.65 73.87,-231.91 83,-235 152.5,-258.55 239.4,-262.87 285.6,-263.33"/>
<polygon fill="#000000" fill-opacity="0.200000" stroke="#000000" stroke-width="2" stroke-opacity="0.200000" points="285.83,-265.43 291.85,-263.37 285.86,-261.23 285.83,-265.43"/>
</g>
<!-- src/renderer/ -->
<g id="node11" class="node">
<title>src/renderer/</title>
<g id="a_node11"><a xlink:href="src/renderer/" xlink:title="renderer">
<polygon fill="#ffffcc" stroke="black" points="482,-255 430,-255 428,-253 428,-237 480,-237 482,-239 482,-255"/>
<polyline fill="none" stroke="black" points="480,-253 428,-253 "/>
<polyline fill="none" stroke="black" points="480,-253 480,-237 "/>
<polyline fill="none" stroke="black" points="480,-253 482,-255 "/>
<text text-anchor="start" x="437" y="-243.8" font-family="Helvetica,sans-Serif" font-size="9.00">renderer</text>
</a>
</g>
</g>
<!-- src/Sej.ts&#45;&gt;src/renderer/ -->
<g id="edge10" class="edge">
<title>src/Sej.ts&#45;&gt;src/renderer/</title>
<path fill="none" stroke="#000000" stroke-width="2" stroke-opacity="0.200000" d="M44.54,-222.05C46.26,-242.2 53.42,-290.8 83,-314 118.61,-341.93 138.74,-327 184,-327 184,-327 184,-327 320,-327 371.26,-327 419.72,-283.04 441.68,-259.89"/>
<polygon fill="#000000" fill-opacity="0.200000" stroke="#000000" stroke-width="2" stroke-opacity="0.200000" points="443.41,-261.12 445.96,-255.29 440.34,-258.26 443.41,-261.12"/>
</g>
<!-- src/viewport/ -->
<g id="node12" class="node">
<title>src/viewport/</title>
<g id="a_node12"><a xlink:href="src/viewport/" xlink:title="viewport">
<polygon fill="#ffffcc" stroke="black" points="279,-244 227,-244 225,-242 225,-226 277,-226 279,-228 279,-244"/>
<polyline fill="none" stroke="black" points="277,-242 225,-242 "/>
<polyline fill="none" stroke="black" points="277,-242 277,-226 "/>
<polyline fill="none" stroke="black" points="277,-242 279,-244 "/>
<text text-anchor="start" x="234.5" y="-232.8" font-family="Helvetica,sans-Serif" font-size="9.00">viewport</text>
</a>
</g>
</g>
<!-- src/Sej.ts&#45;&gt;src/viewport/ -->
<g id="edge11" class="edge">
<title>src/Sej.ts&#45;&gt;src/viewport/</title>
<path fill="none" stroke="#000000" stroke-width="2" stroke-opacity="0.200000" d="M63.86,-222.07C69.89,-224.43 76.61,-226.67 83,-228 129.42,-237.62 184.55,-237.85 218.66,-236.74"/>
<polygon fill="#000000" fill-opacity="0.200000" stroke="#000000" stroke-width="2" stroke-opacity="0.200000" points="218.86,-238.83 224.78,-236.51 218.7,-234.63 218.86,-238.83"/>
</g>
<!-- src/commands/&#45;&gt;src/core/ -->
<g id="edge13" class="edge">
<title>src/commands/&#45;&gt;src/core/</title>
<path fill="none" stroke="#000000" stroke-width="2" stroke-opacity="0.200000" d="M143.46,-119.92C146.28,-119.03 149.16,-118.11 152.02,-117.2"/>
<polygon fill="#000000" fill-opacity="0.200000" stroke="#000000" stroke-width="2" stroke-opacity="0.200000" points="152.74,-119.17 157.82,-115.35 151.46,-115.17 152.74,-119.17"/>
</g>
<!-- src/commands/&#45;&gt;src/editor/ -->
<g id="edge12" class="edge">
<title>src/commands/&#45;&gt;src/editor/</title>
<path fill="none" stroke="#000000" stroke-width="2" stroke-opacity="0.200000" d="M145.39,-125.68C183.03,-124.14 246.89,-124.11 285.49,-125.59"/>
<polygon fill="#000000" fill-opacity="0.200000" stroke="#000000" stroke-width="2" stroke-opacity="0.200000" points="285.84,-127.71 291.92,-125.87 286.02,-123.51 285.84,-127.71"/>
</g>
<!-- src/controls/&#45;&gt;src/core/ -->
<g id="edge14" class="edge">
<title>src/controls/&#45;&gt;src/core/</title>
<g id="a_edge14"><a xlink:title="no&#45;circular">
<path fill="none" stroke="orange" stroke-width="2" d="M448.31,-126.82C442.19,-115.43 431.11,-97.15 415,-89 377.32,-69.95 265.63,-77.5 225,-89 222.69,-89.65 220.37,-90.49 218.1,-91.44"/>
<polygon fill="orange" stroke="orange" stroke-width="2" points="210.04,-93.18 205.65,-97.78 211.95,-96.93 210.04,-93.18"/>
<polyline fill="none" stroke="orange" stroke-width="2" points="210.99,-95.06 213.67,-93.7 "/>
<ellipse fill="none" stroke="orange" stroke-width="2" cx="215.81" cy="-92.61" rx="2.4" ry="2.4"/>
</a>
</g>
<text text-anchor="middle" x="304.4" y="-70.24" font-family="Helvetica,sans-Serif" font-size="9.00" fill="orange">no&#45;circular</text>
</g>
<!-- src/core/&#45;&gt;src/controls/ -->
<g id="edge15" class="edge">
<title>src/core/&#45;&gt;src/controls/</title>
<g id="a_edge15"><a xlink:title="no&#45;circular">
<path fill="none" stroke="orange" stroke-width="2" d="M191.59,-97.97C198.76,-90.28 211.84,-80.72 225,-77 265.63,-65.5 377.32,-57.95 415,-77 429.67,-84.42 440.18,-100.25 446.56,-113.76"/>
<polygon fill="orange" stroke="orange" stroke-width="2" points="447.69,-122.2 451.87,-126.99 451.58,-120.64 447.69,-122.2"/>
<polyline fill="none" stroke="orange" stroke-width="2" points="449.63,-121.42 448.52,-118.64 "/>
<ellipse fill="none" stroke="orange" stroke-width="2" cx="447.62" cy="-116.41" rx="2.4" ry="2.4"/>
</a>
</g>
<text text-anchor="middle" x="299.33" y="-58.34" font-family="Helvetica,sans-Serif" font-size="9.00" fill="orange">no&#45;circular</text>
</g>
<!-- src/core/&#45;&gt;src/editor/ -->
<g id="edge16" class="edge">
<title>src/core/&#45;&gt;src/editor/</title>
<g id="a_edge16"><a xlink:title="no&#45;circular">
<path fill="none" stroke="orange" stroke-width="2" d="M212.08,-107.68C230.97,-109.92 256.86,-114.07 278.31,-118.22"/>
<polygon fill="orange" stroke="orange" stroke-width="2" points="285.68,-121.86 291.98,-121 286.51,-117.74 285.68,-121.86"/>
<polyline fill="none" stroke="orange" stroke-width="2" points="286.1,-119.8 283.16,-119.2 "/>
<ellipse fill="none" stroke="orange" stroke-width="2" cx="280.8" cy="-118.73" rx="2.4" ry="2.4"/>
</a>
</g>
<text text-anchor="middle" x="274.36" y="-111.36" font-family="Helvetica,sans-Serif" font-size="9.00" fill="orange">no&#45;circular</text>
</g>
<!-- src/core/&#45;&gt;src/renderer/ -->
<g id="edge17" class="edge">
<title>src/core/&#45;&gt;src/renderer/</title>
<g id="a_edge17"><a xlink:title="no&#45;circular">
<path fill="none" stroke="orange" stroke-width="2" d="M203.58,-97.92C245.89,-81.53 354.34,-54.71 415,-108 419.34,-111.81 439.37,-185.17 448.92,-223.43"/>
<polygon fill="orange" stroke="orange" stroke-width="2" points="448.74,-231.63 452.2,-236.97 452.82,-230.64 448.74,-231.63"/>
<polyline fill="none" stroke="orange" stroke-width="2" points="450.78,-231.14 450.08,-228.22 "/>
<ellipse fill="none" stroke="orange" stroke-width="2" cx="449.51" cy="-225.89" rx="2.4" ry="2.4"/>
</a>
</g>
<text text-anchor="middle" x="403.71" y="-140.87" font-family="Helvetica,sans-Serif" font-size="9.00" fill="orange">no&#45;circular</text>
</g>
<!-- src/core/&#45;&gt;src/viewport/ -->
<g id="edge18" class="edge">
<title>src/core/&#45;&gt;src/viewport/</title>
<g id="a_edge18"><a xlink:title="no&#45;circular">
<path fill="none" stroke="orange" stroke-width="2" d="M192,-116.07C203.29,-136.17 227.8,-184.24 241.41,-212.8"/>
<polygon fill="orange" stroke="orange" stroke-width="2" points="242.97,-221.15 247.4,-225.71 246.78,-219.38 242.97,-221.15"/>
<polyline fill="none" stroke="orange" stroke-width="2" points="244.87,-220.27 243.61,-217.55 "/>
<ellipse fill="none" stroke="orange" stroke-width="2" cx="242.6" cy="-215.37" rx="2.4" ry="2.4"/>
</a>
</g>
<text text-anchor="middle" x="198.61" y="-163.46" font-family="Helvetica,sans-Serif" font-size="9.00" fill="orange">no&#45;circular</text>
</g>
<!-- src/debugger/&#45;&gt;src/controls/ -->
<g id="edge20" class="edge">
<title>src/debugger/&#45;&gt;src/controls/</title>
<path fill="none" stroke="#000000" stroke-width="2" stroke-opacity="0.200000" d="M404.54,-226C408.3,-223.43 412.04,-220.4 415,-217 432.24,-197.18 443.67,-168.4 449.48,-151.02"/>
<polygon fill="#000000" fill-opacity="0.200000" stroke="#000000" stroke-width="2" stroke-opacity="0.200000" points="451.52,-151.52 451.36,-145.17 447.52,-150.23 451.52,-151.52"/>
</g>
<!-- src/debugger/&#45;&gt;src/renderer/ -->
<g id="edge19" class="edge">
<title>src/debugger/&#45;&gt;src/renderer/</title>
<g id="a_edge19"><a xlink:title="no&#45;circular">
<path fill="none" stroke="orange" stroke-width="2" d="M415.23,-239.54C415.35,-239.56 415.48,-239.58 415.61,-239.6"/>
<polygon fill="orange" stroke="orange" stroke-width="2" points="421.42,-242.7 427.69,-241.61 422.11,-238.56 421.42,-242.7"/>
<polyline fill="none" stroke="orange" stroke-width="2" points="421.77,-240.63 418.81,-240.13 "/>
<ellipse fill="none" stroke="orange" stroke-width="2" cx="416.44" cy="-239.74" rx="2.4" ry="2.4"/>
</a>
</g>
<text text-anchor="middle" x="437.59" y="-232.4" font-family="Helvetica,sans-Serif" font-size="9.00" fill="orange">no&#45;circular</text>
</g>
<!-- src/editor/&#45;&gt;src/commands/ -->
<g id="edge26" class="edge">
<title>src/editor/&#45;&gt;src/commands/</title>
<path fill="none" stroke="#000000" stroke-width="2" stroke-opacity="0.200000" d="M291.92,-132.13C256.2,-133.8 191.89,-133.94 151.43,-132.55"/>
<polygon fill="#000000" fill-opacity="0.200000" stroke="#000000" stroke-width="2" stroke-opacity="0.200000" points="151.47,-130.45 145.39,-132.32 151.31,-134.65 151.47,-130.45"/>
</g>
<!-- src/editor/&#45;&gt;src/core/ -->
<g id="edge21" class="edge">
<title>src/editor/&#45;&gt;src/core/</title>
<g id="a_edge21"><a xlink:title="no&#45;circular">
<path fill="none" stroke="orange" stroke-width="2" d="M291.98,-128.33C273.1,-126.09 247.21,-121.94 225.76,-117.79"/>
<polygon fill="orange" stroke="orange" stroke-width="2" points="218.38,-114.15 212.08,-115.02 217.54,-118.27 218.38,-114.15"/>
<polyline fill="none" stroke="orange" stroke-width="2" points="217.96,-116.21 220.9,-116.81 "/>
<ellipse fill="none" stroke="orange" stroke-width="2" cx="223.25" cy="-117.28" rx="2.4" ry="2.4"/>
</a>
</g>
<text text-anchor="middle" x="229.7" y="-125.25" font-family="Helvetica,sans-Serif" font-size="9.00" fill="orange">no&#45;circular</text>
</g>
<!-- src/editor/&#45;&gt;src/debugger/ -->
<g id="edge22" class="edge">
<title>src/editor/&#45;&gt;src/debugger/</title>
<g id="a_edge22"><a xlink:title="no&#45;circular">
<path fill="none" stroke="orange" stroke-width="2" d="M325.63,-138.04C336.05,-154.78 358.61,-191.01 373.01,-214.13"/>
<polygon fill="orange" stroke="orange" stroke-width="2" points="375.43,-222 380.39,-225.99 379,-219.78 375.43,-222"/>
<polyline fill="none" stroke="orange" stroke-width="2" points="377.22,-220.89 375.63,-218.35 "/>
<ellipse fill="none" stroke="orange" stroke-width="2" cx="374.36" cy="-216.31" rx="2.4" ry="2.4"/>
</a>
</g>
<text text-anchor="middle" x="330.99" y="-174.78" font-family="Helvetica,sans-Serif" font-size="9.00" fill="orange">no&#45;circular</text>
</g>
<!-- src/editor/&#45;&gt;src/history/ -->
<g id="edge23" class="edge">
<title>src/editor/&#45;&gt;src/history/</title>
<g id="a_edge23"><a xlink:title="no&#45;circular">
<path fill="none" stroke="orange" stroke-width="2" d="M325.63,-119.7C334.46,-107.52 351.99,-86.28 365.9,-70.57"/>
<polygon fill="orange" stroke="orange" stroke-width="2" points="372.73,-66.17 375.21,-60.32 369.62,-63.35 372.73,-66.17"/>
<polyline fill="none" stroke="orange" stroke-width="2" points="371.18,-64.76 369.16,-66.98 "/>
<ellipse fill="none" stroke="orange" stroke-width="2" cx="367.55" cy="-68.76" rx="2.4" ry="2.4"/>
</a>
</g>
<text text-anchor="middle" x="327.72" y="-82.19" font-family="Helvetica,sans-Serif" font-size="9.00" fill="orange">no&#45;circular</text>
</g>
<!-- src/editor/&#45;&gt;src/loader/ -->
<g id="edge24" class="edge">
<title>src/editor/&#45;&gt;src/loader/</title>
<path fill="none" stroke="#000000" stroke-width="2" stroke-opacity="0.200000" d="M344.58,-138.04C353.1,-142.42 362.44,-147.66 370.08,-152.4"/>
<polygon fill="#000000" fill-opacity="0.200000" stroke="#000000" stroke-width="2" stroke-opacity="0.200000" points="369.37,-154.44 375.56,-155.91 371.64,-150.91 369.37,-154.44"/>
</g>
<!-- src/selector/ -->
<g id="node13" class="node">
<title>src/selector/</title>
<g id="a_node13"><a xlink:href="src/selector/" xlink:title="selector">
<polygon fill="#ffffcc" stroke="black" points="414,-138 362,-138 360,-136 360,-120 412,-120 414,-122 414,-138"/>
<polyline fill="none" stroke="black" points="412,-136 360,-136 "/>
<polyline fill="none" stroke="black" points="412,-136 412,-120 "/>
<polyline fill="none" stroke="black" points="412,-136 414,-138 "/>
<text text-anchor="start" x="370.5" y="-126.8" font-family="Helvetica,sans-Serif" font-size="9.00">selector</text>
</a>
</g>
</g>
<!-- src/editor/&#45;&gt;src/selector/ -->
<g id="edge25" class="edge">
<title>src/editor/&#45;&gt;src/selector/</title>
<g id="a_edge25"><a xlink:title="no&#45;circular">
<path fill="none" stroke="orange" stroke-width="2" d="M346.08,-124.59C346.22,-124.59 346.36,-124.58 346.5,-124.58"/>
<polygon fill="orange" stroke="orange" stroke-width="2" points="353.67,-126.68 359.67,-124.58 353.67,-122.48 353.67,-126.68"/>
<polyline fill="none" stroke="orange" stroke-width="2" points="353.67,-124.58 350.67,-124.58 "/>
<ellipse fill="none" stroke="orange" stroke-width="2" cx="348.27" cy="-124.58" rx="2.4" ry="2.4"/>
</a>
</g>
<text text-anchor="middle" x="368.48" y="-117.38" font-family="Helvetica,sans-Serif" font-size="9.00" fill="orange">no&#45;circular</text>
</g>
<!-- src/factory/&#45;&gt;src/controls/ -->
<g id="edge27" class="edge">
<title>src/factory/&#45;&gt;src/controls/</title>
<path fill="none" stroke="#000000" stroke-width="2" stroke-opacity="0.200000" d="M141.24,-212.53C205.25,-211.01 367.63,-204.76 415,-180 427.82,-173.3 438.4,-160.53 445.29,-150.46"/>
<polygon fill="#000000" fill-opacity="0.200000" stroke="#000000" stroke-width="2" stroke-opacity="0.200000" points="447.2,-151.38 448.73,-145.21 443.69,-149.08 447.2,-151.38"/>
</g>
<!-- src/factory/&#45;&gt;src/core/ -->
<g id="edge28" class="edge">
<title>src/factory/&#45;&gt;src/core/</title>
<path fill="none" stroke="#000000" stroke-width="2" stroke-opacity="0.200000" d="M120.88,-203.96C132.9,-185.5 160.35,-143.34 174.76,-121.19"/>
<polygon fill="#000000" fill-opacity="0.200000" stroke="#000000" stroke-width="2" stroke-opacity="0.200000" points="176.62,-122.19 178.13,-116.01 173.1,-119.9 176.62,-122.19"/>
</g>
<!-- src/factory/&#45;&gt;src/debugger/ -->
<g id="edge29" class="edge">
<title>src/factory/&#45;&gt;src/debugger/</title>
<path fill="none" stroke="#000000" stroke-width="2" stroke-opacity="0.200000" d="M135.16,-222.05C156.84,-231.23 192.57,-244.81 225,-250 248.7,-253.79 255.07,-251.83 279,-250 284.83,-249.55 286.22,-248.84 292,-248 312.04,-245.07 334.5,-241.96 352.44,-239.51"/>
<polygon fill="#000000" fill-opacity="0.200000" stroke="#000000" stroke-width="2" stroke-opacity="0.200000" points="353.17,-241.53 358.84,-238.65 352.61,-237.37 353.17,-241.53"/>
</g>
<!-- src/factory/&#45;&gt;src/editor/ -->
<g id="edge30" class="edge">
<title>src/factory/&#45;&gt;src/editor/</title>
<path fill="none" stroke="#000000" stroke-width="2" stroke-opacity="0.200000" d="M136.4,-203.95C143.29,-201.06 150.96,-197.87 158,-195 211.58,-173.16 225.83,-169.8 279,-147 283.53,-145.06 288.32,-142.92 292.93,-140.81"/>
<polygon fill="#000000" fill-opacity="0.200000" stroke="#000000" stroke-width="2" stroke-opacity="0.200000" points="294.08,-142.6 298.65,-138.18 292.32,-138.78 294.08,-142.6"/>
</g>
<!-- src/factory/&#45;&gt;src/loader/ -->
<g id="edge31" class="edge">
<title>src/factory/&#45;&gt;src/loader/</title>
<path fill="none" stroke="#000000" stroke-width="2" stroke-opacity="0.200000" d="M141.48,-208.31C191.49,-199.45 299.68,-180.29 353.8,-170.7"/>
<polygon fill="#000000" fill-opacity="0.200000" stroke="#000000" stroke-width="2" stroke-opacity="0.200000" points="354.27,-172.75 359.81,-169.64 353.54,-168.62 354.27,-172.75"/>
</g>
<!-- src/factory/&#45;&gt;src/renderer/ -->
<g id="edge32" class="edge">
<title>src/factory/&#45;&gt;src/renderer/</title>
<path fill="none" stroke="#000000" stroke-width="2" stroke-opacity="0.200000" d="M124.32,-222.12C145.15,-241.49 197.84,-285 251,-285 251,-285 251,-285 320,-285 359.64,-285 403.35,-269.07 429.73,-257.57"/>
<polygon fill="#000000" fill-opacity="0.200000" stroke="#000000" stroke-width="2" stroke-opacity="0.200000" points="430.78,-259.4 435.41,-255.05 429.08,-255.56 430.78,-259.4"/>
</g>
<!-- src/factory/&#45;&gt;src/viewport/ -->
<g id="edge33" class="edge">
<title>src/factory/&#45;&gt;src/viewport/</title>
<path fill="none" stroke="#000000" stroke-width="2" stroke-opacity="0.200000" d="M141.22,-217.24C163.33,-220.82 195.05,-225.95 218.72,-229.78"/>
<polygon fill="#000000" fill-opacity="0.200000" stroke="#000000" stroke-width="2" stroke-opacity="0.200000" points="218.6,-231.89 224.86,-230.77 219.27,-227.74 218.6,-231.89"/>
</g>
<!-- src/history/&#45;&gt;src/commands/ -->
<g id="edge34" class="edge">
<title>src/history/&#45;&gt;src/commands/</title>
<g id="a_edge34"><a xlink:title="no&#45;circular">
<path fill="none" stroke="orange" stroke-width="2" d="M359.98,-47.32C327.61,-43.67 270.97,-40.39 225,-54 189.08,-64.63 154.54,-91.87 134.04,-110.42"/>
<polygon fill="orange" stroke="orange" stroke-width="2" points="126.87,-114.27 123.93,-119.91 129.75,-117.33 126.87,-114.27"/>
<polyline fill="none" stroke="orange" stroke-width="2" points="128.31,-115.8 130.5,-113.75 "/>
<ellipse fill="none" stroke="orange" stroke-width="2" cx="132.25" cy="-112.11" rx="2.4" ry="2.4"/>
</a>
</g>
<text text-anchor="middle" x="202.97" y="-46.81" font-family="Helvetica,sans-Serif" font-size="9.00" fill="orange">no&#45;circular</text>
</g>
<!-- src/history/&#45;&gt;src/core/ -->
<g id="edge35" class="edge">
<title>src/history/&#45;&gt;src/core/</title>
<g id="a_edge35"><a xlink:title="no&#45;circular">
<path fill="none" stroke="orange" stroke-width="2" d="M359.87,-51.87C320.54,-53.53 248.26,-57.99 225,-69 216.24,-73.14 208.24,-80.06 201.8,-86.87"/>
<polygon fill="orange" stroke="orange" stroke-width="2" points="194.86,-91.78 192.57,-97.71 198.06,-94.5 194.86,-91.78"/>
<polyline fill="none" stroke="orange" stroke-width="2" points="196.46,-93.14 198.41,-90.85 "/>
<ellipse fill="none" stroke="orange" stroke-width="2" cx="199.96" cy="-89.03" rx="2.4" ry="2.4"/>
</a>
</g>
<text text-anchor="middle" x="251.87" y="-51.15" font-family="Helvetica,sans-Serif" font-size="9.00" fill="orange">no&#45;circular</text>
</g>
<!-- src/history/&#45;&gt;src/editor/ -->
<g id="edge36" class="edge">
<title>src/history/&#45;&gt;src/editor/</title>
<g id="a_edge36"><a xlink:title="no&#45;circular">
<path fill="none" stroke="orange" stroke-width="2" d="M380.31,-60.38C371.42,-72.64 353.81,-93.96 339.9,-109.65"/>
<polygon fill="orange" stroke="orange" stroke-width="2" points="333.09,-114.03 330.6,-119.88 336.19,-116.85 333.09,-114.03"/>
<polyline fill="none" stroke="orange" stroke-width="2" points="334.64,-115.44 336.66,-113.22 "/>
<ellipse fill="none" stroke="orange" stroke-width="2" cx="338.27" cy="-111.44" rx="2.4" ry="2.4"/>
</a>
</g>
<text text-anchor="middle" x="378.1" y="-83.61" font-family="Helvetica,sans-Serif" font-size="9.00" fill="orange">no&#45;circular</text>
</g>
<!-- src/loader/&#45;&gt;src/commands/ -->
<g id="edge38" class="edge">
<title>src/loader/&#45;&gt;src/commands/</title>
<path fill="none" stroke="#000000" stroke-width="2" stroke-opacity="0.200000" d="M359.64,-162.09C340.79,-159.96 314.81,-156.95 292,-154 243.12,-147.69 186.77,-139.59 151.03,-134.34"/>
<polygon fill="#000000" fill-opacity="0.200000" stroke="#000000" stroke-width="2" stroke-opacity="0.200000" points="151.28,-132.26 145.04,-133.46 150.67,-136.41 151.28,-132.26"/>
</g>
<!-- src/loader/&#45;&gt;src/core/ -->
<g id="edge37" class="edge">
<title>src/loader/&#45;&gt;src/core/</title>
<path fill="none" stroke="#000000" stroke-width="2" stroke-opacity="0.200000" d="M359.9,-159.88C340.94,-155.99 314.73,-150.26 292,-144 261.78,-135.68 254.52,-132.52 225,-122 221.67,-120.81 218.2,-119.54 214.76,-118.25"/>
<polygon fill="#000000" fill-opacity="0.200000" stroke="#000000" stroke-width="2" stroke-opacity="0.200000" points="215.38,-116.24 209.03,-116.07 213.89,-120.16 215.38,-116.24"/>
</g>
<!-- src/loader/&#45;&gt;src/editor/ -->
<g id="edge39" class="edge">
<title>src/loader/&#45;&gt;src/editor/</title>
<path fill="none" stroke="#000000" stroke-width="2" stroke-opacity="0.200000" d="M361.44,-155.97C352.97,-151.62 343.69,-146.42 336.07,-141.69"/>
<polygon fill="#000000" fill-opacity="0.200000" stroke="#000000" stroke-width="2" stroke-opacity="0.200000" points="336.79,-139.66 330.6,-138.19 334.53,-143.2 336.79,-139.66"/>
</g>
<!-- src/renderer/&#45;&gt;src/core/ -->
<g id="edge40" class="edge">
<title>src/renderer/&#45;&gt;src/core/</title>
<g id="a_edge40"><a xlink:title="no&#45;circular">
<path fill="none" stroke="orange" stroke-width="2" d="M450.77,-236.62C442.28,-207.87 419.65,-124.08 415,-120 363.08,-74.39 276.14,-87.47 225.64,-98.7"/>
<polygon fill="orange" stroke="orange" stroke-width="2" points="217.49,-98.44 212.12,-101.85 218.44,-102.53 217.49,-98.44"/>
<polyline fill="none" stroke="orange" stroke-width="2" points="217.97,-100.49 220.89,-99.81 "/>
<ellipse fill="none" stroke="orange" stroke-width="2" cx="223.23" cy="-99.27" rx="2.4" ry="2.4"/>
</a>
</g>
<text text-anchor="middle" x="319.58" y="-92.5" font-family="Helvetica,sans-Serif" font-size="9.00" fill="orange">no&#45;circular</text>
</g>
<!-- src/viewport/&#45;&gt;src/controls/ -->
<g id="edge47" class="edge">
<title>src/viewport/&#45;&gt;src/controls/</title>
<path fill="none" stroke="#000000" stroke-width="2" stroke-opacity="0.200000" d="M279.24,-231.03C322.24,-224.34 404.06,-210.8 415,-203 433,-190.17 443.95,-166.23 449.49,-150.72"/>
<polygon fill="#000000" fill-opacity="0.200000" stroke="#000000" stroke-width="2" stroke-opacity="0.200000" points="451.48,-151.39 451.42,-145.03 447.51,-150.04 451.48,-151.39"/>
</g>
<!-- src/viewport/&#45;&gt;src/core/ -->
<g id="edge43" class="edge">
<title>src/viewport/&#45;&gt;src/core/</title>
<g id="a_edge43"><a xlink:title="no&#45;circular">
<path fill="none" stroke="orange" stroke-width="2" d="M244.97,-225.88C233.63,-205.68 209.02,-157.41 195.46,-128.91"/>
<polygon fill="orange" stroke="orange" stroke-width="2" points="193.92,-120.62 189.49,-116.06 190.11,-122.38 193.92,-120.62"/>
<polyline fill="none" stroke="orange" stroke-width="2" points="192.02,-121.5 193.28,-124.22 "/>
<ellipse fill="none" stroke="orange" stroke-width="2" cx="194.29" cy="-126.4" rx="2.4" ry="2.4"/>
</a>
</g>
<text text-anchor="middle" x="194.48" y="-174.31" font-family="Helvetica,sans-Serif" font-size="9.00" fill="orange">no&#45;circular</text>
</g>
<!-- src/viewport/&#45;&gt;src/editor/ -->
<g id="edge44" class="edge">
<title>src/viewport/&#45;&gt;src/editor/</title>
<g id="a_edge44"><a xlink:title="no&#45;circular">
<path fill="none" stroke="orange" stroke-width="2" d="M258.54,-225.96C268.81,-209.22 291.02,-172.99 305.2,-149.87"/>
<polygon fill="orange" stroke="orange" stroke-width="2" points="311.13,-144.23 312.47,-138.01 307.55,-142.03 311.13,-144.23"/>
<polyline fill="none" stroke="orange" stroke-width="2" points="309.34,-143.13 307.77,-145.69 "/>
<ellipse fill="none" stroke="orange" stroke-width="2" cx="306.51" cy="-147.73" rx="2.4" ry="2.4"/>
</a>
</g>
<text text-anchor="middle" x="263.49" y="-174.82" font-family="Helvetica,sans-Serif" font-size="9.00" fill="orange">no&#45;circular</text>
</g>
<!-- src/viewport/&#45;&gt;src/optimizer/ -->
<g id="edge45" class="edge">
<title>src/viewport/&#45;&gt;src/optimizer/</title>
<path fill="none" stroke="#000000" stroke-width="2" stroke-opacity="0.200000" d="M273.92,-244.01C279.38,-246.36 285.34,-248.93 291.06,-251.39"/>
<polygon fill="#000000" fill-opacity="0.200000" stroke="#000000" stroke-width="2" stroke-opacity="0.200000" points="290.33,-253.37 296.67,-253.81 291.99,-249.51 290.33,-253.37"/>
</g>
<!-- src/viewport/&#45;&gt;src/renderer/ -->
<g id="edge46" class="edge">
<title>src/viewport/&#45;&gt;src/renderer/</title>
<g id="a_edge46"><a xlink:title="no&#45;circular">
<path fill="none" stroke="orange" stroke-width="2" d="M279.07,-238.55C297.72,-241.11 323.42,-244.68 346,-248 351.78,-248.85 353.17,-249.55 359,-250 380.33,-251.63 388,-251.4 413.5,-249.91"/>
<polygon fill="orange" stroke="orange" stroke-width="2" points="421.73,-251.53 427.59,-249.08 421.48,-247.33 421.73,-251.53"/>
<polyline fill="none" stroke="orange" stroke-width="2" points="421.61,-249.43 418.61,-249.61 "/>
<ellipse fill="none" stroke="orange" stroke-width="2" cx="416.21" cy="-249.75" rx="2.4" ry="2.4"/>
</a>
</g>
<text text-anchor="middle" x="330.48" y="-241.95" font-family="Helvetica,sans-Serif" font-size="9.00" fill="orange">no&#45;circular</text>
</g>
<!-- src/selector/&#45;&gt;src/core/ -->
<g id="edge41" class="edge">
<title>src/selector/&#45;&gt;src/core/</title>
<g id="a_edge41"><a xlink:title="no&#45;circular">
<path fill="none" stroke="orange" stroke-width="2" d="M365.18,-119.85C359.11,-117.55 352.38,-115.36 346,-114 305.79,-105.46 258.65,-104.45 226.01,-105.12"/>
<polygon fill="orange" stroke="orange" stroke-width="2" points="218.04,-103.25 212.1,-105.53 218.16,-107.45 218.04,-103.25"/>
<polyline fill="none" stroke="orange" stroke-width="2" points="218.1,-105.35 221.1,-105.26 "/>
<ellipse fill="none" stroke="orange" stroke-width="2" cx="223.5" cy="-105.19" rx="2.4" ry="2.4"/>
</a>
</g>
<text text-anchor="middle" x="267.06" y="-99.29" font-family="Helvetica,sans-Serif" font-size="9.00" fill="orange">no&#45;circular</text>
</g>
<!-- src/selector/&#45;&gt;src/editor/ -->
<g id="edge42" class="edge">
<title>src/selector/&#45;&gt;src/editor/</title>
<g id="a_edge42"><a xlink:title="no&#45;circular">
<path fill="none" stroke="orange" stroke-width="2" d="M359.67,-133.42C359.53,-133.42 359.39,-133.42 359.25,-133.43"/>
<polygon fill="orange" stroke="orange" stroke-width="2" points="352.09,-131.32 346.08,-133.41 352.08,-135.52 352.09,-131.32"/>
<polyline fill="none" stroke="orange" stroke-width="2" points="352.08,-133.42 355.08,-133.42 "/>
<ellipse fill="none" stroke="orange" stroke-width="2" cx="357.48" cy="-133.43" rx="2.4" ry="2.4"/>
</a>
</g>
<text text-anchor="middle" x="337.28" y="-136.23" font-family="Helvetica,sans-Serif" font-size="9.00" fill="orange">no&#45;circular</text>
</g>
</g>
</svg>
