<?xml version="1.0" encoding="UTF-8" standalone="no"?>
<!DOCTYPE svg PUBLIC "-//W3C//DTD SVG 1.1//EN"
 "http://www.w3.org/Graphics/SVG/1.1/DTD/svg11.dtd">
<!-- Generated by graphviz version 2.50.0 (20211204.2007)
 -->
<!-- Title: dependency&#45;cruiser output Pages: 1 -->
<svg width="573pt" height="442pt"
 viewBox="0.00 0.00 573.00 442.00" xmlns="http://www.w3.org/2000/svg" xmlns:xlink="http://www.w3.org/1999/xlink">
<g id="graph0" class="graph" transform="scale(1 1) rotate(0) translate(4 438)">
<title>dependency&#45;cruiser output</title>
<polygon fill="white" stroke="transparent" points="-4,4 -4,-438 569,-438 569,4 -4,4"/>
<g id="clust1" class="cluster">
<title>cluster_src</title>
<path fill="#ffffff" stroke="black" stroke-width="2" d="M20,-8C20,-8 545,-8 545,-8 551,-8 557,-14 557,-20 557,-20 557,-414 557,-414 557,-420 551,-426 545,-426 545,-426 20,-426 20,-426 14,-426 8,-420 8,-414 8,-414 8,-20 8,-20 8,-14 14,-8 20,-8"/>
<text text-anchor="middle" x="282.5" y="-414.8" font-family="Helvetica,sans-Serif" font-weight="bold" font-size="9.00">src</text>
</g>
<!-- src/Sej.ts -->
<g id="node1" class="node">
<title>src/Sej.ts</title>
<g id="a_node1"><a xlink:href="src/Sej.ts" xlink:title="Sej.ts">
<path fill="#ddfeff" stroke="black" d="M64,-210C64,-210 22,-210 22,-210 19,-210 16,-207 16,-204 16,-204 16,-198 16,-198 16,-195 19,-192 22,-192 22,-192 64,-192 64,-192 67,-192 70,-195 70,-198 70,-198 70,-204 70,-204 70,-207 67,-210 64,-210"/>
<text text-anchor="start" x="31.5" y="-198.8" font-family="Helvetica,sans-Serif" font-size="9.00">Sej.ts</text>
</a>
</g>
</g>
<!-- src/commands/ -->
<g id="node2" class="node">
<title>src/commands/</title>
<g id="a_node2"><a xlink:href="src/commands/" xlink:title="commands">
<polygon fill="#ffffcc" stroke="black" points="145,-102 85,-102 83,-100 83,-84 143,-84 145,-86 145,-102"/>
<polyline fill="none" stroke="black" points="143,-100 83,-100 "/>
<polyline fill="none" stroke="black" points="143,-100 143,-84 "/>
<polyline fill="none" stroke="black" points="143,-100 145,-102 "/>
<text text-anchor="start" x="91" y="-90.8" font-family="Helvetica,sans-Serif" font-size="9.00">commands</text>
</a>
</g>
</g>
<!-- src/Sej.ts&#45;&gt;src/commands/ -->
<g id="edge1" class="edge">
<title>src/Sej.ts&#45;&gt;src/commands/</title>
<path fill="none" stroke="#000000" stroke-width="2" stroke-opacity="0.200000" d="M45.99,-191.82C50.17,-174.32 61.34,-135.72 83,-111 84.71,-109.05 86.69,-107.24 88.79,-105.6"/>
<polygon fill="#000000" fill-opacity="0.200000" stroke="#000000" stroke-width="2" stroke-opacity="0.200000" points="90.17,-107.2 93.87,-102.03 87.76,-103.76 90.17,-107.2"/>
</g>
<!-- src/controls/ -->
<g id="node3" class="node">
<title>src/controls/</title>
<g id="a_node3"><a xlink:href="src/controls/" xlink:title="controls">
<polygon fill="#ffffcc" stroke="black" points="346,-216 294,-216 292,-214 292,-198 344,-198 346,-200 346,-216"/>
<polyline fill="none" stroke="black" points="344,-214 292,-214 "/>
<polyline fill="none" stroke="black" points="344,-214 344,-198 "/>
<polyline fill="none" stroke="black" points="344,-214 346,-216 "/>
<text text-anchor="start" x="302.5" y="-204.8" font-family="Helvetica,sans-Serif" font-size="9.00">controls</text>
</a>
</g>
</g>
<!-- src/Sej.ts&#45;&gt;src/controls/ -->
<g id="edge2" class="edge">
<title>src/Sej.ts&#45;&gt;src/controls/</title>
<path fill="none" stroke="#000000" stroke-width="2" stroke-opacity="0.200000" d="M54.45,-191.86C61.88,-185.94 72.39,-178.67 83,-175 165.47,-146.51 199.23,-128.66 279,-164 292.06,-169.79 302.62,-182.35 309.43,-192.41"/>
<polygon fill="#000000" fill-opacity="0.200000" stroke="#000000" stroke-width="2" stroke-opacity="0.200000" points="307.82,-193.77 312.83,-197.68 311.35,-191.5 307.82,-193.77"/>
</g>
<!-- src/core/ -->
<g id="node4" class="node">
<title>src/core/</title>
<g id="a_node4"><a xlink:href="src/core/" xlink:title="core">
<polygon fill="#ffffcc" stroke="black" points="212,-252 160,-252 158,-250 158,-234 210,-234 212,-236 212,-252"/>
<polyline fill="none" stroke="black" points="210,-250 158,-250 "/>
<polyline fill="none" stroke="black" points="210,-250 210,-234 "/>
<polyline fill="none" stroke="black" points="210,-250 212,-252 "/>
<text text-anchor="start" x="175.5" y="-240.8" font-family="Helvetica,sans-Serif" font-size="9.00">core</text>
</a>
</g>
</g>
<!-- src/Sej.ts&#45;&gt;src/core/ -->
<g id="edge3" class="edge">
<title>src/Sej.ts&#45;&gt;src/core/</title>
<path fill="none" stroke="#000000" stroke-width="2" stroke-opacity="0.200000" d="M66.54,-210.13C71.9,-212.18 77.62,-214.25 83,-216 105.68,-223.37 131.69,-230.29 151.63,-235.28"/>
<polygon fill="#000000" fill-opacity="0.200000" stroke="#000000" stroke-width="2" stroke-opacity="0.200000" points="151.29,-237.35 157.62,-236.76 152.3,-233.28 151.29,-237.35"/>
</g>
<!-- src/debugger/ -->
<g id="node5" class="node">
<title>src/debugger/</title>
<g id="a_node5"><a xlink:href="src/debugger/" xlink:title="debugger">
<polygon fill="#ffffcc" stroke="black" points="415,-216 361,-216 359,-214 359,-198 413,-198 415,-200 415,-216"/>
<polyline fill="none" stroke="black" points="413,-214 359,-214 "/>
<polyline fill="none" stroke="black" points="413,-214 413,-198 "/>
<polyline fill="none" stroke="black" points="413,-214 415,-216 "/>
<text text-anchor="start" x="367" y="-204.8" font-family="Helvetica,sans-Serif" font-size="9.00">debugger</text>
</a>
</g>
</g>
<!-- src/Sej.ts&#45;&gt;src/debugger/ -->
<g id="edge4" class="edge">
<title>src/Sej.ts&#45;&gt;src/debugger/</title>
<path fill="none" stroke="#000000" stroke-width="2" stroke-opacity="0.200000" d="M48.26,-191.61C54.19,-179.72 66.16,-159.61 83,-150 158.7,-106.79 192.85,-129.71 279,-143 309.59,-147.72 319.78,-145.55 346,-162 358.4,-169.78 369.21,-182.52 376.45,-192.46"/>
<polygon fill="#000000" fill-opacity="0.200000" stroke="#000000" stroke-width="2" stroke-opacity="0.200000" points="374.93,-193.94 380.09,-197.64 378.36,-191.53 374.93,-193.94"/>
</g>
<!-- src/editor/ -->
<g id="node6" class="node">
<title>src/editor/</title>
<g id="a_node6"><a xlink:href="src/editor/" xlink:title="editor">
<polygon fill="#ffffcc" stroke="black" points="482,-280 430,-280 428,-278 428,-262 480,-262 482,-264 482,-280"/>
<polyline fill="none" stroke="black" points="480,-278 428,-278 "/>
<polyline fill="none" stroke="black" points="480,-278 480,-262 "/>
<polyline fill="none" stroke="black" points="480,-278 482,-280 "/>
<text text-anchor="start" x="443" y="-268.8" font-family="Helvetica,sans-Serif" font-size="9.00">editor</text>
</a>
</g>
</g>
<!-- src/Sej.ts&#45;&gt;src/editor/ -->
<g id="edge5" class="edge">
<title>src/Sej.ts&#45;&gt;src/editor/</title>
<path fill="none" stroke="#000000" stroke-width="2" stroke-opacity="0.200000" d="M44.6,-210.04C46.48,-230.74 53.95,-281.92 83,-310 108.16,-334.32 123.57,-327.7 158,-334 240.25,-349.05 263.47,-354.39 346,-341 377.91,-335.82 388.32,-336.25 415,-318 427.52,-309.44 438.23,-295.77 445.24,-285.37"/>
<polygon fill="#000000" fill-opacity="0.200000" stroke="#000000" stroke-width="2" stroke-opacity="0.200000" points="447.04,-286.45 448.55,-280.28 443.52,-284.16 447.04,-286.45"/>
</g>
<!-- src/factory/ -->
<g id="node7" class="node">
<title>src/factory/</title>
<g id="a_node7"><a xlink:href="src/factory/" xlink:title="factory">
<polygon fill="#ffffcc" stroke="black" points="141,-210 89,-210 87,-208 87,-192 139,-192 141,-194 141,-210"/>
<polyline fill="none" stroke="black" points="139,-208 87,-208 "/>
<polyline fill="none" stroke="black" points="139,-208 139,-192 "/>
<polyline fill="none" stroke="black" points="139,-208 141,-210 "/>
<text text-anchor="start" x="100" y="-198.8" font-family="Helvetica,sans-Serif" font-size="9.00">factory</text>
</a>
</g>
</g>
<!-- src/Sej.ts&#45;&gt;src/factory/ -->
<g id="edge6" class="edge">
<title>src/Sej.ts&#45;&gt;src/factory/</title>
<path fill="none" stroke="#000000" stroke-width="2" stroke-opacity="0.200000" d="M70.09,-201C73.61,-201 77.25,-201 80.86,-201"/>
<polygon fill="#000000" fill-opacity="0.200000" stroke="#000000" stroke-width="2" stroke-opacity="0.200000" points="80.88,-203.1 86.88,-201 80.88,-198.9 80.88,-203.1"/>
</g>
<!-- src/gis/ -->
<g id="node8" class="node">
<title>src/gis/</title>
<g id="a_node8"><a xlink:href="src/gis/" xlink:title="gis">
<polygon fill="#ffffcc" stroke="black" points="212,-310 160,-310 158,-308 158,-292 210,-292 212,-294 212,-310"/>
<polyline fill="none" stroke="black" points="210,-308 158,-308 "/>
<polyline fill="none" stroke="black" points="210,-308 210,-292 "/>
<polyline fill="none" stroke="black" points="210,-308 212,-310 "/>
<text text-anchor="start" x="178.5" y="-298.8" font-family="Helvetica,sans-Serif" font-size="9.00">gis</text>
</a>
</g>
</g>
<!-- src/Sej.ts&#45;&gt;src/gis/ -->
<g id="edge7" class="edge">
<title>src/Sej.ts&#45;&gt;src/gis/</title>
<path fill="none" stroke="#000000" stroke-width="2" stroke-opacity="0.200000" d="M56.6,-210.18C77.56,-225.41 120.95,-256.85 158,-283 160.45,-284.73 163.04,-286.54 165.59,-288.32"/>
<polygon fill="#000000" fill-opacity="0.200000" stroke="#000000" stroke-width="2" stroke-opacity="0.200000" points="164.61,-290.19 170.74,-291.89 167.01,-286.74 164.61,-290.19"/>
</g>
<!-- src/history/ -->
<g id="node9" class="node">
<title>src/history/</title>
<g id="a_node9"><a xlink:href="src/history/" xlink:title="history">
<polygon fill="#ffffcc" stroke="black" points="549,-82 497,-82 495,-80 495,-64 547,-64 549,-66 549,-82"/>
<polyline fill="none" stroke="black" points="547,-80 495,-80 "/>
<polyline fill="none" stroke="black" points="547,-80 547,-64 "/>
<polyline fill="none" stroke="black" points="547,-80 549,-82 "/>
<text text-anchor="start" x="508" y="-70.8" font-family="Helvetica,sans-Serif" font-size="9.00">history</text>
</a>
</g>
</g>
<!-- src/Sej.ts&#45;&gt;src/history/ -->
<g id="edge8" class="edge">
<title>src/Sej.ts&#45;&gt;src/history/</title>
<path fill="none" stroke="#000000" stroke-width="2" stroke-opacity="0.200000" d="M44.99,-191.6C48.44,-160.51 60.99,-61.71 83,-40 115.78,-7.67 137.96,-17 184,-17 184,-17 184,-17 388,-17 429.97,-17 444.91,-6.37 482,-26 495.73,-33.27 506.51,-47.6 513.23,-58.54"/>
<polygon fill="#000000" fill-opacity="0.200000" stroke="#000000" stroke-width="2" stroke-opacity="0.200000" points="511.52,-59.78 516.36,-63.9 515.15,-57.66 511.52,-59.78"/>
</g>
<!-- src/loader/ -->
<g id="node10" class="node">
<title>src/loader/</title>
<g id="a_node10"><a xlink:href="src/loader/" xlink:title="loader">
<polygon fill="#ffffcc" stroke="black" points="549,-203 497,-203 495,-201 495,-185 547,-185 549,-187 549,-203"/>
<polyline fill="none" stroke="black" points="547,-201 495,-201 "/>
<polyline fill="none" stroke="black" points="547,-201 547,-185 "/>
<polyline fill="none" stroke="black" points="547,-201 549,-203 "/>
<text text-anchor="start" x="508.5" y="-191.8" font-family="Helvetica,sans-Serif" font-size="9.00">loader</text>
</a>
</g>
</g>
<!-- src/Sej.ts&#45;&gt;src/loader/ -->
<g id="edge9" class="edge">
<title>src/Sej.ts&#45;&gt;src/loader/</title>
<path fill="none" stroke="#000000" stroke-width="2" stroke-opacity="0.200000" d="M43.71,-191.91C43.47,-167.71 46.34,-101.22 83,-67 116.58,-35.65 138.06,-45 184,-45 184,-45 184,-45 388,-45 430.91,-45 450.65,-37.71 482,-67 498.45,-82.37 512.49,-148.16 518.23,-178.53"/>
<polygon fill="#000000" fill-opacity="0.200000" stroke="#000000" stroke-width="2" stroke-opacity="0.200000" points="516.23,-179.26 519.39,-184.77 520.36,-178.49 516.23,-179.26"/>
</g>
<!-- src/optimizer/ -->
<g id="node11" class="node">
<title>src/optimizer/</title>
<g id="a_node11"><a xlink:href="src/optimizer/" xlink:title="optimizer">
<polygon fill="#ffffcc" stroke="black" points="346,-330 294,-330 292,-328 292,-312 344,-312 346,-314 346,-330"/>
<polyline fill="none" stroke="black" points="344,-328 292,-328 "/>
<polyline fill="none" stroke="black" points="344,-328 344,-312 "/>
<polyline fill="none" stroke="black" points="344,-328 346,-330 "/>
<text text-anchor="start" x="300" y="-318.8" font-family="Helvetica,sans-Serif" font-size="9.00">optimizer</text>
</a>
</g>
</g>
<!-- src/Sej.ts&#45;&gt;src/optimizer/ -->
<g id="edge10" class="edge">
<title>src/Sej.ts&#45;&gt;src/optimizer/</title>
<path fill="none" stroke="#000000" stroke-width="2" stroke-opacity="0.200000" d="M45.77,-210.23C49.59,-227.77 60.16,-266.22 83,-289 136.79,-342.65 235.11,-335.59 285.83,-327.46"/>
<polygon fill="#000000" fill-opacity="0.200000" stroke="#000000" stroke-width="2" stroke-opacity="0.200000" points="286.2,-329.53 291.78,-326.47 285.51,-325.38 286.2,-329.53"/>
</g>
<!-- src/renderer/ -->
<g id="node12" class="node">
<title>src/renderer/</title>
<g id="a_node12"><a xlink:href="src/renderer/" xlink:title="renderer">
<polygon fill="#ffffcc" stroke="black" points="482,-226 430,-226 428,-224 428,-208 480,-208 482,-210 482,-226"/>
<polyline fill="none" stroke="black" points="480,-224 428,-224 "/>
<polyline fill="none" stroke="black" points="480,-224 480,-208 "/>
<polyline fill="none" stroke="black" points="480,-224 482,-226 "/>
<text text-anchor="start" x="437" y="-214.8" font-family="Helvetica,sans-Serif" font-size="9.00">renderer</text>
</a>
</g>
</g>
<!-- src/Sej.ts&#45;&gt;src/renderer/ -->
<g id="edge11" class="edge">
<title>src/Sej.ts&#45;&gt;src/renderer/</title>
<path fill="none" stroke="#000000" stroke-width="2" stroke-opacity="0.200000" d="M43.62,-191.88C43.2,-168.29 45.76,-105.26 83,-78 105.24,-61.72 117.58,-75.27 145,-78 267.82,-90.25 321.42,-62.52 415,-143 433.27,-158.72 444.25,-185.16 449.7,-201.81"/>
<polygon fill="#000000" fill-opacity="0.200000" stroke="#000000" stroke-width="2" stroke-opacity="0.200000" points="447.8,-202.77 451.59,-207.88 451.81,-201.53 447.8,-202.77"/>
</g>
<!-- src/selector/ -->
<g id="node13" class="node">
<title>src/selector/</title>
<g id="a_node13"><a xlink:href="src/selector/" xlink:title="selector">
<polygon fill="#ffffcc" stroke="black" points="549,-302 497,-302 495,-300 495,-284 547,-284 549,-286 549,-302"/>
<polyline fill="none" stroke="black" points="547,-300 495,-300 "/>
<polyline fill="none" stroke="black" points="547,-300 547,-284 "/>
<polyline fill="none" stroke="black" points="547,-300 549,-302 "/>
<text text-anchor="start" x="505.5" y="-290.8" font-family="Helvetica,sans-Serif" font-size="9.00">selector</text>
</a>
</g>
</g>
<!-- src/Sej.ts&#45;&gt;src/selector/ -->
<g id="edge12" class="edge">
<title>src/Sej.ts&#45;&gt;src/selector/</title>
<path fill="none" stroke="#000000" stroke-width="2" stroke-opacity="0.200000" d="M44.67,-210.13C46.7,-232.16 54.56,-289.08 83,-325 115.41,-365.93 131.79,-385 184,-385 184,-385 184,-385 388,-385 442.22,-385 490.33,-332.64 510.68,-306.92"/>
<polygon fill="#000000" fill-opacity="0.200000" stroke="#000000" stroke-width="2" stroke-opacity="0.200000" points="512.36,-308.19 514.38,-302.16 509.04,-305.61 512.36,-308.19"/>
</g>
<!-- src/spatial/ -->
<g id="node14" class="node">
<title>src/spatial/</title>
<g id="a_node14"><a xlink:href="src/spatial/" xlink:title="spatial">
<polygon fill="#ffffcc" stroke="black" points="279,-188 227,-188 225,-186 225,-170 277,-170 279,-172 279,-188"/>
<polyline fill="none" stroke="black" points="277,-186 225,-186 "/>
<polyline fill="none" stroke="black" points="277,-186 277,-170 "/>
<polyline fill="none" stroke="black" points="277,-186 279,-188 "/>
<text text-anchor="start" x="238" y="-176.8" font-family="Helvetica,sans-Serif" font-size="9.00">spatial</text>
</a>
</g>
</g>
<!-- src/Sej.ts&#45;&gt;src/spatial/ -->
<g id="edge13" class="edge">
<title>src/Sej.ts&#45;&gt;src/spatial/</title>
<path fill="none" stroke="#000000" stroke-width="2" stroke-opacity="0.200000" d="M63.87,-191.98C69.9,-189.62 76.61,-187.36 83,-186 129.36,-176.11 184.51,-175.95 218.64,-177.16"/>
<polygon fill="#000000" fill-opacity="0.200000" stroke="#000000" stroke-width="2" stroke-opacity="0.200000" points="218.68,-179.26 224.76,-177.39 218.84,-175.06 218.68,-179.26"/>
</g>
<!-- src/utils/ -->
<g id="node15" class="node">
<title>src/utils/</title>
<g id="a_node15"><a xlink:href="src/utils/" xlink:title="utils">
<polygon fill="#ffffcc" stroke="black" points="549,-377 497,-377 495,-375 495,-359 547,-359 549,-361 549,-377"/>
<polyline fill="none" stroke="black" points="547,-375 495,-375 "/>
<polyline fill="none" stroke="black" points="547,-375 547,-359 "/>
<polyline fill="none" stroke="black" points="547,-375 549,-377 "/>
<text text-anchor="start" x="513.5" y="-365.8" font-family="Helvetica,sans-Serif" font-size="9.00">utils</text>
</a>
</g>
</g>
<!-- src/Sej.ts&#45;&gt;src/utils/ -->
<g id="edge14" class="edge">
<title>src/Sej.ts&#45;&gt;src/utils/</title>
<path fill="none" stroke="#000000" stroke-width="2" stroke-opacity="0.200000" d="M43.65,-210.3C43.17,-236.5 45.33,-311.91 83,-356 114.69,-393.09 135.21,-399 184,-399 184,-399 184,-399 388,-399 424.15,-399 464.42,-388 491.07,-379.11"/>
<polygon fill="#000000" fill-opacity="0.200000" stroke="#000000" stroke-width="2" stroke-opacity="0.200000" points="491.88,-381.05 496.88,-377.13 490.52,-377.08 491.88,-381.05"/>
</g>
<!-- src/viewport/ -->
<g id="node16" class="node">
<title>src/viewport/</title>
<g id="a_node16"><a xlink:href="src/viewport/" xlink:title="viewport">
<polygon fill="#ffffcc" stroke="black" points="279,-316 227,-316 225,-314 225,-298 277,-298 279,-300 279,-316"/>
<polyline fill="none" stroke="black" points="277,-314 225,-314 "/>
<polyline fill="none" stroke="black" points="277,-314 277,-298 "/>
<polyline fill="none" stroke="black" points="277,-314 279,-316 "/>
<text text-anchor="start" x="234.5" y="-304.8" font-family="Helvetica,sans-Serif" font-size="9.00">viewport</text>
</a>
</g>
</g>
<!-- src/Sej.ts&#45;&gt;src/viewport/ -->
<g id="edge15" class="edge">
<title>src/Sej.ts&#45;&gt;src/viewport/</title>
<path fill="none" stroke="#000000" stroke-width="2" stroke-opacity="0.200000" d="M49.1,-210.23C62.87,-233.96 103.43,-296.61 158,-316 177.36,-322.88 200.34,-320.75 218.6,-316.84"/>
<polygon fill="#000000" fill-opacity="0.200000" stroke="#000000" stroke-width="2" stroke-opacity="0.200000" points="219.23,-318.85 224.61,-315.45 218.29,-314.75 219.23,-318.85"/>
</g>
<!-- src/commands/&#45;&gt;src/core/ -->
<g id="edge17" class="edge">
<title>src/commands/&#45;&gt;src/core/</title>
<path fill="none" stroke="#000000" stroke-width="2" stroke-opacity="0.200000" d="M119.32,-102.38C130.93,-127.64 162.94,-197.21 177.1,-228"/>
<polygon fill="#000000" fill-opacity="0.200000" stroke="#000000" stroke-width="2" stroke-opacity="0.200000" points="175.27,-229.05 179.69,-233.62 179.09,-227.29 175.27,-229.05"/>
</g>
<!-- src/commands/&#45;&gt;src/editor/ -->
<g id="edge16" class="edge">
<title>src/commands/&#45;&gt;src/editor/</title>
<path fill="none" stroke="#000000" stroke-width="2" stroke-opacity="0.200000" d="M145.06,-91.25C190.39,-93.2 278.14,-104.64 346,-135 380.81,-150.57 392.71,-155.06 415,-186 425.93,-201.17 419.85,-209.18 428,-226 433.23,-236.8 441.06,-248.09 446.76,-256.87"/>
<polygon fill="#000000" fill-opacity="0.200000" stroke="#000000" stroke-width="2" stroke-opacity="0.200000" points="445.01,-258.04 449.99,-261.99 448.56,-255.8 445.01,-258.04"/>
</g>
<!-- src/controls/&#45;&gt;src/core/ -->
<g id="edge18" class="edge">
<title>src/controls/&#45;&gt;src/core/</title>
<path fill="none" stroke="#000000" stroke-width="2" stroke-opacity="0.200000" d="M305.75,-216.11C298.09,-219.35 288,-222.46 279,-225 261.63,-229.91 242.31,-234.96 225.81,-238.7"/>
<polygon fill="#000000" fill-opacity="0.200000" stroke="#000000" stroke-width="2" stroke-opacity="0.200000" points="217.57,-238.31 212.14,-241.61 218.45,-242.42 217.57,-238.31"/>
<polyline fill="none" stroke="#000000" stroke-width="2" stroke-opacity="0.200000" points="218.01,-240.36 220.95,-239.74 "/>
<ellipse fill="none" stroke="#000000" stroke-width="2" stroke-opacity="0.200000" cx="223.29" cy="-239.24" rx="2.4" ry="2.4"/>
</g>
<!-- src/controls/&#45;&gt;src/debugger/ -->
<g id="edge19" class="edge">
<title>src/controls/&#45;&gt;src/debugger/</title>
<path fill="none" stroke="#000000" stroke-width="2" stroke-opacity="0.200000" d="M346.08,-202.59C346.22,-202.59 346.35,-202.58 346.48,-202.58"/>
<polygon fill="#000000" fill-opacity="0.200000" stroke="#000000" stroke-width="2" stroke-opacity="0.200000" points="352.81,-204.67 358.8,-202.56 352.8,-200.47 352.81,-204.67"/>
<polyline fill="none" stroke="#000000" stroke-width="2" stroke-opacity="0.200000" points="352.8,-202.57 349.8,-202.57 "/>
<ellipse fill="none" stroke="#000000" stroke-width="2" stroke-opacity="0.200000" cx="347.4" cy="-202.58" rx="2.4" ry="2.4"/>
</g>
<!-- src/core/&#45;&gt;src/controls/ -->
<g id="edge20" class="edge">
<title>src/core/&#45;&gt;src/controls/</title>
<path fill="none" stroke="#000000" stroke-width="2" stroke-opacity="0.200000" d="M204.59,-233.93C221.14,-228.56 246.25,-222.07 278.08,-213.19"/>
<polygon fill="#000000" fill-opacity="0.200000" stroke="#000000" stroke-width="2" stroke-opacity="0.200000" points="286.41,-213.02 291.62,-209.38 285.27,-208.98 286.41,-213.02"/>
<polyline fill="none" stroke="#000000" stroke-width="2" stroke-opacity="0.200000" points="285.84,-211 282.95,-211.81 "/>
<ellipse fill="none" stroke="#000000" stroke-width="2" stroke-opacity="0.200000" cx="280.64" cy="-212.46" rx="2.4" ry="2.4"/>
</g>
<!-- src/core/&#45;&gt;src/editor/ -->
<g id="edge21" class="edge">
<title>src/core/&#45;&gt;src/editor/</title>
<path fill="none" stroke="#000000" stroke-width="2" stroke-opacity="0.200000" d="M212.35,-250.32C219.6,-256.96 216.09,-264.3 225,-269 256.64,-285.69 356.92,-276.94 413.73,-272.35"/>
<polygon fill="#000000" fill-opacity="0.200000" stroke="#000000" stroke-width="2" stroke-opacity="0.200000" points="422.02,-273.81 427.84,-271.24 421.69,-269.62 422.02,-273.81"/>
<polyline fill="none" stroke="#000000" stroke-width="2" stroke-opacity="0.200000" points="421.86,-271.72 418.87,-271.95 "/>
<ellipse fill="none" stroke="#000000" stroke-width="2" stroke-opacity="0.200000" cx="416.47" cy="-272.14" rx="2.4" ry="2.4"/>
</g>
<!-- src/core/&#45;&gt;src/renderer/ -->
<g id="edge22" class="edge">
<title>src/core/&#45;&gt;src/renderer/</title>
<path fill="none" stroke="#000000" stroke-width="2" stroke-opacity="0.200000" d="M212.1,-238.22C230.76,-237.21 256.46,-236.78 279,-235 325.41,-231.33 378.32,-223.57 413.7,-219.12"/>
<polygon fill="#000000" fill-opacity="0.200000" stroke="#000000" stroke-width="2" stroke-opacity="0.200000" points="422.01,-220.23 427.72,-217.43 421.51,-216.06 422.01,-220.23"/>
<polyline fill="none" stroke="#000000" stroke-width="2" stroke-opacity="0.200000" points="421.76,-218.15 418.78,-218.51 "/>
<ellipse fill="none" stroke="#000000" stroke-width="2" stroke-opacity="0.200000" cx="416.4" cy="-218.79" rx="2.4" ry="2.4"/>
</g>
<!-- src/core/&#45;&gt;src/spatial/ -->
<g id="edge23" class="edge">
<title>src/core/&#45;&gt;src/spatial/</title>
<path fill="none" stroke="#000000" stroke-width="2" stroke-opacity="0.200000" d="M195.31,-233.83C204.77,-224.52 219.7,-209.82 231.72,-197.98"/>
<polygon fill="#000000" fill-opacity="0.200000" stroke="#000000" stroke-width="2" stroke-opacity="0.200000" points="238.9,-193.86 241.7,-188.15 235.96,-190.87 238.9,-193.86"/>
<polyline fill="none" stroke="#000000" stroke-width="2" stroke-opacity="0.200000" points="237.43,-192.36 235.29,-194.47 "/>
<ellipse fill="none" stroke="#000000" stroke-width="2" stroke-opacity="0.200000" cx="233.58" cy="-196.15" rx="2.4" ry="2.4"/>
</g>
<!-- src/core/&#45;&gt;src/viewport/ -->
<g id="edge24" class="edge">
<title>src/core/&#45;&gt;src/viewport/</title>
<path fill="none" stroke="#000000" stroke-width="2" stroke-opacity="0.200000" d="M209.27,-252.08C210.23,-253.02 211.15,-253.99 212,-255 220.84,-265.49 216.16,-272.51 225,-283 226.93,-285.3 229.23,-287.43 231.64,-289.43"/>
<polygon fill="#000000" fill-opacity="0.200000" stroke="#000000" stroke-width="2" stroke-opacity="0.200000" points="236.81,-295.94 242.87,-297.86 239.34,-292.58 236.81,-295.94"/>
<polyline fill="none" stroke="#000000" stroke-width="2" stroke-opacity="0.200000" points="238.07,-294.26 235.68,-292.46 "/>
<ellipse fill="none" stroke="#000000" stroke-width="2" stroke-opacity="0.200000" cx="233.76" cy="-291.02" rx="2.4" ry="2.4"/>
</g>
<!-- src/debugger/&#45;&gt;src/controls/ -->
<g id="edge27" class="edge">
<title>src/debugger/&#45;&gt;src/controls/</title>
<path fill="none" stroke="#000000" stroke-width="2" stroke-opacity="0.200000" d="M358.8,-211.44C356.7,-211.48 354.57,-211.5 352.44,-211.5"/>
<polygon fill="#000000" fill-opacity="0.200000" stroke="#000000" stroke-width="2" stroke-opacity="0.200000" points="352.11,-209.39 346.08,-211.41 352.06,-213.59 352.11,-209.39"/>
</g>
<!-- src/debugger/&#45;&gt;src/core/ -->
<g id="edge25" class="edge">
<title>src/debugger/&#45;&gt;src/core/</title>
<path fill="none" stroke="#000000" stroke-width="2" stroke-opacity="0.200000" d="M364.7,-216.02C358.73,-218.26 352.19,-220.46 346,-222 305.81,-232.03 258.67,-237.48 226.02,-240.29"/>
<polygon fill="#000000" fill-opacity="0.200000" stroke="#000000" stroke-width="2" stroke-opacity="0.200000" points="217.92,-238.84 212.11,-241.41 218.26,-243.02 217.92,-238.84"/>
<polyline fill="none" stroke="#000000" stroke-width="2" stroke-opacity="0.200000" points="218.09,-240.93 221.08,-240.69 "/>
<ellipse fill="none" stroke="#000000" stroke-width="2" stroke-opacity="0.200000" cx="223.48" cy="-240.5" rx="2.4" ry="2.4"/>
</g>
<!-- src/debugger/&#45;&gt;src/editor/ -->
<g id="edge28" class="edge">
<title>src/debugger/&#45;&gt;src/editor/</title>
<path fill="none" stroke="#000000" stroke-width="2" stroke-opacity="0.200000" d="M401.36,-216.25C413.73,-227.09 431.89,-244.8 443.32,-257.22"/>
<polygon fill="#000000" fill-opacity="0.200000" stroke="#000000" stroke-width="2" stroke-opacity="0.200000" points="441.92,-258.8 447.49,-261.87 445.04,-256 441.92,-258.8"/>
</g>
<!-- src/debugger/&#45;&gt;src/renderer/ -->
<g id="edge26" class="edge">
<title>src/debugger/&#45;&gt;src/renderer/</title>
<path fill="none" stroke="#000000" stroke-width="2" stroke-opacity="0.200000" d="M415.23,-211.13C415.35,-211.14 415.48,-211.16 415.61,-211.18"/>
<polygon fill="#000000" fill-opacity="0.200000" stroke="#000000" stroke-width="2" stroke-opacity="0.200000" points="421.44,-214.19 427.69,-213.01 422.07,-210.04 421.44,-214.19"/>
<polyline fill="none" stroke="#000000" stroke-width="2" stroke-opacity="0.200000" points="421.75,-212.11 418.79,-211.66 "/>
<ellipse fill="none" stroke="#000000" stroke-width="2" stroke-opacity="0.200000" cx="416.42" cy="-211.31" rx="2.4" ry="2.4"/>
</g>
<!-- src/editor/&#45;&gt;src/commands/ -->
<g id="edge34" class="edge">
<title>src/editor/&#45;&gt;src/commands/</title>
<path fill="none" stroke="#000000" stroke-width="2" stroke-opacity="0.200000" d="M442.87,-261.83C437.84,-255.3 432.12,-246.5 428,-238 419.85,-221.18 425.93,-213.17 415,-198 392.71,-167.06 380.81,-162.57 346,-147 281.05,-117.94 197.89,-106.22 151.13,-99.81"/>
<polygon fill="#000000" fill-opacity="0.200000" stroke="#000000" stroke-width="2" stroke-opacity="0.200000" points="151.29,-97.71 145.06,-98.98 150.72,-101.87 151.29,-97.71"/>
</g>
<!-- src/editor/&#45;&gt;src/core/ -->
<g id="edge29" class="edge">
<title>src/editor/&#45;&gt;src/core/</title>
<path fill="none" stroke="#000000" stroke-width="2" stroke-opacity="0.200000" d="M427.84,-277.86C375.39,-287.18 259.47,-299.18 225,-281 215.95,-276.23 219.71,-268.73 212,-262 210.86,-261 209.63,-260.06 208.34,-259.17"/>
<polygon fill="#000000" fill-opacity="0.200000" stroke="#000000" stroke-width="2" stroke-opacity="0.200000" points="202.59,-253.35 196.35,-252.12 200.46,-256.97 202.59,-253.35"/>
<polyline fill="none" stroke="#000000" stroke-width="2" stroke-opacity="0.200000" points="201.53,-255.16 204.11,-256.68 "/>
<ellipse fill="none" stroke="#000000" stroke-width="2" stroke-opacity="0.200000" cx="206.18" cy="-257.9" rx="2.4" ry="2.4"/>
</g>
<!-- src/editor/&#45;&gt;src/debugger/ -->
<g id="edge30" class="edge">
<title>src/editor/&#45;&gt;src/debugger/</title>
<path fill="none" stroke="#000000" stroke-width="2" stroke-opacity="0.200000" d="M440.89,-261.96C430.29,-252.7 415.34,-238.27 404.03,-226.47"/>
<polygon fill="#000000" fill-opacity="0.200000" stroke="#000000" stroke-width="2" stroke-opacity="0.200000" points="400.18,-219.19 394.57,-216.2 397.09,-222.04 400.18,-219.19"/>
<polyline fill="none" stroke="#000000" stroke-width="2" stroke-opacity="0.200000" points="398.64,-220.61 400.67,-222.82 "/>
<ellipse fill="none" stroke="#000000" stroke-width="2" stroke-opacity="0.200000" cx="402.29" cy="-224.58" rx="2.4" ry="2.4"/>
</g>
<!-- src/editor/&#45;&gt;src/history/ -->
<g id="edge31" class="edge">
<title>src/editor/&#45;&gt;src/history/</title>
<path fill="none" stroke="#000000" stroke-width="2" stroke-opacity="0.200000" d="M460.34,-261.75C466.11,-252.63 476.24,-239.11 482,-226 482,-226 503.42,-138.69 514.51,-95.91"/>
<polygon fill="#000000" fill-opacity="0.200000" stroke="#000000" stroke-width="2" stroke-opacity="0.200000" points="518.57,-88.74 518.07,-82.41 514.51,-87.67 518.57,-88.74"/>
<polyline fill="none" stroke="#000000" stroke-width="2" stroke-opacity="0.200000" points="516.54,-88.21 515.77,-91.11 "/>
<ellipse fill="none" stroke="#000000" stroke-width="2" stroke-opacity="0.200000" cx="515.16" cy="-93.43" rx="2.4" ry="2.4"/>
</g>
<!-- src/editor/&#45;&gt;src/loader/ -->
<g id="edge32" class="edge">
<title>src/editor/&#45;&gt;src/loader/</title>
<path fill="none" stroke="#000000" stroke-width="2" stroke-opacity="0.200000" d="M463.4,-261.99C468.93,-257.64 476.47,-252.65 482,-247 493.51,-235.24 503.66,-219.61 510.72,-208.26"/>
<polygon fill="#000000" fill-opacity="0.200000" stroke="#000000" stroke-width="2" stroke-opacity="0.200000" points="512.56,-209.27 513.93,-203.07 508.99,-207.07 512.56,-209.27"/>
</g>
<!-- src/editor/&#45;&gt;src/selector/ -->
<g id="edge33" class="edge">
<title>src/editor/&#45;&gt;src/selector/</title>
<path fill="none" stroke="#000000" stroke-width="2" stroke-opacity="0.200000" d="M482.06,-275.4C485.59,-276.51 489.21,-277.72 492.77,-278.98"/>
<polygon fill="#000000" fill-opacity="0.200000" stroke="#000000" stroke-width="2" stroke-opacity="0.200000" points="499.43,-283.78 505.78,-283.97 500.93,-279.86 499.43,-283.78"/>
<polyline fill="none" stroke="#000000" stroke-width="2" stroke-opacity="0.200000" points="500.18,-281.82 497.38,-280.75 "/>
<ellipse fill="none" stroke="#000000" stroke-width="2" stroke-opacity="0.200000" cx="495.14" cy="-279.89" rx="2.4" ry="2.4"/>
</g>
<!-- src/editor/&#45;&gt;src/utils/ -->
<g id="edge35" class="edge">
<title>src/editor/&#45;&gt;src/utils/</title>
<path fill="none" stroke="#000000" stroke-width="2" stroke-opacity="0.200000" d="M462.23,-280.3C473.62,-297.29 497.85,-333.45 511.37,-353.63"/>
<polygon fill="#000000" fill-opacity="0.200000" stroke="#000000" stroke-width="2" stroke-opacity="0.200000" points="509.8,-355.05 514.88,-358.87 513.29,-352.72 509.8,-355.05"/>
</g>
<!-- src/factory/&#45;&gt;src/controls/ -->
<g id="edge36" class="edge">
<title>src/factory/&#45;&gt;src/controls/</title>
<path fill="none" stroke="#000000" stroke-width="2" stroke-opacity="0.200000" d="M141.12,-201.77C178.12,-202.87 245.73,-204.86 285.79,-206.05"/>
<polygon fill="#000000" fill-opacity="0.200000" stroke="#000000" stroke-width="2" stroke-opacity="0.200000" points="285.92,-208.15 291.98,-206.23 286.04,-203.95 285.92,-208.15"/>
</g>
<!-- src/factory/&#45;&gt;src/core/ -->
<g id="edge37" class="edge">
<title>src/factory/&#45;&gt;src/core/</title>
<path fill="none" stroke="#000000" stroke-width="2" stroke-opacity="0.200000" d="M129.97,-210.11C139.83,-216.11 152.85,-224.04 163.65,-230.61"/>
<polygon fill="#000000" fill-opacity="0.200000" stroke="#000000" stroke-width="2" stroke-opacity="0.200000" points="162.84,-232.58 169.06,-233.9 165.02,-228.99 162.84,-232.58"/>
</g>
<!-- src/factory/&#45;&gt;src/debugger/ -->
<g id="edge38" class="edge">
<title>src/factory/&#45;&gt;src/debugger/</title>
<path fill="none" stroke="#000000" stroke-width="2" stroke-opacity="0.200000" d="M134.01,-191.85C141.4,-188.49 150,-184.82 158,-182 209.27,-163.91 224.96,-158.02 279,-164 309.33,-167.35 318.08,-166.68 346,-179 354.65,-182.82 363.36,-188.62 370.43,-193.96"/>
<polygon fill="#000000" fill-opacity="0.200000" stroke="#000000" stroke-width="2" stroke-opacity="0.200000" points="369.47,-195.88 375.49,-197.91 372.05,-192.57 369.47,-195.88"/>
</g>
<!-- src/factory/&#45;&gt;src/editor/ -->
<g id="edge39" class="edge">
<title>src/factory/&#45;&gt;src/editor/</title>
<path fill="none" stroke="#000000" stroke-width="2" stroke-opacity="0.200000" d="M128.51,-210.04C134.31,-214.53 140.73,-220.41 145,-227 155.86,-243.75 143.84,-255.92 158,-270 175.75,-287.65 193.79,-268.83 212,-286 224.38,-297.67 212.16,-310.85 225,-322 247.97,-341.95 261.74,-332.87 292,-336 315.87,-338.47 322.79,-342.11 346,-336 380.07,-327.04 384.99,-315.45 415,-297 421.82,-292.8 429.17,-287.99 435.62,-283.66"/>
<polygon fill="#000000" fill-opacity="0.200000" stroke="#000000" stroke-width="2" stroke-opacity="0.200000" points="437.01,-285.25 440.8,-280.15 434.65,-281.77 437.01,-285.25"/>
</g>
<!-- src/factory/&#45;&gt;src/gis/ -->
<g id="edge44" class="edge">
<title>src/factory/&#45;&gt;src/gis/</title>
<path fill="none" stroke="#000000" stroke-width="2" stroke-opacity="0.200000" d="M118.16,-210.23C124.03,-226.39 137.87,-260.24 158,-283 159.55,-284.75 161.29,-286.41 163.14,-287.97"/>
<polygon fill="#000000" fill-opacity="0.200000" stroke="#000000" stroke-width="2" stroke-opacity="0.200000" points="162.12,-289.84 168.16,-291.84 164.69,-286.51 162.12,-289.84"/>
</g>
<!-- src/factory/&#45;&gt;src/loader/ -->
<g id="edge40" class="edge">
<title>src/factory/&#45;&gt;src/loader/</title>
<path fill="none" stroke="#000000" stroke-width="2" stroke-opacity="0.200000" d="M118.99,-191.67C125.23,-178.31 138.62,-154.03 158,-142 229.52,-97.61 263,-104.98 346,-119 405.52,-129.06 469.19,-162.94 500.79,-181.53"/>
<polygon fill="#000000" fill-opacity="0.200000" stroke="#000000" stroke-width="2" stroke-opacity="0.200000" points="500.07,-183.55 506.3,-184.81 502.22,-179.94 500.07,-183.55"/>
</g>
<!-- src/factory/&#45;&gt;src/renderer/ -->
<g id="edge41" class="edge">
<title>src/factory/&#45;&gt;src/renderer/</title>
<path fill="none" stroke="#000000" stroke-width="2" stroke-opacity="0.200000" d="M121.77,-191.99C129.4,-182.61 142.76,-168.41 158,-162 235.02,-129.6 264.74,-142.55 346,-162 380,-170.14 415.36,-190.88 435.99,-204.44"/>
<polygon fill="#000000" fill-opacity="0.200000" stroke="#000000" stroke-width="2" stroke-opacity="0.200000" points="435,-206.3 441.16,-207.89 437.33,-202.81 435,-206.3"/>
</g>
<!-- src/factory/&#45;&gt;src/spatial/ -->
<g id="edge42" class="edge">
<title>src/factory/&#45;&gt;src/spatial/</title>
<path fill="none" stroke="#000000" stroke-width="2" stroke-opacity="0.200000" d="M141.22,-196.76C163.33,-193.18 195.05,-188.05 218.72,-184.22"/>
<polygon fill="#000000" fill-opacity="0.200000" stroke="#000000" stroke-width="2" stroke-opacity="0.200000" points="219.27,-186.26 224.86,-183.23 218.6,-182.11 219.27,-186.26"/>
</g>
<!-- src/factory/&#45;&gt;src/viewport/ -->
<g id="edge43" class="edge">
<title>src/factory/&#45;&gt;src/viewport/</title>
<path fill="none" stroke="#000000" stroke-width="2" stroke-opacity="0.200000" d="M127.9,-210.01C133.71,-214.58 140.31,-220.53 145,-227 153.76,-239.1 146.96,-247.93 158,-258 176.59,-274.95 190.73,-261.56 212,-275 219.18,-279.54 218.58,-283.44 225,-289 227.01,-290.74 229.18,-292.46 231.4,-294.12"/>
<polygon fill="#000000" fill-opacity="0.200000" stroke="#000000" stroke-width="2" stroke-opacity="0.200000" points="230.45,-296.03 236.55,-297.82 232.9,-292.61 230.45,-296.03"/>
</g>
<!-- src/history/&#45;&gt;src/commands/ -->
<g id="edge45" class="edge">
<title>src/history/&#45;&gt;src/commands/</title>
<path fill="none" stroke="#000000" stroke-width="2" stroke-opacity="0.200000" d="M513,-63.99C505.73,-56.46 494.28,-46.14 482,-41 443.25,-24.77 430.01,-31 388,-31 251,-31 251,-31 251,-31 207.74,-31 163.14,-57.3 137.3,-75.64"/>
<polygon fill="#000000" fill-opacity="0.200000" stroke="#000000" stroke-width="2" stroke-opacity="0.200000" points="129.78,-78.59 126.21,-83.85 132.28,-81.97 129.78,-78.59"/>
<polyline fill="none" stroke="#000000" stroke-width="2" stroke-opacity="0.200000" points="131.03,-80.28 133.44,-78.5 "/>
<ellipse fill="none" stroke="#000000" stroke-width="2" stroke-opacity="0.200000" cx="135.37" cy="-77.07" rx="2.4" ry="2.4"/>
</g>
<!-- src/history/&#45;&gt;src/core/ -->
<g id="edge46" class="edge">
<title>src/history/&#45;&gt;src/core/</title>
<path fill="none" stroke="#000000" stroke-width="2" stroke-opacity="0.200000" d="M503.13,-82.05C463.1,-102.29 363.13,-152.72 279,-194 255.09,-205.73 248.49,-207.45 225,-220 221.04,-222.12 216.9,-224.44 212.86,-226.76"/>
<polygon fill="#000000" fill-opacity="0.200000" stroke="#000000" stroke-width="2" stroke-opacity="0.200000" points="204.75,-229.11 200.65,-233.97 206.88,-232.73 204.75,-229.11"/>
<polyline fill="none" stroke="#000000" stroke-width="2" stroke-opacity="0.200000" points="205.82,-230.92 208.4,-229.39 "/>
<ellipse fill="none" stroke="#000000" stroke-width="2" stroke-opacity="0.200000" cx="210.47" cy="-228.17" rx="2.4" ry="2.4"/>
</g>
<!-- src/history/&#45;&gt;src/editor/ -->
<g id="edge47" class="edge">
<title>src/history/&#45;&gt;src/editor/</title>
<path fill="none" stroke="#000000" stroke-width="2" stroke-opacity="0.200000" d="M519.22,-82.28C511.59,-117.35 482,-238 482,-238 480.16,-242.19 477.87,-246.41 475.43,-250.4"/>
<polygon fill="#000000" fill-opacity="0.200000" stroke="#000000" stroke-width="2" stroke-opacity="0.200000" points="469.11,-255.83 467.41,-261.96 472.56,-258.23 469.11,-255.83"/>
<polyline fill="none" stroke="#000000" stroke-width="2" stroke-opacity="0.200000" points="470.83,-257.03 472.54,-254.56 "/>
<ellipse fill="none" stroke="#000000" stroke-width="2" stroke-opacity="0.200000" cx="473.91" cy="-252.59" rx="2.4" ry="2.4"/>
</g>
<!-- src/loader/&#45;&gt;src/commands/ -->
<g id="edge49" class="edge">
<title>src/loader/&#45;&gt;src/commands/</title>
<path fill="none" stroke="#000000" stroke-width="2" stroke-opacity="0.200000" d="M517.3,-184.72C504.47,-154.22 458.74,-59 388,-59 318,-59 318,-59 318,-59 258.98,-59 191.62,-73.15 151.25,-83.2"/>
<polygon fill="#000000" fill-opacity="0.200000" stroke="#000000" stroke-width="2" stroke-opacity="0.200000" points="150.31,-81.27 145,-84.77 151.33,-85.34 150.31,-81.27"/>
</g>
<!-- src/loader/&#45;&gt;src/core/ -->
<g id="edge48" class="edge">
<title>src/loader/&#45;&gt;src/core/</title>
<path fill="none" stroke="#000000" stroke-width="2" stroke-opacity="0.200000" d="M514.74,-203.08C507.88,-212.19 495.98,-225.75 482,-232 393.63,-271.53 275.17,-258.87 218.66,-249.4"/>
<polygon fill="#000000" fill-opacity="0.200000" stroke="#000000" stroke-width="2" stroke-opacity="0.200000" points="218.67,-247.28 212.41,-248.33 217.96,-251.41 218.67,-247.28"/>
</g>
<!-- src/loader/&#45;&gt;src/editor/ -->
<g id="edge50" class="edge">
<title>src/loader/&#45;&gt;src/editor/</title>
<path fill="none" stroke="#000000" stroke-width="2" stroke-opacity="0.200000" d="M518.18,-203.1C512.91,-215.8 500.77,-238.12 483.37,-257.21"/>
<polygon fill="#000000" fill-opacity="0.200000" stroke="#000000" stroke-width="2" stroke-opacity="0.200000" points="481.44,-256.19 478.83,-261.98 484.49,-259.08 481.44,-256.19"/>
</g>
<!-- src/renderer/&#45;&gt;src/core/ -->
<g id="edge51" class="edge">
<title>src/renderer/&#45;&gt;src/core/</title>
<path fill="none" stroke="#000000" stroke-width="2" stroke-opacity="0.200000" d="M427.72,-225.7C393.57,-233.27 332.04,-242.81 279,-247 261.66,-248.37 242.44,-248.94 226,-248.7"/>
<polygon fill="#000000" fill-opacity="0.200000" stroke="#000000" stroke-width="2" stroke-opacity="0.200000" points="218.16,-246.35 212.1,-248.26 218.03,-250.55 218.16,-246.35"/>
<polyline fill="none" stroke="#000000" stroke-width="2" stroke-opacity="0.200000" points="218.09,-248.45 221.09,-248.54 "/>
<ellipse fill="none" stroke="#000000" stroke-width="2" stroke-opacity="0.200000" cx="223.49" cy="-248.62" rx="2.4" ry="2.4"/>
</g>
<!-- src/selector/&#45;&gt;src/core/ -->
<g id="edge52" class="edge">
<title>src/selector/&#45;&gt;src/core/</title>
<path fill="none" stroke="#000000" stroke-width="2" stroke-opacity="0.200000" d="M508.08,-302.16C488.87,-315.15 451.15,-338.32 415,-347 390.8,-352.81 383.81,-349.02 359,-347 298.62,-342.08 270.74,-361.73 225,-322 212.16,-310.85 219.33,-301.35 212,-286 208.47,-278.61 204.04,-270.86 199.84,-264.01"/>
<polygon fill="#000000" fill-opacity="0.200000" stroke="#000000" stroke-width="2" stroke-opacity="0.200000" points="197.34,-256.19 192.34,-252.26 193.8,-258.45 197.34,-256.19"/>
<polyline fill="none" stroke="#000000" stroke-width="2" stroke-opacity="0.200000" points="195.57,-257.32 197.18,-259.85 "/>
<ellipse fill="none" stroke="#000000" stroke-width="2" stroke-opacity="0.200000" cx="198.47" cy="-261.87" rx="2.4" ry="2.4"/>
</g>
<!-- src/selector/&#45;&gt;src/editor/ -->
<g id="edge53" class="edge">
<title>src/selector/&#45;&gt;src/editor/</title>
<path fill="none" stroke="#000000" stroke-width="2" stroke-opacity="0.200000" d="M494.78,-288.55C491.43,-287.5 487.99,-286.35 484.61,-285.15"/>
<polygon fill="#000000" fill-opacity="0.200000" stroke="#000000" stroke-width="2" stroke-opacity="0.200000" points="477.76,-280.29 471.4,-280.11 476.26,-284.21 477.76,-280.29"/>
<polyline fill="none" stroke="#000000" stroke-width="2" stroke-opacity="0.200000" points="477.01,-282.25 479.81,-283.32 "/>
<ellipse fill="none" stroke="#000000" stroke-width="2" stroke-opacity="0.200000" cx="482.05" cy="-284.18" rx="2.4" ry="2.4"/>
</g>
<!-- src/spatial/&#45;&gt;src/debugger/ -->
<g id="edge54" class="edge">
<title>src/spatial/&#45;&gt;src/debugger/</title>
<path fill="none" stroke="#000000" stroke-width="2" stroke-opacity="0.200000" d="M279.35,-181.13C298.14,-183.02 323.88,-186.38 346,-192 347.7,-192.43 349.42,-192.91 351.16,-193.43"/>
<polygon fill="#000000" fill-opacity="0.200000" stroke="#000000" stroke-width="2" stroke-opacity="0.200000" points="357.91,-197.93 364.27,-197.86 359.26,-193.95 357.91,-197.93"/>
<polyline fill="none" stroke="#000000" stroke-width="2" stroke-opacity="0.200000" points="358.59,-195.94 355.75,-194.98 "/>
<ellipse fill="none" stroke="#000000" stroke-width="2" stroke-opacity="0.200000" cx="353.47" cy="-194.21" rx="2.4" ry="2.4"/>
</g>
<!-- src/viewport/&#45;&gt;src/controls/ -->
<g id="edge59" class="edge">
<title>src/viewport/&#45;&gt;src/controls/</title>
<path fill="none" stroke="#000000" stroke-width="2" stroke-opacity="0.200000" d="M259,-297.77C270.37,-280.28 295.12,-242.21 308.67,-221.36"/>
<polygon fill="#000000" fill-opacity="0.200000" stroke="#000000" stroke-width="2" stroke-opacity="0.200000" points="310.51,-222.38 312.02,-216.21 306.99,-220.09 310.51,-222.38"/>
</g>
<!-- src/viewport/&#45;&gt;src/core/ -->
<g id="edge55" class="edge">
<title>src/viewport/&#45;&gt;src/core/</title>
<path fill="none" stroke="#000000" stroke-width="2" stroke-opacity="0.200000" d="M227.73,-297.92C226.77,-296.98 225.85,-296.01 225,-295 216.16,-284.51 220.84,-277.49 212,-267 210.07,-264.7 207.77,-262.57 205.36,-260.57"/>
<polygon fill="#000000" fill-opacity="0.200000" stroke="#000000" stroke-width="2" stroke-opacity="0.200000" points="200.19,-254.06 194.13,-252.14 197.66,-257.42 200.19,-254.06"/>
<polyline fill="none" stroke="#000000" stroke-width="2" stroke-opacity="0.200000" points="198.93,-255.74 201.32,-257.54 "/>
<ellipse fill="none" stroke="#000000" stroke-width="2" stroke-opacity="0.200000" cx="203.24" cy="-258.98" rx="2.4" ry="2.4"/>
</g>
<!-- src/viewport/&#45;&gt;src/editor/ -->
<g id="edge56" class="edge">
<title>src/viewport/&#45;&gt;src/editor/</title>
<path fill="none" stroke="#000000" stroke-width="2" stroke-opacity="0.200000" d="M279.24,-305.11C318.39,-302.12 390.12,-295.93 415,-289 418.21,-288.11 421.49,-286.97 424.72,-285.72"/>
<polygon fill="#000000" fill-opacity="0.200000" stroke="#000000" stroke-width="2" stroke-opacity="0.200000" points="432.73,-284.46 437.37,-280.11 431.03,-280.62 432.73,-284.46"/>
<polyline fill="none" stroke="#000000" stroke-width="2" stroke-opacity="0.200000" points="431.88,-282.54 429.14,-283.76 "/>
<ellipse fill="none" stroke="#000000" stroke-width="2" stroke-opacity="0.200000" cx="426.94" cy="-284.73" rx="2.4" ry="2.4"/>
</g>
<!-- src/viewport/&#45;&gt;src/optimizer/ -->
<g id="edge57" class="edge">
<title>src/viewport/&#45;&gt;src/optimizer/</title>
<path fill="none" stroke="#000000" stroke-width="2" stroke-opacity="0.200000" d="M279.06,-312.61C281.32,-313.1 283.61,-313.59 285.9,-314.09"/>
<polygon fill="#000000" fill-opacity="0.200000" stroke="#000000" stroke-width="2" stroke-opacity="0.200000" points="285.62,-316.17 291.93,-315.39 286.51,-312.07 285.62,-316.17"/>
</g>
<!-- src/viewport/&#45;&gt;src/renderer/ -->
<g id="edge58" class="edge">
<title>src/viewport/&#45;&gt;src/renderer/</title>
<path fill="none" stroke="#000000" stroke-width="2" stroke-opacity="0.200000" d="M279.15,-298.39C318.52,-285.23 390.99,-260.28 415,-247 421.14,-243.61 427.35,-239.3 432.96,-235.02"/>
<polygon fill="#000000" fill-opacity="0.200000" stroke="#000000" stroke-width="2" stroke-opacity="0.200000" points="440.67,-231.47 444,-226.06 438.02,-228.21 440.67,-231.47"/>
<polyline fill="none" stroke="#000000" stroke-width="2" stroke-opacity="0.200000" points="439.34,-229.84 437.01,-231.73 "/>
<ellipse fill="none" stroke="#000000" stroke-width="2" stroke-opacity="0.200000" cx="435.15" cy="-233.24" rx="2.4" ry="2.4"/>
</g>
</g>
</svg>
